<svg width="599" height="518" viewBox="0 0 599 518" fill="none" xmlns="http://www.w3.org/2000/svg">
<g clip-path="url(#clip0_484_2753)">
<path d="M441.003 267.687L439.205 267.201L452.511 217.94C454.553 210.379 453.506 202.315 449.598 195.522C445.69 188.73 439.243 183.766 431.674 181.721L327.206 153.503C323.458 152.491 319.548 152.226 315.699 152.724C311.849 153.221 308.136 154.471 304.771 156.403C301.406 158.335 298.455 160.91 296.086 163.982C293.718 167.053 291.978 170.561 290.967 174.305L217.97 444.556C215.927 452.117 216.975 460.181 220.883 466.974C224.79 473.766 231.238 478.73 238.807 480.775L343.274 508.992C350.843 511.037 358.913 509.994 365.709 506.092C372.505 502.191 377.47 495.751 379.513 488.19L429.732 302.266L431.53 302.752L441.003 267.687Z" fill="#3F3D56"/>
<path d="M447.207 214.459L373.179 488.527C371.629 494.26 367.865 499.142 362.712 502.101C357.56 505.059 351.441 505.851 345.702 504.303L239.091 475.507C233.35 473.957 228.459 470.192 225.494 465.041C222.529 459.89 221.733 453.774 223.28 448.038L297.308 173.97C298.859 168.235 302.626 163.352 307.781 160.394C312.937 157.436 319.058 156.646 324.798 158.197L337.73 161.691C336.674 163.079 335.975 164.706 335.696 166.428C335.416 168.15 335.564 169.914 336.127 171.566C336.689 173.218 337.649 174.707 338.922 175.901C340.196 177.096 341.743 177.96 343.428 178.418L404.209 194.835C405.895 195.288 407.667 195.321 409.368 194.929C411.07 194.538 412.649 193.735 413.967 192.591C415.284 191.448 416.301 189.998 416.926 188.369C417.551 186.74 417.767 184.983 417.553 183.251L431.406 186.993C437.144 188.544 442.032 192.308 444.996 197.458C447.959 202.607 448.755 208.721 447.208 214.455L447.207 214.459Z" fill="white"/>
<path d="M343.785 304.167C331.646 300.893 321.303 292.936 315.031 282.045C308.76 271.155 307.074 258.223 310.344 246.095L310.355 246.055C310.38 245.959 310.408 245.858 310.439 245.764C317.344 220.751 343.394 205.899 368.497 212.68C380.64 215.959 390.985 223.924 397.255 234.821C403.525 245.719 405.207 258.656 401.931 270.788C398.655 282.92 390.689 293.253 379.785 299.513C368.882 305.772 355.934 307.447 343.791 304.167L343.785 304.166L343.785 304.167ZM368.237 213.642C356.396 210.472 343.784 212.099 333.14 218.168C322.497 224.237 314.683 234.258 311.395 246.055C311.362 246.156 311.34 246.238 311.319 246.316C308.926 255.173 309.215 264.542 312.15 273.238C315.086 281.934 320.535 289.566 327.81 295.169C335.085 300.772 343.859 304.095 353.021 304.717C362.184 305.339 371.324 303.232 379.286 298.663C387.247 294.094 393.673 287.268 397.751 279.048C401.828 270.828 403.374 261.584 402.192 252.483C401.011 243.383 397.155 234.836 391.114 227.923C385.072 221.01 377.115 216.041 368.249 213.646L368.237 213.642Z" fill="#E6E6E6"/>
<path d="M378.141 365.049L283.404 339.46C282.939 339.334 282.543 339.029 282.303 338.611C282.063 338.194 281.998 337.699 282.123 337.234L288.465 313.757C288.591 313.292 288.896 312.897 289.314 312.657C289.731 312.417 290.227 312.353 290.692 312.478L385.429 338.067C385.894 338.193 386.29 338.498 386.53 338.916C386.77 339.333 386.835 339.829 386.71 340.293L380.368 363.771C380.242 364.236 379.937 364.631 379.519 364.871C379.102 365.11 378.606 365.175 378.141 365.05L378.141 365.049ZM290.503 313.179C290.224 313.103 289.926 313.142 289.676 313.286C289.425 313.43 289.242 313.667 289.166 313.946L282.825 337.424C282.749 337.703 282.788 338 282.932 338.251C283.076 338.501 283.314 338.684 283.593 338.76L378.33 364.349C378.609 364.424 378.907 364.386 379.157 364.242C379.408 364.098 379.591 363.86 379.667 363.582L386.008 340.104C386.083 339.825 386.045 339.528 385.9 339.277C385.756 339.027 385.519 338.843 385.24 338.768L290.503 313.179Z" fill="#E6E6E6"/>
<path d="M317.672 328.976C317.346 328.888 316.999 328.933 316.706 329.101C316.414 329.269 316.2 329.546 316.112 329.871C316.025 330.197 316.07 330.544 316.238 330.836C316.406 331.129 316.683 331.342 317.009 331.43L374.903 347.068C375.063 347.118 375.231 347.135 375.397 347.12C375.563 347.105 375.725 347.058 375.873 346.98C376.021 346.903 376.152 346.797 376.259 346.668C376.366 346.54 376.447 346.392 376.496 346.233C376.546 346.073 376.564 345.906 376.549 345.74C376.533 345.573 376.486 345.412 376.408 345.264C376.33 345.116 376.224 344.985 376.096 344.878C375.968 344.771 375.819 344.69 375.66 344.641C375.642 344.635 375.624 344.63 375.606 344.625L317.672 328.977L317.672 328.976Z" fill="#E6E6E6"/>
<path d="M315.684 336.338C315.358 336.25 315.011 336.294 314.718 336.462C314.426 336.63 314.212 336.907 314.124 337.233C314.036 337.558 314.081 337.905 314.25 338.198C314.418 338.49 314.695 338.704 315.021 338.791L372.915 354.429C373.075 354.479 373.242 354.497 373.409 354.482C373.575 354.467 373.737 354.419 373.885 354.341C374.033 354.264 374.164 354.158 374.271 354.03C374.378 353.902 374.458 353.754 374.508 353.594C374.558 353.435 374.576 353.267 374.56 353.101C374.545 352.935 374.497 352.773 374.42 352.625C374.342 352.477 374.236 352.346 374.108 352.239C373.979 352.132 373.831 352.052 373.672 352.002C373.654 351.996 373.636 351.991 373.618 351.987L315.684 336.338L315.684 336.338Z" fill="#E6E6E6"/>
<path d="M367.536 404.311L272.8 378.722C272.335 378.596 271.939 378.291 271.698 377.873C271.458 377.456 271.394 376.96 271.519 376.495L277.86 353.018C277.986 352.554 278.292 352.158 278.709 351.919C279.127 351.679 279.623 351.614 280.088 351.739L374.824 377.329C375.289 377.455 375.685 377.76 375.925 378.178C376.165 378.595 376.23 379.09 376.105 379.555L369.764 403.033C369.638 403.497 369.332 403.893 368.915 404.132C368.497 404.372 368.001 404.436 367.536 404.311ZM279.898 352.44C279.619 352.365 279.322 352.404 279.071 352.548C278.82 352.692 278.637 352.929 278.562 353.208L272.22 376.685C272.145 376.964 272.184 377.262 272.328 377.512C272.472 377.763 272.71 377.946 272.989 378.022L367.725 403.611C368.005 403.686 368.302 403.647 368.553 403.503C368.803 403.36 368.987 403.122 369.062 402.843L375.404 379.366C375.479 379.087 375.44 378.789 375.296 378.539C375.152 378.288 374.914 378.105 374.635 378.03L279.898 352.44Z" fill="#E6E6E6"/>
<path d="M307.068 368.234C306.742 368.146 306.395 368.191 306.102 368.359C305.81 368.527 305.596 368.804 305.508 369.129C305.421 369.455 305.466 369.802 305.634 370.094C305.802 370.386 306.079 370.6 306.405 370.688L364.299 386.326C364.621 386.411 364.963 386.366 365.252 386.202C365.541 386.038 365.755 385.768 365.847 385.448C365.938 385.129 365.902 384.786 365.744 384.494C365.586 384.201 365.32 383.982 365.002 383.883L307.068 368.235L307.068 368.234Z" fill="#E6E6E6"/>
<path d="M305.079 375.597C304.753 375.509 304.406 375.554 304.113 375.722C303.821 375.89 303.607 376.167 303.519 376.493C303.431 376.818 303.476 377.165 303.645 377.457C303.813 377.75 304.09 377.963 304.416 378.051L362.31 393.689C362.632 393.774 362.974 393.73 363.263 393.566C363.552 393.402 363.765 393.131 363.857 392.812C363.949 392.492 363.912 392.15 363.754 391.857C363.597 391.565 363.33 391.345 363.013 391.246L305.079 375.598L305.079 375.597Z" fill="#E6E6E6"/>
<path d="M356.932 443.571L262.195 417.982C261.73 417.856 261.334 417.55 261.094 417.133C260.854 416.716 260.789 416.22 260.914 415.755L267.256 392.278C267.382 391.814 267.687 391.418 268.105 391.178C268.522 390.939 269.018 390.874 269.483 390.999L364.22 416.588C364.685 416.715 365.081 417.02 365.321 417.437C365.561 417.855 365.626 418.35 365.501 418.815L359.159 442.293C359.033 442.757 358.728 443.153 358.31 443.392C357.893 443.632 357.397 443.696 356.932 443.571L356.932 443.571ZM269.294 391.7C269.015 391.625 268.717 391.664 268.467 391.807C268.216 391.951 268.033 392.189 267.957 392.467L261.616 415.945C261.541 416.224 261.579 416.522 261.723 416.772C261.868 417.023 262.105 417.206 262.384 417.281L357.121 442.871C357.4 442.946 357.698 442.907 357.948 442.763C358.199 442.619 358.382 442.382 358.458 442.103L364.799 418.625C364.874 418.346 364.836 418.049 364.691 417.799C364.547 417.548 364.31 417.365 364.031 417.289L269.294 391.7Z" fill="#E6E6E6"/>
<path d="M296.463 407.496C296.137 407.408 295.79 407.453 295.497 407.621C295.205 407.788 294.991 408.066 294.903 408.391C294.816 408.716 294.861 409.063 295.029 409.356C295.197 409.648 295.474 409.862 295.8 409.95L353.694 425.587C353.854 425.637 354.022 425.655 354.188 425.64C354.354 425.625 354.516 425.577 354.664 425.5C354.812 425.422 354.943 425.316 355.05 425.188C355.157 425.06 355.238 424.912 355.287 424.752C355.337 424.593 355.355 424.425 355.34 424.259C355.324 424.093 355.277 423.931 355.199 423.783C355.121 423.636 355.015 423.504 354.887 423.397C354.759 423.291 354.61 423.21 354.451 423.16C354.433 423.155 354.415 423.15 354.397 423.145L296.463 407.496L296.463 407.496Z" fill="#E6E6E6"/>
<path d="M294.475 414.857C294.149 414.769 293.802 414.814 293.509 414.982C293.217 415.15 293.003 415.427 292.915 415.752C292.827 416.078 292.872 416.425 293.041 416.717C293.209 417.009 293.486 417.223 293.812 417.311L351.706 432.949C351.866 432.998 352.033 433.016 352.2 433.001C352.366 432.986 352.528 432.938 352.676 432.861C352.824 432.783 352.955 432.678 353.062 432.549C353.169 432.421 353.249 432.273 353.299 432.114C353.349 431.954 353.367 431.787 353.351 431.62C353.336 431.454 353.288 431.293 353.211 431.145C353.133 430.997 353.027 430.866 352.899 430.759C352.77 430.652 352.622 430.571 352.463 430.522C352.445 430.516 352.427 430.511 352.409 430.506L294.475 414.858L294.475 414.857Z" fill="#E6E6E6"/>
<path d="M370.909 261.22L357.556 257.613L361.159 244.272L358.933 243.671L355.33 257.012L341.977 253.405L341.377 255.628L354.73 259.235L351.126 272.576L353.352 273.177L356.955 259.836L370.308 263.443L370.909 261.22Z" fill="#6C63FF"/>
<path d="M318.376 263.844L176.464 254.327L180.498 193.854L322.409 203.372L318.376 263.844ZM178.502 252.545L316.593 261.807L320.372 205.152L182.281 195.891L178.502 252.545Z" fill="#E4E4E4"/>
<path d="M225.568 247.474L225.508 247.482C225.026 247.543 224.542 247.593 224.051 247.619C223.885 247.63 223.715 247.635 223.55 247.64C223.386 247.644 223.215 247.65 223.046 247.651C222.769 247.655 222.489 247.649 222.209 247.639C222.088 247.637 221.962 247.63 221.841 247.624L221.769 247.62C221.619 247.612 221.469 247.603 221.32 247.591L220.934 247.555C220.862 247.551 220.791 247.543 220.722 247.534C217.668 247.202 214.73 246.182 212.126 244.552C209.523 242.922 207.324 240.723 205.693 238.122C204.062 235.52 203.043 232.583 202.712 229.532C202.381 226.481 202.746 223.395 203.781 220.506C204.815 217.616 206.492 214.999 208.685 212.852C210.878 210.704 213.53 209.081 216.442 208.105C219.353 207.129 222.449 206.826 225.495 207.218C228.542 207.61 231.46 208.687 234.031 210.368C230.858 211.981 228.165 214.4 226.223 217.381C224.281 220.363 223.157 223.802 222.965 227.355C222.772 230.908 223.518 234.449 225.127 237.624C226.736 240.799 229.152 243.497 232.133 245.445C230.077 246.491 227.857 247.178 225.569 247.476L225.568 247.474Z" fill="#6C63FF"/>
<path d="M256.304 245.083C257.045 245.744 257.835 246.348 258.667 246.891C255.489 248.512 251.939 249.264 248.375 249.07L248.115 249.055C245.013 248.851 242 247.938 239.306 246.387C236.613 244.836 234.311 242.689 232.578 240.11C230.845 237.532 229.727 234.59 229.31 231.513C228.893 228.435 229.188 225.303 230.172 222.358C231.157 219.413 232.805 216.733 234.989 214.525C237.173 212.317 239.835 210.639 242.771 209.62C245.707 208.602 248.837 208.27 251.922 208.65C255.007 209.03 257.964 210.113 260.565 211.814C257.61 213.306 255.066 215.5 253.156 218.202C251.246 220.904 250.027 224.033 249.607 227.315C249.187 230.597 249.577 233.933 250.744 237.03C251.912 240.127 253.82 242.892 256.304 245.083L256.304 245.083Z" fill="#6C63FF"/>
<path d="M296.288 231.353C296.072 235.362 294.67 239.216 292.26 242.428C289.85 245.64 286.541 248.066 282.751 249.398C278.961 250.73 274.86 250.909 270.967 249.912C267.074 248.916 263.563 246.788 260.879 243.799C258.195 240.809 256.459 237.092 255.889 233.117C255.319 229.142 255.941 225.089 257.677 221.468C259.413 217.848 262.185 214.824 265.641 212.778C269.098 210.733 273.085 209.758 277.098 209.976C279.762 210.122 282.372 210.79 284.778 211.943C287.184 213.095 289.34 214.711 291.122 216.695C292.904 218.68 294.277 220.997 295.164 223.511C296.05 226.026 296.433 228.691 296.288 231.353Z" fill="#6C63FF"/>
<path d="M283.351 246.62C283.302 247.537 283.16 248.448 282.927 249.336C280.359 250.263 277.631 250.665 274.904 250.516C272.177 250.367 269.507 249.672 267.055 248.471C266.919 247.562 266.877 246.642 266.927 245.725C267.185 240.956 269.834 237.059 273.253 235.895C271.947 235.261 270.901 234.195 270.292 232.877C269.683 231.56 269.549 230.073 269.912 228.668C270.276 227.264 271.114 226.029 272.286 225.173C273.458 224.316 274.89 223.892 276.34 223.971C277.79 224.05 279.168 224.627 280.24 225.606C281.313 226.585 282.013 227.904 282.223 229.339C282.433 230.775 282.139 232.239 281.392 233.482C280.644 234.726 279.489 235.672 278.122 236.161C281.397 237.689 283.609 241.852 283.351 246.62Z" fill="white"/>
<path d="M256.304 245.084L256.3 245.147C256.171 246.281 255.948 247.402 255.634 248.499C253.218 249.374 250.836 249.172 248.114 249.057L247.854 249.043C245.126 248.898 242.456 248.202 240.005 246.998C239.99 246.915 239.98 246.83 239.975 246.745C239.863 245.919 239.83 245.084 239.877 244.252C240.136 239.483 242.785 235.586 246.203 234.422C244.897 233.788 243.851 232.722 243.242 231.405C242.632 230.087 242.498 228.6 242.862 227.196C243.225 225.792 244.064 224.556 245.236 223.7C246.408 222.844 247.84 222.42 249.29 222.499C249.782 222.524 250.269 222.609 250.74 222.752C249.294 226.599 249.051 230.794 250.045 234.782C251.038 238.77 253.221 242.363 256.304 245.085L256.304 245.084Z" fill="white"/>
<path d="M230.191 244.004C230.136 244.827 230.003 245.643 229.793 246.441C227.947 247.11 226.012 247.507 224.051 247.619C223.886 247.629 223.716 247.635 223.551 247.64C223.387 247.644 223.216 247.65 223.047 247.651C222.77 247.655 222.49 247.65 222.209 247.639C222.151 247.641 222.088 247.637 222.03 247.634L221.77 247.62C221.62 247.612 221.47 247.603 221.321 247.591L220.935 247.555C220.863 247.551 220.792 247.543 220.723 247.534C218.358 247.288 216.055 246.625 213.921 245.576C213.917 245.565 213.916 245.553 213.918 245.542C213.904 245.469 213.895 245.396 213.891 245.322C213.778 244.496 213.746 243.661 213.793 242.829C214.051 238.061 216.7 234.163 220.119 233C218.813 232.366 217.767 231.299 217.157 229.982C216.548 228.665 216.414 227.178 216.778 225.773C217.141 224.369 217.98 223.134 219.152 222.277C220.324 221.421 221.756 220.997 223.206 221.076C223.554 221.095 223.9 221.142 224.24 221.219C222.736 225.163 222.501 229.477 223.568 233.561C224.635 237.645 226.95 241.296 230.192 244.004L230.191 244.004Z" fill="white"/>
<path d="M302.348 333.881C302.228 334.324 302.064 334.755 301.858 335.165C300.505 335.352 299.128 335.264 297.81 334.908C296.492 334.552 295.258 333.935 294.183 333.092C294.212 332.634 294.287 332.179 294.407 331.736C295.03 329.431 296.731 327.8 298.525 327.586C297.952 327.14 297.551 326.509 297.39 325.802C297.23 325.094 297.319 324.353 297.643 323.704C297.967 323.055 298.506 322.538 299.168 322.241C299.83 321.944 300.575 321.885 301.276 322.074C301.977 322.264 302.591 322.69 303.014 323.28C303.437 323.87 303.642 324.588 303.595 325.312C303.548 326.036 303.252 326.721 302.757 327.251C302.262 327.782 301.598 328.125 300.879 328.221C302.322 329.31 302.97 331.575 302.348 333.881Z" fill="#6C63FF"/>
<path d="M291.528 373.937C291.409 374.381 291.245 374.811 291.038 375.222C289.686 375.408 288.309 375.321 286.991 374.965C285.672 374.609 284.439 373.991 283.364 373.149C283.392 372.69 283.467 372.236 283.588 371.792C284.21 369.487 285.911 367.856 287.706 367.642C287.133 367.196 286.732 366.566 286.571 365.858C286.41 365.151 286.499 364.41 286.824 363.761C287.148 363.111 287.687 362.595 288.349 362.297C289.011 362 289.756 361.942 290.457 362.131C291.158 362.32 291.772 362.746 292.195 363.336C292.617 363.926 292.823 364.644 292.776 365.368C292.729 366.092 292.433 366.778 291.938 367.308C291.443 367.838 290.779 368.181 290.059 368.278C291.502 369.366 292.151 371.632 291.528 373.937Z" fill="#6C63FF"/>
<path d="M280.924 413.197C280.804 413.641 280.64 414.071 280.434 414.482C279.081 414.668 277.705 414.581 276.386 414.225C275.068 413.868 273.834 413.251 272.76 412.409C272.788 411.95 272.863 411.496 272.983 411.052C273.606 408.747 275.307 407.116 277.101 406.902C276.528 406.456 276.127 405.826 275.967 405.118C275.806 404.411 275.895 403.669 276.219 403.02C276.543 402.371 277.082 401.854 277.744 401.557C278.407 401.26 279.151 401.201 279.852 401.391C280.554 401.58 281.167 402.006 281.59 402.596C282.013 403.186 282.218 403.904 282.171 404.628C282.125 405.352 281.828 406.037 281.333 406.568C280.838 407.098 280.174 407.441 279.455 407.538C280.898 408.626 281.546 410.892 280.924 413.197Z" fill="#6C63FF"/>
<path d="M256.892 421.142C260.965 422.242 265.158 419.835 266.257 415.766C267.356 411.697 264.945 407.506 260.872 406.406C256.799 405.306 252.607 407.713 251.507 411.782C250.408 415.851 252.819 420.041 256.892 421.142Z" fill="#FFB8B8"/>
</g>
<path d="M505.5 450C499.665 450 493.962 448.299 489.111 445.113C484.259 441.926 480.478 437.397 478.246 432.098C476.013 426.799 475.429 420.968 476.567 415.342C477.705 409.717 480.515 404.55 484.64 400.494C488.766 396.438 494.022 393.676 499.745 392.557C505.467 391.438 511.399 392.013 516.789 394.208C522.18 396.402 526.787 400.119 530.028 404.888C533.27 409.658 535 415.264 535 421C535 428.691 531.892 436.068 526.36 441.506C520.827 446.945 513.324 450 505.5 450ZM505.5 393.381C499.943 393.381 494.511 395.001 489.891 398.036C485.271 401.07 481.67 405.384 479.543 410.431C477.417 415.477 476.861 421.031 477.945 426.388C479.029 431.746 481.704 436.667 485.634 440.53C489.563 444.392 494.569 447.023 500.019 448.088C505.469 449.154 511.118 448.607 516.252 446.517C521.385 444.426 525.773 440.886 528.86 436.344C531.947 431.802 533.595 426.463 533.595 421C533.595 417.373 532.869 413.782 531.457 410.431C530.045 407.08 527.975 404.035 525.366 401.47C522.757 398.906 519.66 396.871 516.252 395.483C512.843 394.095 509.19 393.381 505.5 393.381Z" fill="#3F3D56"/>
<path d="M522.5 412.78L526 412.097C526 412.097 523.06 415.307 522.5 415.511C522.448 416.193 522.448 416.878 522.5 417.56C515.78 445.693 491 433.266 491 433.266C500.03 433.47 500.8 429.851 500.8 429.851C495.55 429.1 494.5 425.754 494.5 425.754C494.971 425.997 495.517 426.061 496.034 425.935C496.55 425.809 497.001 425.501 497.3 425.071C491.63 423.637 492.4 418.243 492.4 418.243C493.411 418.955 494.592 419.401 495.83 419.54C495.2 418.789 489.88 412.575 493.1 409.366C493.1 409.366 497.02 416.194 507.31 416.809L508.01 416.672C507.891 416.18 507.844 415.675 507.87 415.17C507.87 413.268 508.644 411.445 510.023 410.1C511.401 408.755 513.271 408 515.22 408C520.12 408 521.17 410.731 521.17 410.731L524.67 408.683C524.6 408.683 524.25 412.097 522.5 412.78Z" fill="#6C63FF"/>
<path d="M431 382C425.264 382 419.658 380.299 414.888 377.113C410.119 373.926 406.402 369.397 404.208 364.098C402.013 358.799 401.438 352.968 402.557 347.342C403.676 341.717 406.438 336.55 410.494 332.494C414.55 328.438 419.717 325.676 425.342 324.557C430.968 323.438 436.799 324.013 442.098 326.208C447.397 328.402 451.926 332.119 455.113 336.888C458.299 341.657 460 347.264 460 353C460 356.808 459.25 360.579 457.793 364.098C456.335 367.616 454.199 370.813 451.506 373.506C448.813 376.199 445.616 378.335 442.098 379.793C438.579 381.25 434.808 382 431 382ZM431 325.381C425.537 325.381 420.198 327.001 415.656 330.036C411.114 333.07 407.574 337.384 405.483 342.431C403.393 347.477 402.846 353.031 403.912 358.388C404.977 363.746 407.608 368.667 411.47 372.53C415.333 376.392 420.254 379.023 425.612 380.088C430.969 381.154 436.523 380.607 441.569 378.517C446.616 376.426 450.93 372.886 453.964 368.344C456.999 363.802 458.619 358.463 458.619 353C458.619 345.675 455.709 338.65 450.53 333.47C445.35 328.291 438.325 325.381 431 325.381V325.381Z" fill="#3F3D56"/>
<path d="M438.791 338.916C440.724 338.922 442.575 339.692 443.941 341.059C445.308 342.425 446.078 344.276 446.084 346.209V360.791C446.078 362.724 445.308 364.575 443.941 365.941C442.575 367.308 440.724 368.078 438.791 368.084H424.209C422.276 368.078 420.425 367.308 419.059 365.941C417.692 364.575 416.922 362.724 416.916 360.791V346.209C416.922 344.276 417.692 342.425 419.059 341.059C420.425 339.692 422.276 338.922 424.209 338.916H438.791ZM438.791 336H424.209C421.504 336.008 418.912 337.086 416.999 338.999C415.086 340.911 414.008 343.504 414 346.209V360.791C414.008 363.496 415.086 366.088 416.999 368.001C418.912 369.914 421.504 370.992 424.209 371H438.791C441.496 370.992 444.089 369.914 446.001 368.001C447.914 366.088 448.992 363.496 449 360.791V346.209C448.992 343.504 447.914 340.912 446.001 338.999C444.089 337.086 441.496 336.008 438.791 336Z" fill="#6C63FF"/>
<path d="M440.996 346C440.466 345.999 439.958 345.787 439.584 345.412C439.209 345.037 438.999 344.528 439 343.998C439.001 343.468 439.212 342.96 439.587 342.585C439.962 342.21 440.47 342 441 342C441.53 342 442.038 342.21 442.413 342.585C442.788 342.96 442.999 343.468 443 343.998C443.001 344.528 442.791 345.037 442.416 345.412C442.042 345.787 441.534 345.999 441.004 346C441.001 346 440.999 346 440.996 346Z" fill="#6C63FF"/>
<path d="M431 347.833C432.187 347.833 433.347 348.165 434.334 348.788C435.32 349.411 436.089 350.296 436.544 351.331C436.998 352.367 437.117 353.506 436.885 354.606C436.653 355.705 436.082 356.715 435.243 357.507C434.404 358.3 433.335 358.839 432.171 359.058C431.007 359.277 429.8 359.164 428.704 358.736C427.607 358.307 426.67 357.58 426.011 356.648C425.352 355.716 425 354.621 425 353.5C425 352.756 425.155 352.019 425.456 351.331C425.758 350.644 426.2 350.019 426.757 349.493C427.314 348.967 427.976 348.549 428.704 348.264C429.432 347.98 430.212 347.833 431 347.833ZM431 345C429.22 345 427.48 345.499 426 346.432C424.52 347.366 423.366 348.694 422.685 350.247C422.004 351.8 421.826 353.509 422.173 355.158C422.52 356.807 423.377 358.322 424.636 359.51C425.895 360.699 427.498 361.509 429.244 361.837C430.99 362.165 432.8 361.996 434.444 361.353C436.089 360.71 437.494 359.62 438.483 358.222C439.472 356.825 440 355.181 440 353.5C440 351.246 439.052 349.084 437.364 347.49C435.676 345.896 433.387 345 431 345V345Z" fill="#6C63FF"/>
<path d="M432 517C426.264 517 420.657 515.299 415.888 512.113C411.119 508.926 407.402 504.397 405.207 499.098C403.013 493.799 402.438 487.968 403.557 482.342C404.676 476.717 407.438 471.55 411.494 467.494C415.55 463.438 420.717 460.676 426.342 459.557C431.968 458.438 437.799 459.013 443.098 461.207C448.397 463.402 452.926 467.119 456.113 471.888C459.299 476.657 461 482.264 461 488C461 495.691 457.945 503.068 452.506 508.506C447.068 513.945 439.691 517 432 517ZM432 460.381C426.537 460.381 421.198 462.001 416.656 465.036C412.114 468.07 408.574 472.384 406.483 477.431C404.393 482.477 403.846 488.031 404.912 493.388C405.977 498.746 408.608 503.667 412.47 507.53C416.333 511.392 421.254 514.023 426.612 515.088C431.969 516.154 437.523 515.607 442.569 513.517C447.616 511.426 451.93 507.886 454.964 503.344C457.999 498.802 459.619 493.463 459.619 488C459.619 484.373 458.905 480.782 457.517 477.431C456.129 474.08 454.094 471.035 451.53 468.47C448.965 465.906 445.92 463.871 442.569 462.483C439.218 461.095 435.627 460.381 432 460.381Z" fill="#3F3D56"/>
<path fill-rule="evenodd" clip-rule="evenodd" d="M451 488.113C450.999 484.46 449.958 480.883 448 477.807C446.042 474.731 443.249 472.283 439.951 470.755C436.654 469.226 432.99 468.68 429.393 469.181C425.797 469.682 422.418 471.209 419.658 473.583C416.897 475.956 414.87 479.075 413.817 482.571C412.764 486.067 412.728 489.793 413.714 493.309C414.701 496.825 416.667 499.983 419.382 502.409C422.096 504.835 425.445 506.428 429.031 506.998V493.641H424.206V488.113H429.031V483.901C429.031 479.11 431.869 476.462 436.208 476.462C437.633 476.482 439.055 476.607 440.462 476.836V481.541H438.065C435.706 481.541 434.968 483.014 434.968 484.528V488.114H440.237L439.396 493.641H434.968V507C439.437 506.288 443.508 503.994 446.447 500.532C449.386 497.07 451 492.666 451 488.113L451 488.113Z" fill="#6C63FF"/>
<path d="M497.423 38.4395H448.22V66.1164H497.423V38.4395Z" fill="#F1F1F1"/>
<path d="M598.905 16.9141H549.702V44.591H598.905V16.9141Z" fill="#F1F1F1"/>
<path d="M583.529 88.668H534.326V116.345H583.529V88.668Z" fill="#F1F1F1"/>
<path d="M565.078 0H515.875V27.677H565.078V0Z" fill="#E5E5E5"/>
<path d="M566.615 51.0293H485.635V96.5809H566.615V51.0293Z" fill="#6C63FF"/>
<path d="M402.949 124.833H487.887V88.3359H489.215V126.161H402.949V124.833Z" fill="#3F3D56"/>
<path d="M488.551 101.765C492.583 101.765 495.851 98.4968 495.851 94.4655C495.851 90.4341 492.583 87.166 488.551 87.166C484.52 87.166 481.252 90.4341 481.252 94.4655C481.252 98.4968 484.52 101.765 488.551 101.765Z" fill="#3F3D56"/>
<path d="M423.815 137.91H384V139.237H423.815V137.91Z" fill="#6C63FF"/>
<path d="M423.815 141.893H384V143.22H423.815V141.893Z" fill="#6C63FF"/>
<path d="M423.815 145.873H384V147.2H423.815V145.873Z" fill="#6C63FF"/>
<defs>
<clipPath id="clip0_484_2753">
<rect width="387" height="339" fill="white" transform="translate(88.3989 89) rotate(15.1154)"/>
</clipPath>
</defs>
</svg>
