<svg width="387" height="619" viewBox="0 0 387 619" fill="none" xmlns="http://www.w3.org/2000/svg">
<rect width="387" height="619" rx="60" fill="#010456"/>
<path d="M62.16 165.668C62.16 176.954 69.936 185.648 81.978 185.648C88.782 185.648 93.372 182.624 95.532 180.896C96.612 179.978 96.666 178.844 95.856 177.764L94.776 176.306C93.912 175.064 92.832 175.064 91.644 175.928C89.862 177.224 86.568 179.276 82.248 179.276C73.986 179.276 69.342 172.742 69.342 165.56C69.342 158.486 73.824 152.384 82.194 152.384C86.136 152.384 89.16 154.004 90.834 155.084C92.13 155.894 93.156 155.786 93.912 154.544L94.884 152.978C95.64 151.79 95.586 150.71 94.452 149.846C92.4 148.388 88.188 146.012 81.924 146.012C70.314 146.012 62.16 154.544 62.16 165.668ZM99.8136 171.23C99.8136 179.708 106.564 185.648 114.934 185.648C123.304 185.648 130.108 179.708 130.108 171.23C130.108 162.806 123.304 156.812 114.934 156.812C106.564 156.812 99.8136 162.806 99.8136 171.23ZM106.78 171.23C106.78 166.154 110.452 162.644 114.934 162.644C119.416 162.644 123.142 166.154 123.142 171.23C123.142 176.36 119.416 179.816 114.934 179.816C110.452 179.816 106.78 176.36 106.78 171.23ZM135.673 182.732C135.673 184.244 136.429 185 137.887 185H140.263C141.721 185 142.477 184.244 142.477 182.732V172.094C142.477 167.126 145.555 163.076 150.415 163.076C153.871 163.076 154.735 165.344 154.735 168.692V182.732C154.735 184.244 155.545 185 157.003 185H159.325C160.837 185 161.593 184.244 161.593 182.732V167.288C161.593 159.998 158.083 156.812 151.981 156.812C146.419 156.812 143.395 160.322 142.207 162.644H142.099C142.099 162.644 142.207 161.996 142.207 161.402V159.728C142.207 158.27 141.451 157.46 139.993 157.46H137.887C136.429 157.46 135.673 158.27 135.673 159.728V182.732ZM169.788 175.172C169.788 182.624 175.62 185.27 180.534 185.27C182.424 185.27 183.342 184.622 183.342 183.002V181.328C183.342 179.816 182.748 179.276 181.074 179.114C179.184 178.898 176.646 178.088 176.646 173.984V163.292H180.696C182.1 163.292 182.91 162.536 182.91 161.024V160.106C182.91 158.648 182.1 157.838 180.642 157.838H176.646V152.222C176.646 150.764 175.836 149.954 174.378 149.954H172.218C170.76 149.954 169.95 150.764 169.95 152.222V157.838H168.384C166.872 157.838 166.116 158.648 166.116 160.106V161.024C166.116 162.536 166.872 163.292 168.33 163.292H169.788V175.172ZM186.38 177.386C186.38 182.408 190.484 185.648 195.506 185.648C201.554 185.648 204.146 180.464 204.146 180.464H204.254C204.254 180.464 204.146 180.896 204.146 181.652V182.732C204.146 184.244 204.902 185 206.36 185H208.196C209.708 185 210.464 184.244 210.464 182.732V167.774C210.464 160.808 206.198 156.812 199.07 156.812C194.966 156.812 191.834 158.162 190.052 159.08C188.756 159.782 188.54 160.862 189.188 162.104L189.728 163.13C190.376 164.426 191.402 164.642 192.752 164.048C194.048 163.346 196.154 162.482 198.476 162.482C201.284 162.482 203.606 163.724 203.606 167.342V167.99H202.472C196.316 167.99 186.38 169.34 186.38 177.386ZM193.184 176.792C193.184 172.688 199.07 172.148 202.526 172.148H203.66V173.174C203.66 176.522 201.176 180.41 197.342 180.41C194.588 180.41 193.184 178.628 193.184 176.792ZM215.669 171.23C215.669 179.222 221.501 185.648 230.627 185.648C235.379 185.648 238.727 183.704 240.401 182.462C241.481 181.706 241.643 180.626 240.995 179.438L240.455 178.412C239.753 177.116 238.727 176.954 237.377 177.71C236.081 178.628 233.921 179.816 231.221 179.816C225.929 179.816 222.635 175.82 222.635 171.176C222.635 166.478 225.929 162.644 231.005 162.644C233.381 162.644 235.217 163.562 236.351 164.318C237.647 164.966 238.565 164.966 239.375 163.724L240.077 162.644C240.833 161.456 240.779 160.322 239.645 159.566C238.025 158.432 235.055 156.812 230.627 156.812C221.501 156.812 215.669 163.4 215.669 171.23ZM248.084 175.172C248.084 182.624 253.916 185.27 258.83 185.27C260.72 185.27 261.638 184.622 261.638 183.002V181.328C261.638 179.816 261.044 179.276 259.37 179.114C257.48 178.898 254.942 178.088 254.942 173.984V163.292H258.992C260.396 163.292 261.206 162.536 261.206 161.024V160.106C261.206 158.648 260.396 157.838 258.938 157.838H254.942V152.222C254.942 150.764 254.132 149.954 252.674 149.954H250.514C249.056 149.954 248.246 150.764 248.246 152.222V157.838H246.68C245.168 157.838 244.412 158.648 244.412 160.106V161.024C244.412 162.536 245.168 163.292 246.626 163.292H248.084V175.172Z" fill="white"/>
<line x1="62" y1="277" x2="154" y2="277" stroke="#7B64FF" stroke-width="4" stroke-linecap="round"/>
<path d="M60.432 312.088C60.24 312.64 60.48 313 61.08 313H61.896C62.328 313 62.64 312.784 62.76 312.352L64.248 308.128H70.632L72.144 312.352C72.288 312.784 72.576 313 73.032 313H73.848C74.424 313 74.688 312.64 74.496 312.088L68.928 296.704C68.784 296.248 68.472 296.056 68.04 296.056H66.888C66.432 296.056 66.144 296.248 66 296.704L60.432 312.088ZM64.872 306.16L66.768 300.784C67.056 299.92 67.44 298.384 67.44 298.384H67.488C67.488 298.384 67.848 299.92 68.136 300.784L70.008 306.16H64.872ZM76.5863 312.208C76.5863 312.736 76.8743 313 77.3783 313H78.1223C78.6503 313 78.9143 312.736 78.9143 312.208V307.192C78.9143 304.672 80.6183 302.704 82.9703 302.704C84.9143 302.704 85.2503 304.048 85.2503 305.752V312.208C85.2503 312.736 85.5383 313 86.0423 313H86.7863C87.3143 313 87.5782 312.736 87.5782 312.208V305.224C87.5782 302.128 86.2823 300.568 83.4263 300.568C80.7623 300.568 79.2983 302.368 78.8183 303.424H78.7703C78.7703 303.424 78.8423 303.088 78.8423 302.728V301.648C78.8423 301.12 78.5783 300.856 78.0503 300.856H77.3783C76.8743 300.856 76.5863 301.12 76.5863 301.648V312.208ZM89.4962 316.216L89.3042 316.624C89.1122 317.032 89.2082 317.464 89.6642 317.656C90.0722 317.824 90.6482 318.04 91.3442 318.04C93.0482 318.04 94.5602 317.032 95.2802 315.136L100.632 301.768C100.848 301.216 100.584 300.856 100.008 300.856H99.1442C98.6642 300.856 98.4002 301.048 98.2562 301.504L95.4962 308.824C95.2802 309.448 95.0882 310.264 95.0882 310.264H95.0402C95.0402 310.264 94.8242 309.4 94.6082 308.8L91.7522 301.48C91.6082 301.048 91.3202 300.856 90.8642 300.856H89.9282C89.3522 300.856 89.0882 301.216 89.3282 301.768L94.0322 312.856L93.4322 314.248C93.0482 315.208 92.3282 316.072 91.3442 316.072C90.9362 316.072 90.6242 315.904 90.3842 315.808C90.0482 315.712 89.6882 315.784 89.4962 316.216ZM107.975 306.928C107.975 310.696 110.087 313.288 113.279 313.288C116.279 313.288 117.239 311.032 117.239 311.032H117.287C117.287 311.032 117.215 311.464 117.215 312.088V317.008C117.215 317.536 117.479 317.8 118.007 317.8H118.751C119.279 317.8 119.543 317.536 119.543 317.008V301.648C119.543 301.12 119.279 300.856 118.751 300.856H118.175C117.647 300.856 117.383 301.12 117.383 301.528V302.152C117.383 302.536 117.431 302.824 117.431 302.824H117.383C117.383 302.824 116.375 300.568 113.495 300.568C110.279 300.568 107.975 303.064 107.975 306.928ZM110.351 306.928C110.351 304.168 111.935 302.608 113.831 302.608C116.159 302.608 117.287 304.744 117.287 306.904C117.287 310 115.583 311.272 113.783 311.272C111.767 311.272 110.351 309.568 110.351 306.928ZM122.778 308.632C122.778 311.848 124.17 313.288 126.906 313.288C129.282 313.288 130.89 311.632 131.418 310.432H131.466C131.466 310.432 131.394 310.768 131.394 311.128V312.208C131.394 312.736 131.658 313 132.186 313H132.858C133.362 313 133.65 312.736 133.65 312.208V301.648C133.65 301.12 133.362 300.856 132.858 300.856H132.114C131.586 300.856 131.322 301.12 131.322 301.648V306.544C131.322 308.944 129.858 311.128 127.362 311.128C125.442 311.128 125.082 309.784 125.082 308.104V301.648C125.082 301.12 124.818 300.856 124.314 300.856H123.57C123.042 300.856 122.778 301.12 122.778 301.648V308.632ZM136.24 306.928C136.24 310.528 138.856 313.288 142.672 313.288C144.616 313.288 146.056 312.496 146.776 311.992C147.184 311.752 147.256 311.344 147.016 310.936L146.8 310.576C146.536 310.12 146.176 310.072 145.72 310.312C145.168 310.72 144.136 311.272 142.816 311.272C140.656 311.272 138.76 309.808 138.616 307.168H146.728C147.208 307.168 147.544 306.784 147.544 306.352C147.544 302.968 145.672 300.568 142.312 300.568C138.856 300.568 136.24 303.064 136.24 306.928ZM138.712 305.632C139.048 303.592 140.488 302.392 142.264 302.392C143.872 302.392 145.144 303.496 145.216 305.632H138.712ZM149.606 311.968C150.278 312.472 151.67 313.288 153.686 313.288C156.302 313.288 158.054 311.776 158.054 309.712C158.054 305.584 151.79 306.448 151.79 304.024C151.79 302.992 152.678 302.488 153.83 302.488C154.982 302.488 155.798 302.896 156.302 303.184C156.758 303.4 157.118 303.352 157.358 302.92L157.574 302.56C157.814 302.128 157.742 301.72 157.31 301.504C156.734 301.144 155.63 300.568 153.95 300.568C151.574 300.568 149.558 301.768 149.558 304.072C149.558 308.176 155.822 307.384 155.822 309.76C155.822 310.792 154.958 311.368 153.758 311.368C152.342 311.368 151.334 310.744 150.782 310.384C150.302 310.12 149.99 310.144 149.678 310.552L149.438 310.888C149.174 311.296 149.198 311.704 149.606 311.968ZM161.209 308.632C161.209 311.704 163.321 313.096 165.721 313.096C166.369 313.096 166.681 312.856 166.681 312.304V311.8C166.681 311.248 166.465 311.056 165.841 311.008C164.953 310.936 163.537 310.576 163.537 308.272V302.872H165.673C166.177 302.872 166.441 302.584 166.441 302.08V301.768C166.441 301.264 166.177 300.976 165.649 300.976H163.537V298.312C163.537 297.784 163.273 297.52 162.745 297.52H162.049C161.545 297.52 161.257 297.784 161.257 298.312V300.976H160.393C159.865 300.976 159.601 301.264 159.601 301.768V302.08C159.601 302.584 159.865 302.872 160.369 302.872H161.209V308.632ZM169.604 298.432H170.42C170.924 298.432 171.212 298.144 171.212 297.64V296.848C171.212 296.32 170.924 296.056 170.42 296.056H169.604C169.076 296.056 168.812 296.32 168.812 296.848V297.64C168.812 298.144 169.076 298.432 169.604 298.432ZM168.836 312.208C168.836 312.736 169.124 313 169.628 313H170.372C170.9 313 171.164 312.736 171.164 312.208V301.648C171.164 301.12 170.9 300.856 170.372 300.856H169.628C169.124 300.856 168.836 301.12 168.836 301.648V312.208ZM173.74 306.904C173.74 310.6 176.644 313.288 180.268 313.288C183.892 313.288 186.82 310.6 186.82 306.904C186.82 303.232 183.892 300.568 180.268 300.568C176.644 300.568 173.74 303.232 173.74 306.904ZM176.092 306.904C176.092 304.384 177.988 302.584 180.268 302.584C182.572 302.584 184.444 304.384 184.444 306.904C184.444 309.448 182.572 311.272 180.268 311.272C177.988 311.272 176.092 309.448 176.092 306.904ZM189.391 312.208C189.391 312.736 189.679 313 190.183 313H190.927C191.455 313 191.719 312.736 191.719 312.208V307.192C191.719 304.672 193.423 302.704 195.775 302.704C197.719 302.704 198.055 304.048 198.055 305.752V312.208C198.055 312.736 198.343 313 198.847 313H199.591C200.119 313 200.383 312.736 200.383 312.208V305.224C200.383 302.128 199.087 300.568 196.231 300.568C193.567 300.568 192.103 302.368 191.623 303.424H191.575C191.575 303.424 191.647 303.088 191.647 302.728V301.648C191.647 301.12 191.383 300.856 190.855 300.856H190.183C189.679 300.856 189.391 301.12 189.391 301.648V312.208ZM203.091 311.968C203.763 312.472 205.155 313.288 207.171 313.288C209.787 313.288 211.539 311.776 211.539 309.712C211.539 305.584 205.275 306.448 205.275 304.024C205.275 302.992 206.163 302.488 207.315 302.488C208.467 302.488 209.283 302.896 209.787 303.184C210.243 303.4 210.603 303.352 210.843 302.92L211.059 302.56C211.299 302.128 211.227 301.72 210.795 301.504C210.219 301.144 209.115 300.568 207.435 300.568C205.059 300.568 203.043 301.768 203.043 304.072C203.043 308.176 209.307 307.384 209.307 309.76C209.307 310.792 208.443 311.368 207.243 311.368C205.827 311.368 204.819 310.744 204.267 310.384C203.787 310.12 203.475 310.144 203.163 310.552L202.923 310.888C202.659 311.296 202.683 311.704 203.091 311.968ZM219.326 306.904C219.326 310.6 222.23 313.288 225.854 313.288C229.478 313.288 232.406 310.6 232.406 306.904C232.406 303.232 229.478 300.568 225.854 300.568C222.23 300.568 219.326 303.232 219.326 306.904ZM221.678 306.904C221.678 304.384 223.574 302.584 225.854 302.584C228.158 302.584 230.03 304.384 230.03 306.904C230.03 309.448 228.158 311.272 225.854 311.272C223.574 311.272 221.678 309.448 221.678 306.904ZM234.977 312.208C234.977 312.736 235.265 313 235.769 313H236.513C237.041 313 237.305 312.736 237.305 312.208V307.984C237.305 305.584 238.457 303.016 240.833 303.016C241.385 303.016 241.697 302.752 241.697 302.224V301.552C241.697 301.024 241.481 300.76 240.929 300.76C239.105 300.76 237.737 302.344 237.209 303.952H237.161C237.161 303.952 237.233 303.544 237.233 303.04V301.648C237.233 301.12 236.969 300.856 236.441 300.856H235.769C235.265 300.856 234.977 301.12 234.977 301.648V312.208ZM61.68 348.208C61.68 348.736 61.968 349 62.472 349H63.216C63.744 349 64.008 348.736 64.008 348.208V343.984C64.008 341.584 65.16 339.016 67.536 339.016C68.088 339.016 68.4 338.752 68.4 338.224V337.552C68.4 337.024 68.184 336.76 67.632 336.76C65.808 336.76 64.44 338.344 63.912 339.952H63.864C63.864 339.952 63.936 339.544 63.936 339.04V337.648C63.936 337.12 63.672 336.856 63.144 336.856H62.472C61.968 336.856 61.68 337.12 61.68 337.648V348.208ZM69.0917 342.928C69.0917 346.528 71.7077 349.288 75.5237 349.288C77.4677 349.288 78.9077 348.496 79.6277 347.992C80.0357 347.752 80.1077 347.344 79.8677 346.936L79.6517 346.576C79.3877 346.12 79.0277 346.072 78.5717 346.312C78.0197 346.72 76.9877 347.272 75.6677 347.272C73.5077 347.272 71.6117 345.808 71.4677 343.168H79.5797C80.0597 343.168 80.3957 342.784 80.3957 342.352C80.3957 338.968 78.5237 336.568 75.1637 336.568C71.7077 336.568 69.0917 339.064 69.0917 342.928ZM71.5637 341.632C71.8997 339.592 73.3397 338.392 75.1157 338.392C76.7237 338.392 77.9957 339.496 78.0677 341.632H71.5637ZM82.9378 348.208C82.9378 348.736 83.2258 349 83.7298 349H84.4738C85.0018 349 85.2658 348.736 85.2658 348.208V343.336C85.2658 341.08 86.6098 338.68 88.9138 338.68C90.7858 338.68 91.0258 340.144 91.0258 341.728V348.208C91.0258 348.736 91.2898 349 91.7938 349H92.5618C93.0658 349 93.3298 348.736 93.3298 348.208V343.336C93.3298 341.008 94.6738 338.68 96.9298 338.68C98.7298 338.68 99.0658 340.024 99.0658 341.728V348.208C99.0658 348.736 99.3538 349 99.8578 349H100.602C101.13 349 101.394 348.736 101.394 348.208V341.224C101.394 338.128 100.146 336.568 97.3858 336.568C95.4178 336.568 93.7378 337.912 93.0898 339.328H93.0418C92.6098 337.504 91.4338 336.568 89.3938 336.568C87.4738 336.568 85.7698 338.008 85.1698 339.424H85.1218C85.1218 339.424 85.1938 339.088 85.1938 338.728V337.648C85.1938 337.12 84.9298 336.856 84.4018 336.856H83.7298C83.2258 336.856 82.9378 337.12 82.9378 337.648V348.208ZM103.61 345.688C103.61 347.968 105.554 349.288 107.69 349.288C110.522 349.288 111.65 346.744 111.65 346.744H111.698C111.698 346.744 111.626 347.032 111.626 347.488V348.208C111.626 348.736 111.914 349 112.418 349H113.018C113.522 349 113.81 348.736 113.81 348.208V341.32C113.81 338.248 112.058 336.568 109.034 336.568C107.186 336.568 105.818 337.192 105.098 337.6C104.666 337.84 104.594 338.224 104.834 338.68L105.026 339.016C105.29 339.448 105.65 339.52 106.106 339.304C106.658 338.992 107.642 338.536 108.842 338.536C110.33 338.536 111.482 339.208 111.482 341.2V341.512H110.858C108.338 341.512 103.61 341.92 103.61 345.688ZM105.962 345.496C105.962 343.192 109.178 343.048 110.882 343.048H111.506V343.576C111.506 345.376 110.258 347.44 108.218 347.44C106.73 347.44 105.962 346.456 105.962 345.496ZM116.993 348.208C116.993 348.736 117.281 349 117.785 349H118.529C119.057 349 119.321 348.736 119.321 348.208V343.984C119.321 341.584 120.473 339.016 122.849 339.016C123.401 339.016 123.713 338.752 123.713 338.224V337.552C123.713 337.024 123.497 336.76 122.945 336.76C121.121 336.76 119.753 338.344 119.225 339.952H119.177C119.177 339.952 119.249 339.544 119.249 339.04V337.648C119.249 337.12 118.985 336.856 118.457 336.856H117.785C117.281 336.856 116.993 337.12 116.993 337.648V348.208ZM125.571 348.208C125.571 348.736 125.835 349 126.363 349H127.107C127.611 349 127.875 348.736 127.875 348.208V343.312H129.675L132.987 348.448C133.203 348.832 133.491 349 133.923 349H134.883C135.531 349 135.747 348.592 135.411 348.04L131.523 342.256V342.208L134.883 337.816C135.267 337.288 135.051 336.856 134.403 336.856H133.515C133.083 336.856 132.795 337 132.579 337.36L129.627 341.296H127.875V332.848C127.875 332.32 127.611 332.056 127.107 332.056H126.363C125.835 332.056 125.571 332.32 125.571 332.848V348.208ZM137.278 347.968C137.95 348.472 139.342 349.288 141.358 349.288C143.974 349.288 145.726 347.776 145.726 345.712C145.726 341.584 139.462 342.448 139.462 340.024C139.462 338.992 140.35 338.488 141.502 338.488C142.654 338.488 143.47 338.896 143.974 339.184C144.43 339.4 144.79 339.352 145.03 338.92L145.246 338.56C145.486 338.128 145.414 337.72 144.982 337.504C144.406 337.144 143.302 336.568 141.622 336.568C139.246 336.568 137.23 337.768 137.23 340.072C137.23 344.176 143.494 343.384 143.494 345.76C143.494 346.792 142.63 347.368 141.43 347.368C140.014 347.368 139.006 346.744 138.454 346.384C137.974 346.12 137.662 346.144 137.35 346.552L137.11 346.888C136.846 347.296 136.87 347.704 137.278 347.968ZM150.307 344.344H151.003C151.483 344.344 151.699 344.152 151.771 343.744L151.795 343.24C151.987 340.456 156.019 339.952 156.019 336.112C156.019 333.448 153.739 331.72 151.003 331.72C149.371 331.72 148.123 332.344 147.451 332.776C147.019 333.064 147.019 333.424 147.307 333.856L147.619 334.288C147.883 334.696 148.315 334.72 148.747 334.504C149.203 334.24 149.947 333.904 150.835 333.904C152.443 333.904 153.595 334.936 153.595 336.28C153.595 339.088 149.515 339.712 149.515 343.072V343.552C149.515 344.056 149.803 344.344 150.307 344.344ZM149.443 348.208C149.443 348.736 149.731 349 150.235 349H151.075C151.579 349 151.867 348.736 151.867 348.208V347.44C151.867 346.912 151.579 346.648 151.075 346.648H150.235C149.731 346.648 149.443 346.912 149.443 347.44V348.208ZM163.676 344.08C163.676 347.752 166.22 349.288 168.716 349.288C171.164 349.288 173.708 347.8 173.708 344.128V332.848C173.708 332.32 173.444 332.056 172.916 332.056H167.876C167.372 332.056 167.108 332.32 167.108 332.848V333.328C167.108 333.832 167.372 334.12 167.876 334.12H171.356V344.104C171.356 346.312 170.06 347.104 168.692 347.104C166.892 347.104 166.148 345.784 166.052 344.104C165.98 343.504 165.812 343.288 165.284 343.288H164.468C163.964 343.288 163.676 343.552 163.676 344.08ZM176.989 344.632C176.989 347.848 178.381 349.288 181.117 349.288C183.493 349.288 185.101 347.632 185.629 346.432H185.677C185.677 346.432 185.605 346.768 185.605 347.128V348.208C185.605 348.736 185.869 349 186.397 349H187.069C187.573 349 187.861 348.736 187.861 348.208V337.648C187.861 337.12 187.573 336.856 187.069 336.856H186.325C185.797 336.856 185.533 337.12 185.533 337.648V342.544C185.533 344.944 184.069 347.128 181.573 347.128C179.653 347.128 179.293 345.784 179.293 344.104V337.648C179.293 337.12 179.029 336.856 178.525 336.856H177.781C177.253 336.856 176.989 337.12 176.989 337.648V344.632ZM190.739 347.968C191.411 348.472 192.803 349.288 194.819 349.288C197.435 349.288 199.187 347.776 199.187 345.712C199.187 341.584 192.923 342.448 192.923 340.024C192.923 338.992 193.811 338.488 194.963 338.488C196.115 338.488 196.931 338.896 197.435 339.184C197.891 339.4 198.251 339.352 198.491 338.92L198.707 338.56C198.947 338.128 198.875 337.72 198.443 337.504C197.867 337.144 196.763 336.568 195.083 336.568C192.707 336.568 190.691 337.768 190.691 340.072C190.691 344.176 196.955 343.384 196.955 345.76C196.955 346.792 196.091 347.368 194.891 347.368C193.475 347.368 192.467 346.744 191.915 346.384C191.435 346.12 191.123 346.144 190.811 346.552L190.571 346.888C190.307 347.296 190.331 347.704 190.739 347.968ZM202.342 344.632C202.342 347.704 204.454 349.096 206.854 349.096C207.502 349.096 207.814 348.856 207.814 348.304V347.8C207.814 347.248 207.598 347.056 206.974 347.008C206.086 346.936 204.67 346.576 204.67 344.272V338.872H206.806C207.31 338.872 207.574 338.584 207.574 338.08V337.768C207.574 337.264 207.31 336.976 206.782 336.976H204.67V334.312C204.67 333.784 204.406 333.52 203.878 333.52H203.182C202.678 333.52 202.39 333.784 202.39 334.312V336.976H201.526C200.998 336.976 200.734 337.264 200.734 337.768V338.08C200.734 338.584 200.998 338.872 201.502 338.872H202.342V344.632ZM218.273 348.328C218.393 348.784 218.705 349 219.161 349H220.361C220.817 349 221.129 348.784 221.249 348.328L223.553 341.2C223.769 340.576 223.913 339.88 223.913 339.88H223.961C223.961 339.88 224.081 340.576 224.297 341.2L226.625 348.328C226.745 348.784 227.033 349 227.513 349H228.689C229.145 349 229.457 348.784 229.577 348.328L233.009 337.744C233.177 337.192 232.913 336.856 232.337 336.856H231.545C231.065 336.856 230.777 337.072 230.681 337.528L228.305 345.376C228.113 346 227.993 346.672 227.993 346.672H227.945C227.945 346.672 227.801 346 227.633 345.376L225.185 337.552C225.065 337.096 224.777 336.88 224.297 336.88H223.553C223.097 336.88 222.785 337.096 222.689 337.552L220.241 345.376C220.049 346 219.905 346.672 219.905 346.672H219.857C219.857 346.672 219.737 346 219.569 345.376L217.193 337.528C217.073 337.072 216.785 336.856 216.305 336.856H215.513C214.937 336.856 214.673 337.192 214.841 337.744L218.273 348.328ZM235.235 348.208C235.235 348.736 235.523 349 236.027 349H236.771C237.299 349 237.563 348.736 237.563 348.208V343.984C237.563 341.584 238.715 339.016 241.091 339.016C241.643 339.016 241.955 338.752 241.955 338.224V337.552C241.955 337.024 241.739 336.76 241.187 336.76C239.363 336.76 237.995 338.344 237.467 339.952H237.419C237.419 339.952 237.491 339.544 237.491 339.04V337.648C237.491 337.12 237.227 336.856 236.699 336.856H236.027C235.523 336.856 235.235 337.12 235.235 337.648V348.208ZM244.557 334.432H245.373C245.877 334.432 246.165 334.144 246.165 333.64V332.848C246.165 332.32 245.877 332.056 245.373 332.056H244.557C244.029 332.056 243.765 332.32 243.765 332.848V333.64C243.765 334.144 244.029 334.432 244.557 334.432ZM243.789 348.208C243.789 348.736 244.077 349 244.581 349H245.325C245.853 349 246.117 348.736 246.117 348.208V337.648C246.117 337.12 245.853 336.856 245.325 336.856H244.581C244.077 336.856 243.789 337.12 243.789 337.648V348.208ZM250.061 344.632C250.061 347.704 252.173 349.096 254.573 349.096C255.221 349.096 255.533 348.856 255.533 348.304V347.8C255.533 347.248 255.317 347.056 254.693 347.008C253.805 346.936 252.389 346.576 252.389 344.272V338.872H254.525C255.029 338.872 255.293 338.584 255.293 338.08V337.768C255.293 337.264 255.029 336.976 254.501 336.976H252.389V334.312C252.389 333.784 252.125 333.52 251.597 333.52H250.901C250.397 333.52 250.109 333.784 250.109 334.312V336.976H249.245C248.717 336.976 248.453 337.264 248.453 337.768V338.08C248.453 338.584 248.717 338.872 249.221 338.872H250.061V344.632ZM256.826 342.928C256.826 346.528 259.442 349.288 263.258 349.288C265.202 349.288 266.642 348.496 267.362 347.992C267.77 347.752 267.842 347.344 267.602 346.936L267.386 346.576C267.122 346.12 266.762 346.072 266.306 346.312C265.754 346.72 264.722 347.272 263.402 347.272C261.242 347.272 259.346 345.808 259.202 343.168H267.314C267.794 343.168 268.13 342.784 268.13 342.352C268.13 338.968 266.258 336.568 262.898 336.568C259.442 336.568 256.826 339.064 256.826 342.928ZM259.298 341.632C259.634 339.592 261.074 338.392 262.85 338.392C264.458 338.392 265.73 339.496 265.802 341.632H259.298ZM276.528 344.632C276.528 347.848 277.92 349.288 280.656 349.288C283.032 349.288 284.64 347.632 285.168 346.432H285.216C285.216 346.432 285.144 346.768 285.144 347.128V348.208C285.144 348.736 285.408 349 285.936 349H286.608C287.112 349 287.4 348.736 287.4 348.208V337.648C287.4 337.12 287.112 336.856 286.608 336.856H285.864C285.336 336.856 285.072 337.12 285.072 337.648V342.544C285.072 344.944 283.608 347.128 281.112 347.128C279.192 347.128 278.832 345.784 278.832 344.104V337.648C278.832 337.12 278.568 336.856 278.064 336.856H277.32C276.792 336.856 276.528 337.12 276.528 337.648V344.632ZM290.278 347.968C290.95 348.472 292.342 349.288 294.358 349.288C296.974 349.288 298.726 347.776 298.726 345.712C298.726 341.584 292.462 342.448 292.462 340.024C292.462 338.992 293.35 338.488 294.502 338.488C295.654 338.488 296.47 338.896 296.974 339.184C297.43 339.4 297.79 339.352 298.03 338.92L298.246 338.56C298.486 338.128 298.414 337.72 297.982 337.504C297.406 337.144 296.302 336.568 294.622 336.568C292.246 336.568 290.23 337.768 290.23 340.072C290.23 344.176 296.494 343.384 296.494 345.76C296.494 346.792 295.63 347.368 294.43 347.368C293.014 347.368 292.006 346.744 291.454 346.384C290.974 346.12 290.662 346.144 290.35 346.552L290.11 346.888C289.846 347.296 289.87 347.704 290.278 347.968ZM306.321 345.688C306.321 347.968 308.265 349.288 310.401 349.288C313.233 349.288 314.361 346.744 314.361 346.744H314.409C314.409 346.744 314.337 347.032 314.337 347.488V348.208C314.337 348.736 314.625 349 315.129 349H315.729C316.233 349 316.521 348.736 316.521 348.208V341.32C316.521 338.248 314.769 336.568 311.745 336.568C309.897 336.568 308.529 337.192 307.809 337.6C307.377 337.84 307.305 338.224 307.545 338.68L307.737 339.016C308.001 339.448 308.361 339.52 308.817 339.304C309.369 338.992 310.353 338.536 311.553 338.536C313.041 338.536 314.193 339.208 314.193 341.2V341.512H313.569C311.049 341.512 306.321 341.92 306.321 345.688ZM308.673 345.496C308.673 343.192 311.889 343.048 313.593 343.048H314.217V343.576C314.217 345.376 312.969 347.44 310.929 347.44C309.441 347.44 308.673 346.456 308.673 345.496ZM61.68 384.208C61.68 384.736 61.968 385 62.472 385H63.216C63.744 385 64.008 384.736 64.008 384.208V379.336C64.008 377.08 65.352 374.68 67.656 374.68C69.528 374.68 69.768 376.144 69.768 377.728V384.208C69.768 384.736 70.032 385 70.536 385H71.304C71.808 385 72.072 384.736 72.072 384.208V379.336C72.072 377.008 73.416 374.68 75.672 374.68C77.472 374.68 77.808 376.024 77.808 377.728V384.208C77.808 384.736 78.096 385 78.6 385H79.344C79.872 385 80.136 384.736 80.136 384.208V377.224C80.136 374.128 78.888 372.568 76.128 372.568C74.16 372.568 72.48 373.912 71.832 375.328H71.784C71.352 373.504 70.176 372.568 68.136 372.568C66.216 372.568 64.512 374.008 63.912 375.424H63.864C63.864 375.424 63.936 375.088 63.936 374.728V373.648C63.936 373.12 63.672 372.856 63.144 372.856H62.472C61.968 372.856 61.68 373.12 61.68 373.648V384.208ZM82.5683 378.928C82.5683 382.528 85.1842 385.288 89.0003 385.288C90.9443 385.288 92.3843 384.496 93.1043 383.992C93.5123 383.752 93.5843 383.344 93.3443 382.936L93.1283 382.576C92.8643 382.12 92.5043 382.072 92.0483 382.312C91.4963 382.72 90.4643 383.272 89.1443 383.272C86.9843 383.272 85.0883 381.808 84.9443 379.168H93.0563C93.5363 379.168 93.8723 378.784 93.8723 378.352C93.8723 374.968 92.0003 372.568 88.6403 372.568C85.1842 372.568 82.5683 375.064 82.5683 378.928ZM85.0403 377.632C85.3763 375.592 86.8163 374.392 88.5923 374.392C90.2003 374.392 91.4723 375.496 91.5443 377.632H85.0403ZM95.9344 383.968C96.6064 384.472 97.9984 385.288 100.014 385.288C102.63 385.288 104.382 383.776 104.382 381.712C104.382 377.584 98.1184 378.448 98.1184 376.024C98.1184 374.992 99.0064 374.488 100.158 374.488C101.31 374.488 102.126 374.896 102.63 375.184C103.086 375.4 103.446 375.352 103.686 374.92L103.902 374.56C104.142 374.128 104.07 373.72 103.638 373.504C103.062 373.144 101.958 372.568 100.278 372.568C97.9024 372.568 95.8864 373.768 95.8864 376.072C95.8864 380.176 102.15 379.384 102.15 381.76C102.15 382.792 101.286 383.368 100.086 383.368C98.6704 383.368 97.6624 382.744 97.1104 382.384C96.6304 382.12 96.3184 382.144 96.0064 382.552L95.7664 382.888C95.5024 383.296 95.5264 383.704 95.9344 383.968ZM106.481 383.968C107.153 384.472 108.545 385.288 110.561 385.288C113.177 385.288 114.929 383.776 114.929 381.712C114.929 377.584 108.665 378.448 108.665 376.024C108.665 374.992 109.553 374.488 110.705 374.488C111.857 374.488 112.673 374.896 113.177 375.184C113.633 375.4 113.993 375.352 114.233 374.92L114.449 374.56C114.689 374.128 114.617 373.72 114.185 373.504C113.609 373.144 112.505 372.568 110.825 372.568C108.449 372.568 106.433 373.768 106.433 376.072C106.433 380.176 112.697 379.384 112.697 381.76C112.697 382.792 111.833 383.368 110.633 383.368C109.217 383.368 108.209 382.744 107.657 382.384C107.177 382.12 106.865 382.144 106.553 382.552L106.313 382.888C106.049 383.296 106.073 383.704 106.481 383.968ZM116.524 381.688C116.524 383.968 118.468 385.288 120.604 385.288C123.436 385.288 124.564 382.744 124.564 382.744H124.612C124.612 382.744 124.54 383.032 124.54 383.488V384.208C124.54 384.736 124.828 385 125.332 385H125.932C126.436 385 126.724 384.736 126.724 384.208V377.32C126.724 374.248 124.972 372.568 121.948 372.568C120.1 372.568 118.732 373.192 118.012 373.6C117.58 373.84 117.508 374.224 117.748 374.68L117.94 375.016C118.204 375.448 118.564 375.52 119.02 375.304C119.572 374.992 120.556 374.536 121.756 374.536C123.244 374.536 124.396 375.208 124.396 377.2V377.512H123.772C121.252 377.512 116.524 377.92 116.524 381.688ZM118.876 381.496C118.876 379.192 122.092 379.048 123.796 379.048H124.42V379.576C124.42 381.376 123.172 383.44 121.132 383.44C119.644 383.44 118.876 382.456 118.876 381.496ZM130.771 387.904L130.603 388.312C130.387 388.816 130.507 389.152 131.011 389.368C131.947 389.776 133.219 390.04 134.539 390.04C137.491 390.04 140.563 388.504 140.563 384.496V373.648C140.563 373.12 140.299 372.856 139.771 372.856H139.195C138.667 372.856 138.403 373.12 138.403 373.528V374.224C138.403 374.464 138.451 374.608 138.451 374.608H138.403C138.403 374.608 137.611 372.568 134.611 372.568C131.107 372.568 129.187 375.16 129.187 378.616C129.187 382.168 131.251 384.856 134.659 384.856C136.411 384.856 137.563 384.064 138.259 382.792H138.307C138.307 382.792 138.235 383.176 138.235 383.56V384.616C138.235 387.088 136.483 388.024 134.419 388.024C133.195 388.024 132.355 387.712 131.779 387.496C131.275 387.304 130.987 387.424 130.771 387.904ZM135.067 382.84C132.883 382.84 131.563 381.136 131.563 378.52C131.563 376.12 132.739 374.584 134.923 374.584C136.723 374.584 138.283 375.496 138.283 378.688C138.283 381.832 136.747 382.84 135.067 382.84ZM143.178 378.928C143.178 382.528 145.794 385.288 149.61 385.288C151.554 385.288 152.994 384.496 153.714 383.992C154.122 383.752 154.194 383.344 153.954 382.936L153.738 382.576C153.474 382.12 153.114 382.072 152.658 382.312C152.106 382.72 151.074 383.272 149.754 383.272C147.594 383.272 145.698 381.808 145.554 379.168H153.666C154.146 379.168 154.482 378.784 154.482 378.352C154.482 374.968 152.61 372.568 149.25 372.568C145.794 372.568 143.178 375.064 143.178 378.928ZM145.65 377.632C145.986 375.592 147.426 374.392 149.202 374.392C150.81 374.392 152.082 375.496 152.154 377.632H145.65Z" fill="white"/>
<path d="M70.6667 492C66.9907 492 64 494.991 64 498.667V509.333C64 513.009 66.9907 516 70.6667 516H81.3333C85.0093 516 88 513.009 88 509.333V498.667C88 494.991 85.0093 492 81.3333 492H70.6667ZM70.6667 494.667H81.3333C83.5387 494.667 85.3333 496.461 85.3333 498.667V509.333C85.3333 511.539 83.5387 513.333 81.3333 513.333H70.6667C68.4613 513.333 66.6667 511.539 66.6667 509.333V498.667C66.6667 496.461 68.4613 494.667 70.6667 494.667ZM82.6667 496C82.313 496 81.9739 496.14 81.7239 496.391C81.4738 496.641 81.3333 496.98 81.3333 497.333C81.3333 497.687 81.4738 498.026 81.7239 498.276C81.9739 498.526 82.313 498.667 82.6667 498.667C83.0203 498.667 83.3594 498.526 83.6095 498.276C83.8595 498.026 84 497.687 84 497.333C84 496.98 83.8595 496.641 83.6095 496.391C83.3594 496.14 83.0203 496 82.6667 496ZM76 497.333C72.324 497.333 69.3333 500.324 69.3333 504C69.3333 507.676 72.324 510.667 76 510.667C79.676 510.667 82.6667 507.676 82.6667 504C82.6667 500.324 79.676 497.333 76 497.333ZM76 500C78.2053 500 80 501.795 80 504C80 506.205 78.2053 508 76 508C73.7947 508 72 506.205 72 504C72 501.795 73.7947 500 76 500Z" fill="white"/>
<path d="M144.776 496.249C144.469 495.102 143.565 494.198 142.419 493.891C140.339 493.334 132 493.334 132 493.334C132 493.334 123.661 493.334 121.581 493.891C120.435 494.198 119.531 495.102 119.224 496.249C118.667 498.329 118.667 504.001 118.667 504.001C118.667 504.001 118.667 509.673 119.224 511.753C119.531 512.899 120.435 513.803 121.581 514.11C123.661 514.667 132 514.667 132 514.667C132 514.667 140.339 514.667 142.419 514.11C143.567 513.803 144.469 512.899 144.776 511.753C145.333 509.673 145.333 504.001 145.333 504.001C145.333 504.001 145.333 498.329 144.776 496.249ZM129.333 508.619V499.382L137.333 504.001L129.333 508.619Z" fill="white"/>
<path d="M201.333 503.999C201.333 496.639 195.36 490.666 188 490.666C180.64 490.666 174.667 496.639 174.667 503.999C174.667 510.453 179.253 515.826 185.333 517.066V507.999H182.667V503.999H185.333V500.666C185.333 498.093 187.427 495.999 190 495.999H193.333V499.999H190.667C189.933 499.999 189.333 500.599 189.333 501.333V503.999H193.333V507.999H189.333V517.266C196.067 516.599 201.333 510.919 201.333 503.999Z" fill="white"/>
<path d="M257.333 493.332C256.293 493.949 254.207 494.791 252.98 495.033C252.944 495.043 252.915 495.055 252.88 495.064C251.796 493.995 250.311 493.332 248.667 493.332C245.353 493.332 242.667 496.019 242.667 499.332C242.667 499.507 242.652 499.828 242.667 499.999C238.196 499.999 234.793 497.657 232.353 494.665C232.088 495.332 231.972 496.385 231.972 497.375C231.972 499.243 233.432 501.077 235.705 502.215C235.287 502.323 234.825 502.4 234.345 502.4C233.571 502.4 232.751 502.196 232 501.577C232 501.6 232 501.621 232 501.645C232 504.256 234.771 506.033 237.235 506.528C236.735 506.823 235.727 506.852 235.235 506.852C234.888 506.852 233.661 506.693 233.333 506.632C234.019 508.772 236.491 509.975 238.847 510.017C237.004 511.463 235.725 511.999 231.952 511.999H230.667C233.051 513.527 236.087 514.667 239.129 514.667C249.036 514.667 254.667 507.116 254.667 499.999C254.667 499.884 254.664 499.644 254.66 499.403C254.66 499.379 254.667 499.356 254.667 499.332C254.667 499.296 254.656 499.261 254.656 499.225C254.652 499.044 254.648 498.875 254.644 498.787C255.697 498.027 256.611 497.079 257.333 495.999C256.367 496.428 255.329 496.716 254.24 496.847C255.352 496.18 256.932 494.591 257.333 493.332Z" fill="white"/>
</svg>
