<svg width="1920" height="367" viewBox="0 0 1920 367" fill="none" xmlns="http://www.w3.org/2000/svg">
<mask id="mask0_263_28" style="mask-type:alpha" maskUnits="userSpaceOnUse" x="0" y="0" width="1920" height="367">
<rect width="1920" height="367" fill="#D9D9D9"/>
</mask>
<g mask="url(#mask0_263_28)">
<path fill-rule="evenodd" clip-rule="evenodd" d="M-31.5702 112.791L-5.7858 110.664L20.2716 108.245L46.658 105.542L73.4267 102.568L100.629 99.3371L128.312 95.8653L156.521 92.1725L185.293 88.2801L214.665 84.2118L244.663 79.9936L275.312 75.6529L306.628 71.2182L338.625 66.7172L371.308 62.1767L404.682 57.6233L438.745 53.0825L473.491 48.5797L508.91 44.1393L544.987 39.7854L581.703 35.5412L619.038 31.4293L656.965 27.4718L695.454 23.6896L734.472 20.103L773.984 16.731L813.951 13.5916L854.334 10.7014L895.09 8.07599L936.175 5.72993L977.541 3.67728L1019.14 1.93162L1060.91 0.505781L1102.82 -0.587899L1144.78 -1.33806L1186.76 -1.73359L1228.68 -1.76473L1270.49 -1.42219L1312.12 -0.697814L1353.5 0.415718L1394.57 1.92474L1435.26 3.83461L1475.5 6.14983L1515.23 8.87356L1554.37 12.0082L1592.86 15.5549L1630.62 19.5136L1667.6 23.8831L1703.72 28.6613L1738.92 33.8444L1773.13 39.4276L1806.3 45.4053L1838.37 51.7701L1869.28 58.5136L1898.97 65.6263L1927.41 73.0977L1954.54 80.9162L1980.32 89.0692L2004.71 97.543L2027.69 106.323L2049.21 115.395L2069.25 124.742L2087.8 134.348L2104.83 144.196L2120.34 154.268L2134.31 164.546L2146.74 175.013L2157.63 185.65L2166.99 196.438L2174.83 207.358L2181.15 218.394L2185.98 229.525L2189.34 240.734L2191.24 252.002L2191.73 263.313L2190.82 274.649L2188.56 285.992L2184.99 297.327L2180.14 308.637L2174.06 319.908L2166.79 331.124L2158.38 342.272L2148.89 353.338L2138.37 364.309L2126.86 375.174L2114.44 385.922L2101.15 396.542L2087.05 407.026L2072.18 417.365L2056.62 427.551L2040.4 437.579L2023.59 447.442L2006.23 457.135L1988.4 466.653L1970.15 475.992L1951.55 485.15L1932.66 494.123L1913.56 502.909L1894.32 511.507L1875.02 519.918L1855.76 528.141L1836.62 536.178L1817.7 544.032L1799.09 551.707L1780.86 559.209L1763.11 566.544L1745.9 573.72L1729.3 580.746L1713.37 587.632L1698.16 594.388L1683.72 601.027L1670.08 607.558L1657.29 613.996L1645.34 620.352L1634.27 626.639L1624.07 632.869L1614.74 639.056L1606.26 645.211L1598.61 651.345L1591.75 657.47L1585.65 663.595L1580.25 669.731L1575.51 675.884L1571.35 682.063L1567.72 688.272L1564.53 694.517L1561.72 700.8L1559.19 707.123L1556.87 713.486L1554.67 719.889L1552.5 726.329L1550.27 732.802L1547.9 739.302L1545.31 745.823L1542.4 752.357L1539.1 758.895L1535.32 765.428L1531 771.944L1526.07 778.431L1520.46 784.877L1514.11 791.27L1506.98 797.595L1499.02 803.839L1490.18 809.988L1480.44 816.03L1469.79 821.95L1458.19 827.737L1445.65 833.377L1432.16 838.859L1417.74 844.174L1402.41 849.312L1386.18 854.265L1369.1 859.028L1351.2 863.596L1332.53 867.965L1313.15 872.134L1293.09 876.104L1272.44 879.877L1251.25 883.457L1229.58 886.849L1207.5 890.058L1185.07 893.09L1162.33 895.951L1139.35 898.648L1116.17 901.187L1092.83 903.577L1069.38 905.823L1045.86 907.934L1022.3 909.917L998.746 911.779L975.213 913.526L951.732 915.166L928.324 916.703L905.005 918.145L881.789 919.494L858.687 920.755L835.711 921.932L812.873 923.03L790.184 924.056L767.657 925.015L745.306 925.914L723.142 926.762L701.178 927.567L679.426 928.338L657.896 929.085L636.599 929.818L615.543 930.548L594.736 931.286L574.183 932.045L553.888 932.836L533.855 933.672L514.082 934.566L494.568 935.531L475.309 936.581L456.297 937.728L437.521 938.985L418.971 940.366L400.629 941.882L382.478 943.545L364.495 945.365L346.657 947.354L328.936 949.52L311.303 951.871L293.727 954.414L276.172 957.155L258.604 960.099L240.984 963.249L223.274 966.606L205.433 970.171L187.421 973.943L169.197 977.919L150.72 982.097L131.948 986.47L112.842 991.033L93.3619 995.778L73.4694 1000.7L53.1273 1005.78L32.3006 1011.01L10.956 1016.38L-10.9382 1021.88L-33.4104 1027.5L-56.4874 1033.21L-80.1932 1039.01L-104.548 1044.87L-129.571 1050.79L-155.275 1056.73L-181.672 1062.69L-208.771 1068.65L-236.577 1074.59L-265.09 1080.48L-294.309 1086.31L-324.227 1092.07L-354.837 1097.73L-386.122 1103.27L-418.06 1108.66L-450.626 1113.88L-483.783 1118.9L-517.493 1123.69L-551.706 1128.22L-586.367 1132.46L-621.417 1136.39L-656.785 1139.96L-692.397 1143.15L-728.172 1145.94L-764.021 1148.29L-799.85 1150.17L-835.558 1151.56L-871.038 1152.43L-906.177 1152.75L-940.861 1152.51L-974.972 1151.69L-1008.4 1150.27L-1041.02 1148.24L-1072.73 1145.59L-1103.43 1142.33L-1133 1138.46L-1161.35 1133.99L-1188.41 1128.91L-1214.07 1123.26L-1238.28 1117.05L-1260.98 1110.29L-1282.1 1103.03L-1301.61 1095.27L-1319.49 1087.07L-1335.71 1078.44L-1350.27 1069.42L-1363.18 1060.06L-1374.45 1050.38L-1384.12 1040.44L-1392.24 1030.27L-1398.85 1019.91L-1404.02 1009.4L-1407.83 998.787L-1410.37 988.11L-1411.73 977.407L-1412.02 966.716L-1411.35 956.073L-1409.83 945.514L-1407.6 935.072L-1404.78 924.776L-1401.51 914.655L-1397.91 904.734L-1394.13 895.036L-1390.31 885.58L-1386.56 876.383L-1383.04 867.458L-1379.86 858.815L-1377.14 850.462L-1375.01 842.403L-1373.58 834.638L-1372.93 827.166L-1373.18 819.982L-1374.39 813.077L-1376.64 806.443L-1379.99 800.066L-1384.49 793.931L-1390.17 788.024L-1397.06 782.324L-1405.17 776.813L-1414.5 771.471L-1425.04 766.274L-1436.76 761.202L-1449.62 756.231L-1463.59 751.339L-1478.59 746.503L-1494.57 741.701L-1511.45 736.912L-1529.16 732.117L-1547.65 727.298L-1566.84 722.439L-1586.66 717.524L-1607.06 712.539L-1627.96 707.472L-1649.31 702.311L-1671.03 697.044L-1693.08 691.664L-1715.4 686.162L-1737.94 680.53L-1760.65 674.762L-1783.48 668.853L-1806.41 662.798L-1829.39 656.594L-1852.42 650.236L-1875.44 643.722L-1898.44 637.049L-1921.38 630.214L-1944.22 623.214L-1966.92 616.049L-1989.45 608.717L-2011.75 601.216L-2033.8 593.547L-2055.53 585.71L-2076.9 577.706L-2097.87 569.536L-2118.37 561.202L-2138.37 552.707L-2157.81 544.055L-2176.63 535.249L-2194.78 526.295L-2212.21 517.198L-2228.86 507.965L-2244.67 498.602L-2259.6 489.118L-2273.6 479.521L-2286.61 469.82L-2298.59 460.024L-2309.5 450.145L-2319.28 440.192L-2327.9 430.178L-2335.32 420.114L-2341.52 410.013L-2346.45 399.885L-2350.09 389.746L-2352.43 379.606L-2353.43 369.48L-2353.09 359.381L-2351.38 349.321L-2348.32 339.315L-2343.88 329.374L-2338.07 319.512L-2330.89 309.741L-2322.35 300.074L-2312.46 290.523L-2301.23 281.1L-2288.69 271.816L-2274.85 262.681L-2259.73 253.706L-2243.37 244.9L-2225.8 236.273L-2207.05 227.832L-2187.15 219.585L-2166.16 211.538L-2144.11 203.697L-2121.04 196.068L-2097 188.653L-2072.04 181.457L-2046.21 174.481L-2019.57 167.727L-1992.15 161.196L-1964.01 154.889L-1935.2 148.805L-1905.74 142.947L-1875.69 137.316L-1845.07 131.914L-1813.91 126.744L-1782.24 121.809L-1750.1 117.11L-1717.5 112.652L-1684.47 108.437L-1651.03 104.468L-1617.21 100.749L-1583.04 97.2822L-1548.54 94.0716L-1513.73 91.1197L-1478.64 88.4291L-1443.3 86.0027L-1407.73 83.8423L-1371.95 81.9494L-1336 80.3247L-1299.92 78.9684L-1263.72 77.879L-1227.45 77.0548L-1191.14 76.4929L-1154.83 76.1889L-1118.55 76.1376L-1082.33 76.3325L-1046.23 76.766L-1010.26 77.4291L-974.484 78.311L-938.924 79.4003L-903.62 80.6837L-868.607 82.1469L-833.921 83.774L-799.593 85.5479L-765.653 87.4505L-732.13 89.4625L-699.048 91.5636L-666.429 93.7324L-634.291 95.9471L-602.65 98.1852L-571.514 100.424L-540.89 102.639L-510.78 104.807L-481.181 106.906L-452.085 108.911L-423.48 110.801L-395.348 112.551L-367.669 114.142L-340.414 115.552L-313.553 116.762L-287.052 117.753L-260.87 118.509L-234.965 119.014L-209.29 119.254L-183.796 119.218L-158.43 118.895L-133.139 118.279L-107.865 117.362L-82.5514 116.142L-57.1393 114.618L-31.5702 112.791Z" fill="url(#paint0_linear_263_28)"/>
</g>
<defs>
<linearGradient id="paint0_linear_263_28" x1="0.9999" y1="317" x2="1952" y2="146" gradientUnits="userSpaceOnUse">
<stop offset="0.0380458" stop-color="#07075B"/>
<stop offset="0.9999" stop-color="#6956E6"/>
<stop offset="1" stop-color="#7B64FF"/>
</linearGradient>
</defs>
</svg>
