<svg width="76" height="32" viewBox="0 0 76 32" fill="none" xmlns="http://www.w3.org/2000/svg">
<path d="M6.456 18.276H13.624V22.5H0.984V0.0359993H6.456V18.276ZM24.362 22.756C22.6127 22.756 21.034 22.3827 19.626 21.636C18.2393 20.8893 17.1407 19.8227 16.33 18.436C15.5407 17.0493 15.146 15.428 15.146 13.572C15.146 11.7373 15.5513 10.1267 16.362 8.74C17.1727 7.332 18.282 6.25467 19.69 5.508C21.098 4.76133 22.6767 4.388 24.426 4.388C26.1753 4.388 27.754 4.76133 29.162 5.508C30.57 6.25467 31.6793 7.332 32.49 8.74C33.3007 10.1267 33.706 11.7373 33.706 13.572C33.706 15.4067 33.29 17.028 32.458 18.436C31.6473 19.8227 30.5273 20.8893 29.098 21.636C27.69 22.3827 26.1113 22.756 24.362 22.756ZM24.362 18.02C25.4073 18.02 26.2927 17.636 27.018 16.868C27.7647 16.1 28.138 15.0013 28.138 13.572C28.138 12.1427 27.7753 11.044 27.05 10.276C26.346 9.508 25.4713 9.124 24.426 9.124C23.3593 9.124 22.474 9.508 21.77 10.276C21.066 11.0227 20.714 12.1213 20.714 13.572C20.714 15.0013 21.0553 16.1 21.738 16.868C22.442 17.636 23.3167 18.02 24.362 18.02ZM43.393 4.388C44.6517 4.388 45.7503 4.644 46.689 5.156C47.649 5.668 48.385 6.34 48.897 7.172V4.644H54.369V22.468C54.369 24.1107 54.0383 25.5933 53.377 26.916C52.737 28.26 51.745 29.3267 50.401 30.116C49.0783 30.9053 47.425 31.3 45.441 31.3C42.7957 31.3 40.6517 30.6707 39.009 29.412C37.3663 28.1747 36.4277 26.4893 36.193 24.356H41.601C41.7717 25.0387 42.177 25.572 42.817 25.956C43.457 26.3613 44.2463 26.564 45.185 26.564C46.3157 26.564 47.2117 26.2333 47.873 25.572C48.5557 24.932 48.897 23.8973 48.897 22.468V19.94C48.3637 20.772 47.6277 21.4547 46.689 21.988C45.7503 22.5 44.6517 22.756 43.393 22.756C41.921 22.756 40.5877 22.3827 39.393 21.636C38.1983 20.868 37.249 19.7907 36.545 18.404C35.8623 16.996 35.521 15.3747 35.521 13.54C35.521 11.7053 35.8623 10.0947 36.545 8.708C37.249 7.32133 38.1983 6.25467 39.393 5.508C40.5877 4.76133 41.921 4.388 43.393 4.388ZM48.897 13.572C48.897 12.2067 48.513 11.1293 47.745 10.34C46.9983 9.55067 46.081 9.156 44.993 9.156C43.905 9.156 42.977 9.55067 42.209 10.34C41.4623 11.108 41.089 12.1747 41.089 13.54C41.089 14.9053 41.4623 15.9933 42.209 16.804C42.977 17.5933 43.905 17.988 44.993 17.988C46.081 17.988 46.9983 17.5933 47.745 16.804C48.513 16.0147 48.897 14.9373 48.897 13.572ZM66.4558 22.756C64.7064 22.756 63.1278 22.3827 61.7198 21.636C60.3331 20.8893 59.2344 19.8227 58.4238 18.436C57.6344 17.0493 57.2398 15.428 57.2398 13.572C57.2398 11.7373 57.6451 10.1267 58.4557 8.74C59.2664 7.332 60.3758 6.25467 61.7838 5.508C63.1918 4.76133 64.7704 4.388 66.5198 4.388C68.2691 4.388 69.8478 4.76133 71.2558 5.508C72.6638 6.25467 73.7731 7.332 74.5838 8.74C75.3944 10.1267 75.7998 11.7373 75.7998 13.572C75.7998 15.4067 75.3838 17.028 74.5518 18.436C73.7411 19.8227 72.6211 20.8893 71.1918 21.636C69.7838 22.3827 68.2051 22.756 66.4558 22.756ZM66.4558 18.02C67.5011 18.02 68.3864 17.636 69.1118 16.868C69.8584 16.1 70.2318 15.0013 70.2318 13.572C70.2318 12.1427 69.8691 11.044 69.1438 10.276C68.4398 9.508 67.5651 9.124 66.5198 9.124C65.4531 9.124 64.5678 9.508 63.8638 10.276C63.1598 11.0227 62.8078 12.1213 62.8078 13.572C62.8078 15.0013 63.1491 16.1 63.8318 16.868C64.5358 17.636 65.4104 18.02 66.4558 18.02Z" fill="white"/>
</svg>
