<svg width="40" height="18" viewBox="0 0 40 18" fill="none" xmlns="http://www.w3.org/2000/svg">
<g clip-path="url(#clip0_167_1138)">
<path d="M3.78143 2.84961C2.37487 2.84961 1.8139 3.02956 1.67159 3.28053C0.0498567 6.14054 0.120719 11.2174 0.000435031 16.044C-0.0074027 16.3585 0.090956 16.639 0.271998 16.8853C0.45304 17.1315 0.696751 17.2546 1.00313 17.2546H7.43709C7.68776 17.2546 7.8688 16.9263 7.98022 16.2697C7.98807 16.2054 7.9944 16.1416 8.00078 16.0778C7.9818 16.0596 7.9627 16.0415 7.94388 16.023C7.33374 15.3964 6.87557 14.4374 6.56919 13.3353H4.241C4.25823 9.88271 6.20265 3.84755 5.91216 3.28053C5.78069 3.02391 5.20191 2.84961 3.78143 2.84961Z" fill="#3C8170"/>
<path d="M12.8962 1.02744C11.3583 1.01892 9.76072 1.60467 8.35819 2.82047C7.11874 4.06535 6.49902 6.88343 6.49902 9.30479C6.49902 11.7125 7.11178 14.3117 8.3373 15.5702C10.7048 17.9028 14.3348 18.0875 17.0343 15.6523C17.3375 15.3545 17.6033 14.9727 17.8323 14.5303C17.1204 13.0609 16.764 10.9545 16.764 9.06752C16.764 7.46938 17.1084 5.35091 17.7966 3.836C17.5866 3.42461 17.3465 3.07172 17.0761 2.79995C15.9123 1.63874 14.4341 1.03596 12.8962 1.02744ZM12.7582 4.94386C13.1546 4.94091 13.5512 5.18923 13.9217 5.77535C14.3813 6.36359 14.6111 8.18987 14.6111 9.28427C14.6111 10.3787 14.3883 11.9861 13.9426 12.5743C13.1096 13.7157 12.605 13.7932 11.4289 12.5948C10.9972 12.0066 10.7814 10.406 10.7814 9.32531C10.7814 8.23091 11.0042 6.39779 11.4498 5.79587C11.8601 5.2733 12.309 4.94721 12.7582 4.94386Z" fill="#ACE0EC"/>
<path d="M23.7628 0.500377C22.1626 0.517217 20.6499 1.08645 19.1387 2.47468C17.9271 3.80163 17.3213 6.83859 17.3213 8.95899C17.3213 11.4487 17.941 14.3215 19.1805 15.6075C20.7853 17.2421 23.561 17.8865 26.0601 17.2696C26.9096 17.0781 27.4736 16.8865 27.7521 16.695L27.7678 15.4868C26.5414 13.8103 26.0474 11.7246 26.3118 9.7862L26.2272 9.77979C25.9626 9.77979 25.6283 9.81399 25.2245 9.88239C24.8206 9.93711 24.6187 10.0602 24.6187 10.2517L24.5769 13.0425C24.5832 14.115 22.927 13.3855 22.481 12.6936C21.9379 12.0917 21.6663 10.2312 21.6663 9.08211C21.6663 7.93299 21.9309 5.77155 22.4601 5.22435C23.1191 4.56115 23.8153 4.18824 24.8067 4.58823C25.1966 4.69767 25.4543 4.80711 25.5796 4.91655C25.7189 5.01231 25.8442 5.06019 25.9556 5.06019C26.0809 5.06019 26.2759 4.92339 26.5405 4.64979C26.8051 4.37619 27.0419 3.96579 27.2508 3.4186C27.4596 2.85772 27.5641 2.4268 27.5641 2.12584C27.5641 1.82488 27.5571 1.61968 27.5432 1.51024C27.2508 1.1956 26.7076 0.949359 25.9138 0.771519C25.23 0.604183 24.5666 0.507964 23.9179 0.500484C23.8661 0.499888 23.8144 0.499832 23.7628 0.500374V0.500377ZM31.2623 10.1225C31.1228 10.9523 31.3217 11.7437 31.8794 12.5C31.949 12.5926 32.0222 12.6775 32.0987 12.755L32.0503 10.2723C32.0503 10.218 31.7328 10.1682 31.2623 10.1225Z" fill="#3C8170"/>
<path d="M33.3215 17.4583C31.3718 17.4583 29.7772 16.829 28.5378 15.5704C26.0917 12.6617 26.0455 8.25367 28.5587 5.66615C29.812 4.42127 31.4205 3.79883 33.3841 3.79883C35.3617 3.79883 36.9562 4.41443 38.1678 5.64563C40.5729 8.62079 40.6636 13.1101 38.1261 15.6525C36.8866 16.8564 35.2851 17.4583 33.3215 17.4583ZM33.3424 7.73866C32.6739 7.73866 32.1099 8.03962 31.6503 8.64154C30.7602 10.0606 30.7286 11.3735 31.6294 12.5951C32.0611 13.1696 32.6252 13.4569 33.3215 13.4569C34.0317 13.4569 34.6027 13.1628 35.0344 12.5745C35.957 11.3191 35.9297 9.8044 35.0135 8.62102C34.5679 8.03278 34.0108 7.73866 33.3424 7.73866Z" fill="#ACE0EC"/>
</g>
<defs>
<clipPath id="clip0_167_1138">
<rect width="40" height="17" fill="white" transform="translate(0 0.5)"/>
</clipPath>
</defs>
</svg>
