<svg width="18" height="18" viewBox="0 0 18 18" fill="none" xmlns="http://www.w3.org/2000/svg">
<path d="M1.5 18C1.08333 18 0.729167 17.8542 0.4375 17.5625C0.145833 17.2708 0 16.9167 0 16.5V1.5C0 1.08333 0.145833 0.729167 0.4375 0.4375C0.729167 0.145833 1.08333 0 1.5 0H16.5C16.9167 0 17.2708 0.145833 17.5625 0.4375C17.8542 0.729167 18 1.08333 18 1.5V16.5C18 16.9167 17.8542 17.2708 17.5625 17.5625C17.2708 17.8542 16.9167 18 16.5 18H1.5ZM1.5 16.5H16.5V3.5H1.5V16.5ZM9 13.875C7.66667 13.875 6.475 13.5167 5.425 12.8C4.375 12.0833 3.60833 11.15 3.125 10C3.60833 8.85 4.375 7.91667 5.425 7.2C6.475 6.48333 7.66667 6.125 9 6.125C10.3333 6.125 11.525 6.48333 12.575 7.2C13.625 7.91667 14.3917 8.85 14.875 10C14.3917 11.15 13.625 12.0833 12.575 12.8C11.525 13.5167 10.3333 13.875 9 13.875ZM9 12.625C9.95 12.625 10.825 12.3917 11.625 11.925C12.425 11.4583 13.05 10.8167 13.5 10C13.05 9.18333 12.425 8.54167 11.625 8.075C10.825 7.60833 9.95 7.375 9 7.375C8.05 7.375 7.175 7.60833 6.375 8.075C5.575 8.54167 4.95 9.18333 4.5 10C4.95 10.8167 5.575 11.4583 6.375 11.925C7.175 12.3917 8.05 12.625 9 12.625ZM9 11.25C8.65 11.25 8.35417 11.1292 8.1125 10.8875C7.87083 10.6458 7.75 10.35 7.75 10C7.75 9.65 7.87083 9.35417 8.1125 9.1125C8.35417 8.87083 8.65 8.75 9 8.75C9.35 8.75 9.64583 8.87083 9.8875 9.1125C10.1292 9.35417 10.25 9.65 10.25 10C10.25 10.35 10.1292 10.6458 9.8875 10.8875C9.64583 11.1292 9.35 11.25 9 11.25Z" fill="white"/>
</svg>
