<svg width="422" height="178" viewBox="0 0 422 178" fill="none" xmlns="http://www.w3.org/2000/svg">
<path fill-rule="evenodd" clip-rule="evenodd" d="M347.106 16.5796C368.85 21.8753 457.273 81.7306 369.387 118.529C335.411 132.773 244.048 140.099 137.024 137.258C119.376 136.789 107.297 136.413 89.4835 136.972C88.3573 136.992 94.7732 138.523 103.932 140.357C125.615 144.701 133.816 148.224 131.336 152.182C130.074 154.096 127.807 154.091 120.887 152.174C101.084 146.653 76.8603 143.395 39.3023 141.308C24.5582 140.48 12.0309 135.273 51.8729 129.725C85.576 125.031 105.603 121.236 135.734 113.702C155.283 108.83 166.892 110.46 155.776 116.49C151.93 118.581 131.383 123.866 109 128.538L97.5672 130.907C141.101 132.025 143.786 132.155 179.396 132.135C264.068 132.052 326.249 125.542 355.098 113.704C427.982 83.7515 351.041 47.8509 341.936 17.3338C342.36 12.492 347.106 16.5796 347.106 16.5796Z" fill="#7B64FF"/>
</svg>
