<svg width="16" height="19" viewBox="0 0 16 19" fill="none" xmlns="http://www.w3.org/2000/svg">
<path d="M6.925 19C6.525 19 6.175 18.8542 5.875 18.5625C5.575 18.2708 5.425 17.9167 5.425 17.5V12.5H1.5C1.1 12.5 0.75 12.35 0.45 12.05C0.15 11.75 0 11.4 0 11V3.425C0 2.50833 0.329167 1.70833 0.9875 1.025C1.64583 0.341667 2.44167 0 3.375 0H16V11C16 11.4 15.85 11.75 15.55 12.05C15.25 12.35 14.9 12.5 14.5 12.5H10.575V17.5C10.575 17.9167 10.425 18.2708 10.125 18.5625C9.825 18.8542 9.475 19 9.075 19H6.925ZM1.5 7.15H14.5V1.5H13.1V5.775H11.6V1.5H9.825V3.625H8.325V1.5H3.375C2.84167 1.5 2.39583 1.69167 2.0375 2.075C1.67917 2.45833 1.5 2.90833 1.5 3.425V7.15ZM1.5 11H14.5V8.65H1.5V11ZM1.5 8.65V11V8.65Z" fill="#191937"/>
</svg>
