<svg width="20" height="24" viewBox="0 0 20 24" fill="none" xmlns="http://www.w3.org/2000/svg">
<path d="M4.375 1.075L5.45 0L14.15 8.7C14.5333 9.08333 14.725 9.55417 14.725 10.1125C14.725 10.6708 14.5333 11.1417 14.15 11.525L9.7 15.975C9.31667 16.3583 8.86667 16.55 8.35 16.55C7.83333 16.55 7.38333 16.3583 7 15.975L2.55 11.525C2.16667 11.1417 1.975 10.6708 1.975 10.1125C1.975 9.55417 2.16667 9.08333 2.55 8.7L7.275 3.975L4.375 1.075ZM8.35 5.05L3.375 10.025H13.325L8.35 5.05ZM16.8 16.975C16.3 16.975 15.875 16.8 15.525 16.45C15.175 16.1 15 15.675 15 15.175C15 14.8917 15.0667 14.5833 15.2 14.25C15.3333 13.9167 15.5167 13.575 15.75 13.225C15.8833 13.0083 16.0458 12.775 16.2375 12.525C16.4292 12.275 16.6167 12.0417 16.8 11.825C16.9833 12.0417 17.1708 12.275 17.3625 12.525C17.5542 12.775 17.7167 13.0083 17.85 13.225C18.0833 13.575 18.2667 13.9167 18.4 14.25C18.5333 14.5833 18.6 14.8917 18.6 15.175C18.6 15.675 18.425 16.1 18.075 16.45C17.725 16.8 17.3 16.975 16.8 16.975ZM0 24.025V21H20V24.025H0Z" fill="#191937"/>
</svg>
