<svg width="32" height="29" viewBox="0 0 32 29" fill="none" xmlns="http://www.w3.org/2000/svg">
<path d="M16 23.0596C17.92 23.0596 19.5333 22.4063 20.84 21.0996C22.1467 19.7929 22.8 18.1663 22.8 16.2196C22.8 14.2996 22.1467 12.6929 20.84 11.3996C19.5333 10.1063 17.92 9.45961 16 9.45961C14.0533 9.45961 12.4333 10.1063 11.14 11.3996C9.84667 12.6929 9.2 14.2996 9.2 16.2196C9.2 18.1663 9.84667 19.7929 11.14 21.0996C12.4333 22.4063 14.0533 23.0596 16 23.0596ZM16 20.6596C14.72 20.6596 13.6667 20.2396 12.84 19.3996C12.0133 18.5596 11.6 17.4996 11.6 16.2196C11.6 14.9663 12.0133 13.9263 12.84 13.0996C13.6667 12.2729 14.72 11.8596 16 11.8596C17.2533 11.8596 18.3 12.2729 19.14 13.0996C19.98 13.9263 20.4 14.9663 20.4 16.2196C20.4 17.4996 19.98 18.5596 19.14 19.3996C18.3 20.2396 17.2533 20.6596 16 20.6596ZM2.4 28.8996C1.76 28.8996 1.2 28.6596 0.72 28.1796C0.24 27.6996 0 27.1396 0 26.4996V5.97961C0 5.36628 0.24 4.81294 0.72 4.31961C1.2 3.82628 1.76 3.57961 2.4 3.57961H8.28L11.2 0.0996094H20.8L23.72 3.57961H29.6C30.2133 3.57961 30.7667 3.82628 31.26 4.31961C31.7533 4.81294 32 5.36628 32 5.97961V26.4996C32 27.1396 31.7533 27.6996 31.26 28.1796C30.7667 28.6596 30.2133 28.8996 29.6 28.8996H2.4ZM29.6 26.4996V5.97961H22.6L19.68 2.49961H12.32L9.4 5.97961H2.4V26.4996H29.6Z" fill="#191937"/>
</svg>
