<svg width="24" height="22" viewBox="0 0 24 22" fill="none" xmlns="http://www.w3.org/2000/svg">
<path d="M12 17.22C13.44 17.22 14.65 16.73 15.63 15.75C16.61 14.77 17.1 13.55 17.1 12.09C17.1 10.65 16.61 9.445 15.63 8.475C14.65 7.505 13.44 7.02 12 7.02C10.54 7.02 9.325 7.505 8.355 8.475C7.385 9.445 6.9 10.65 6.9 12.09C6.9 13.55 7.385 14.77 8.355 15.75C9.325 16.73 10.54 17.22 12 17.22ZM12 15.42C11.04 15.42 10.25 15.105 9.63 14.475C9.01 13.845 8.7 13.05 8.7 12.09C8.7 11.15 9.01 10.37 9.63 9.75C10.25 9.13 11.04 8.82 12 8.82C12.94 8.82 13.725 9.13 14.355 9.75C14.985 10.37 15.3 11.15 15.3 12.09C15.3 13.05 14.985 13.845 14.355 14.475C13.725 15.105 12.94 15.42 12 15.42ZM1.8 21.6C1.32 21.6 0.9 21.42 0.54 21.06C0.18 20.7 0 20.28 0 19.8V4.41C0 3.95 0.18 3.535 0.54 3.165C0.9 2.795 1.32 2.61 1.8 2.61H6.21L8.4 0H15.6L17.79 2.61H22.2C22.66 2.61 23.075 2.795 23.445 3.165C23.815 3.535 24 3.95 24 4.41V19.8C24 20.28 23.815 20.7 23.445 21.06C23.075 21.42 22.66 21.6 22.2 21.6H1.8ZM22.2 19.8V4.41H16.95L14.76 1.8H9.24L7.05 4.41H1.8V19.8H22.2Z" fill="white"/>
</svg>
