<svg width="21" height="22" viewBox="0 0 21 22" fill="none" xmlns="http://www.w3.org/2000/svg">
<path d="M6.94063 3.62L5.49062 2.16C7.07062 1.11 8.96062 0.5 11.0006 0.5C16.5206 0.5 21.0006 4.98 21.0006 10.5C21.0006 12.54 20.3906 14.43 19.3406 16.01L17.8806 14.55C18.5906 13.36 19.0006 11.98 19.0006 10.5C19.0006 6.09 15.4106 2.5 11.0006 2.5C9.52062 2.5 8.14062 2.91 6.94063 3.62ZM16.6606 8.03L15.2506 6.62L12.6006 9.27L14.0106 10.68L16.6606 8.03ZM18.7806 21.11L16.5106 18.84C14.9306 19.89 13.0406 20.5 11.0006 20.5C5.48062 20.5 1.00063 16.02 1.00063 10.5C1.00063 8.46 1.61063 6.57 2.66062 4.99L0.390625 2.72L1.80062 1.31L20.1806 19.69L18.7806 21.11ZM15.0606 17.38L11.1806 13.5L9.59062 15.09L5.35063 10.85L6.76063 9.44L9.59062 12.27L9.77063 12.09L4.12063 6.44C3.41062 7.64 3.00063 9.02 3.00063 10.5C3.00063 14.91 6.59062 18.5 11.0006 18.5C12.4806 18.5 13.8606 18.09 15.0606 17.38Z" fill="black"/>
</svg>
