<svg width="33" height="26" viewBox="0 0 33 26" fill="none" xmlns="http://www.w3.org/2000/svg">
<path d="M4.24984 21.3141L16.2498 25.5641C16.2748 25.5641 16.2998 25.5891 16.3248 25.5891C16.3748 25.6141 16.4498 25.6141 16.4998 25.6141C16.5498 25.6141 16.5748 25.6141 16.6248 25.6141C16.6248 25.6141 16.6248 25.6141 16.6498 25.6141C16.6748 25.6141 16.7248 25.5891 16.7498 25.5891L28.7498 21.3391C29.0498 21.2391 29.2498 20.9391 29.2498 20.6391V12.2141L31.7498 11.3391C31.9498 11.2641 32.1248 11.0891 32.1998 10.8891C32.2748 10.6891 32.2498 10.4391 32.1248 10.2391L29.1248 5.23906L29.0998 5.21406C29.0998 5.18906 29.0748 5.18906 29.0748 5.16406C29.0748 5.13906 29.0498 5.13906 29.0498 5.11406C29.0498 5.11406 29.0498 5.11406 29.0498 5.08906C29.0248 5.06406 29.0248 5.06406 28.9998 5.03906L28.9748 5.01406L28.9498 4.98906H28.9248L28.8998 4.96406C28.8748 4.93906 28.8498 4.93906 28.8248 4.93906C28.7998 4.93906 28.7998 4.91406 28.7748 4.91406L16.7748 0.664062C16.7748 0.664062 16.7748 0.664062 16.7498 0.664062H16.7248H16.6998C16.6748 0.664062 16.6748 0.664062 16.6498 0.664062C16.6248 0.664062 16.6248 0.664062 16.5998 0.664062C16.5748 0.664062 16.5748 0.664062 16.5498 0.664062C16.5248 0.664062 16.4998 0.664062 16.4498 0.664062C16.4248 0.664062 16.4248 0.664062 16.3998 0.664062C16.3498 0.664062 16.2998 0.689062 16.2748 0.689062L4.27484 4.93906C4.22484 4.96406 4.19984 4.96406 4.14984 4.98906L4.12484 5.01406C4.09984 5.03906 4.07484 5.03906 4.04984 5.06406L4.02484 5.08906C3.99984 5.11406 3.97484 5.11406 3.97484 5.13906L3.94984 5.16406C3.92484 5.18906 3.92484 5.21406 3.89984 5.21406C3.89984 5.21406 3.89984 5.23906 3.87484 5.23906L0.874841 10.2391C0.699841 10.5141 0.724841 10.8641 0.924841 11.0891C1.07484 11.2641 1.27484 11.3641 1.49984 11.3641C1.57484 11.3641 1.67484 11.3391 1.74984 11.3141L3.74984 10.6141V20.6141C3.74984 20.9391 3.94984 21.2141 4.24984 21.3141ZM30.3748 10.2141L19.8248 13.9641L17.5998 10.2641L28.1498 6.51406L30.3748 10.2141ZM17.2498 2.41406L26.2498 5.61406L17.2498 8.81406V2.41406ZM17.2498 12.5641L18.8498 15.2391C18.9998 15.4891 19.2498 15.6141 19.4998 15.6141C19.5748 15.6141 19.6748 15.5891 19.7498 15.5641L27.7498 12.7391V20.0891L17.2498 23.8141V12.5641ZM5.24984 6.66406L15.7498 10.3891V23.7891L5.24984 20.0641V6.66406Z" fill="url(#paint0_linear_15_53)"/>
<defs>
<linearGradient id="paint0_linear_15_53" x1="16.4999" y1="0.664062" x2="16.4999" y2="25.6141" gradientUnits="userSpaceOnUse">
<stop stop-color="#0606F4"/>
<stop offset="1" stop-color="#7B64FF"/>
</linearGradient>
</defs>
</svg>
