<svg width="162" height="41" viewBox="0 0 162 41" fill="none" xmlns="http://www.w3.org/2000/svg">
<rect x="0.5" y="0.587051" width="161" height="39" rx="3.5" fill="#7B64FF"/>
<g clip-path="url(#clip0_1234_4634)">
<path d="M42.6 27.5871H45V29.5871H39V23.5871H41V26.3171C42.83 24.8471 44 22.6071 44 20.0871C44 16.0171 40.94 12.6471 37 12.1571V10.1371C42.05 10.6371 46 14.8971 46 20.0871C46 23.0771 44.68 25.7571 42.6 27.5871ZM28 20.0871C28 17.5671 29.17 15.3171 31 13.8571V16.5871H33V10.5871H27V12.5871H29.4C27.32 14.4171 26 17.0971 26 20.0871C26 25.2771 29.95 29.5371 35 30.0371V28.0171C31.06 27.5271 28 24.1571 28 20.0871ZM40.24 16.1971L34.58 21.8571L31.75 19.0271L30.34 20.4371L34.58 24.6771L41.65 17.6071L40.24 16.1971Z" fill="white"/>
</g>
<path d="M65.44 24.5591C65.44 24.9111 65.616 25.0871 65.968 25.0871H66.48C66.832 25.0871 67.008 24.9111 67.008 24.5591V20.9111H69.568C71.632 20.9111 73.104 19.4711 73.104 17.3271C73.104 15.1831 71.632 13.7911 69.568 13.7911H65.968C65.616 13.7911 65.44 13.9671 65.44 14.3191V24.5591ZM67.008 19.5351V15.1671H69.328C70.672 15.1671 71.504 15.9671 71.504 17.3271C71.504 18.6871 70.672 19.5351 69.312 19.5351H67.008ZM74.4928 22.1751C74.4928 24.3191 75.4208 25.2791 77.2448 25.2791C78.8288 25.2791 79.9008 24.1751 80.2528 23.3751H80.2848C80.2848 23.3751 80.2368 23.5991 80.2368 23.8391V24.5591C80.2368 24.9111 80.4128 25.0871 80.7648 25.0871H81.2128C81.5487 25.0871 81.7408 24.9111 81.7408 24.5591V17.5191C81.7408 17.1671 81.5487 16.9911 81.2128 16.9911H80.7168C80.3648 16.9911 80.1888 17.1671 80.1888 17.5191V20.7831C80.1888 22.3831 79.2128 23.8391 77.5488 23.8391C76.2688 23.8391 76.0288 22.9431 76.0288 21.8231V17.5191C76.0288 17.1671 75.8528 16.9911 75.5168 16.9911H75.0208C74.6688 16.9911 74.4928 17.1671 74.4928 17.5191V22.1751ZM83.9954 24.5591C83.9954 24.9111 84.1714 25.0871 84.5234 25.0871H84.9234C85.2594 25.0871 85.4514 24.9111 85.4514 24.6231V24.2231C85.4514 23.9351 85.4034 23.7431 85.4034 23.7431H85.4354C85.4354 23.7431 86.1234 25.2791 88.0274 25.2791C90.1394 25.2791 91.6914 23.6151 91.6914 21.0231C91.6914 18.5271 90.2994 16.7991 88.1554 16.7991C86.2354 16.7991 85.5154 18.2871 85.5154 18.2871H85.4834C85.4834 18.2871 85.5314 17.9991 85.5314 17.5991V14.3191C85.5314 13.9671 85.3554 13.7911 85.0194 13.7911H84.5234C84.1714 13.7911 83.9954 13.9671 83.9954 14.3191V24.5591ZM85.4994 21.0391C85.4994 19.0231 86.6194 18.1591 87.8354 18.1591C89.1794 18.1591 90.1234 19.2951 90.1234 21.0551C90.1234 22.8951 89.0674 23.9351 87.7714 23.9351C86.2514 23.9351 85.4994 22.5271 85.4994 21.0391ZM93.4481 22.8791C93.4481 24.9111 94.7441 25.1511 95.6081 25.1511C96.0081 25.1511 96.1521 24.9431 96.1521 24.6071V24.2231C96.1521 23.9191 95.9761 23.7911 95.7361 23.7591C95.4001 23.7271 95.0001 23.5991 95.0001 22.6871V14.3191C95.0001 13.9671 94.8081 13.7911 94.4721 13.7911H93.9761C93.6241 13.7911 93.4481 13.9671 93.4481 14.3191V22.8791ZM98.1476 15.3751H98.6916C99.0276 15.3751 99.2196 15.1831 99.2196 14.8471V14.3191C99.2196 13.9671 99.0276 13.7911 98.6916 13.7911H98.1476C97.7956 13.7911 97.6196 13.9671 97.6196 14.3191V14.8471C97.6196 15.1831 97.7956 15.3751 98.1476 15.3751ZM97.6356 24.5591C97.6356 24.9111 97.8276 25.0871 98.1636 25.0871H98.6596C99.0116 25.0871 99.1876 24.9111 99.1876 24.5591V17.5191C99.1876 17.1671 99.0116 16.9911 98.6596 16.9911H98.1636C97.8276 16.9911 97.6356 17.1671 97.6356 17.5191V24.5591ZM101.113 24.3991C101.561 24.7351 102.489 25.2791 103.833 25.2791C105.577 25.2791 106.745 24.2711 106.745 22.8951C106.745 20.1431 102.569 20.7191 102.569 19.1031C102.569 18.4151 103.161 18.0791 103.929 18.0791C104.697 18.0791 105.241 18.3511 105.577 18.5431C105.881 18.6871 106.121 18.6551 106.281 18.3671L106.425 18.1271C106.585 17.8391 106.537 17.5671 106.249 17.4231C105.865 17.1831 105.129 16.7991 104.009 16.7991C102.424 16.7991 101.081 17.5991 101.081 19.1351C101.081 21.8711 105.257 21.3431 105.257 22.9271C105.257 23.6151 104.681 23.9991 103.881 23.9991C102.937 23.9991 102.265 23.5831 101.897 23.3431C101.577 23.1671 101.368 23.1831 101.161 23.4551L101.001 23.6791C100.825 23.9511 100.84 24.2231 101.113 24.3991ZM108.48 24.5591C108.48 24.9111 108.656 25.0871 109.008 25.0871H109.504C109.84 25.0871 110.016 24.9111 110.016 24.5591V21.2471C110.016 19.5031 111.168 18.2231 112.72 18.2231C114.016 18.2231 114.256 19.1191 114.256 20.2551V24.5591C114.256 24.9111 114.432 25.0871 114.784 25.0871H115.28C115.616 25.0871 115.808 24.9111 115.808 24.5591V19.9031C115.808 17.8391 114.928 16.7991 113.024 16.7991C111.408 16.7991 110.352 17.8711 110 18.6551H109.968C109.968 18.6551 110.016 18.3671 110.016 17.9831V14.3191C110.016 13.9671 109.84 13.7911 109.504 13.7911H109.008C108.656 13.7911 108.48 13.9671 108.48 14.3191V24.5591Z" fill="white"/>
<rect x="0.5" y="0.587051" width="161" height="39" rx="3.5" stroke="#7B64FF"/>
<defs>
<clipPath id="clip0_1234_4634">
<rect width="24" height="24" fill="white" transform="translate(24 8.08705)"/>
</clipPath>
</defs>
</svg>
