<svg width="162" height="41" viewBox="0 0 162 41" fill="none" xmlns="http://www.w3.org/2000/svg">
<g clip-path="url(#clip0_1234_4669)">
<path d="M31.9401 13.2071L30.4901 11.7471C32.0701 10.6971 33.9601 10.0871 36.0001 10.0871C41.5201 10.0871 46.0001 14.5671 46.0001 20.0871C46.0001 22.1271 45.3901 24.0171 44.3401 25.5971L42.8801 24.1371C43.5901 22.9471 44.0001 21.5671 44.0001 20.0871C44.0001 15.6771 40.4101 12.0871 36.0001 12.0871C34.5201 12.0871 33.1401 12.4971 31.9401 13.2071ZM41.6601 17.6171L40.2501 16.2071L37.6001 18.8571L39.0101 20.2671L41.6601 17.6171ZM43.7801 30.6971L41.5101 28.4271C39.9301 29.4771 38.0401 30.0871 36.0001 30.0871C30.4801 30.0871 26.0001 25.6071 26.0001 20.0871C26.0001 18.0471 26.6101 16.1571 27.6601 14.5771L25.3901 12.3071L26.8001 10.8971L45.1801 29.2771L43.7801 30.6971ZM40.0601 26.9671L36.1801 23.0871L34.5901 24.6771L30.3501 20.4371L31.7601 19.0271L34.5901 21.8571L34.7701 21.6771L29.1201 16.0271C28.4101 17.2271 28.0001 18.6071 28.0001 20.0871C28.0001 24.4971 31.5901 28.0871 36.0001 28.0871C37.4801 28.0871 38.8601 27.6771 40.0601 26.9671Z" fill="black"/>
</g>
<path d="M65.296 21.0871C65.296 23.5991 67.088 25.2791 69.744 25.2791C72.384 25.2791 74.176 23.5991 74.176 21.0871V14.3191C74.176 13.9671 73.984 13.7911 73.648 13.7911H73.12C72.784 13.7911 72.592 13.9671 72.592 14.3191V21.0551C72.592 22.7991 71.456 23.8231 69.728 23.8231C68 23.8231 66.864 22.7991 66.864 21.0711V14.3191C66.864 13.9671 66.688 13.7911 66.352 13.7911H65.824C65.488 13.7911 65.296 13.9671 65.296 14.3191V21.0871ZM76.4325 24.5591C76.4325 24.9111 76.6245 25.0871 76.9605 25.0871H77.4565C77.8085 25.0871 77.9845 24.9111 77.9845 24.5591V21.2151C77.9845 19.5351 79.1205 18.2231 80.6885 18.2231C81.9845 18.2231 82.2085 19.1191 82.2085 20.2551V24.5591C82.2085 24.9111 82.4005 25.0871 82.7365 25.0871H83.2325C83.5845 25.0871 83.7605 24.9111 83.7605 24.5591V19.9031C83.7605 17.8391 82.8965 16.7991 80.9925 16.7991C79.2165 16.7991 78.2405 17.9991 77.9205 18.7031H77.8885C77.8885 18.7031 77.9365 18.4791 77.9365 18.2391V17.5191C77.9365 17.1671 77.7605 16.9911 77.4085 16.9911H76.9605C76.6245 16.9911 76.4325 17.1671 76.4325 17.5191V24.5591ZM85.9016 27.7591C85.9016 28.1111 86.0776 28.2871 86.4296 28.2871H86.9256C87.2616 28.2871 87.4376 28.1111 87.4376 27.7591V24.5431C87.4376 24.1271 87.3896 23.8391 87.3896 23.8391H87.4216C87.4216 23.8391 88.0936 25.2791 89.9336 25.2791C92.0456 25.2791 93.5976 23.6151 93.5976 21.0391C93.5976 18.5271 92.2216 16.7991 90.0456 16.7991C88.0136 16.7991 87.3256 18.3511 87.3256 18.3511H87.2936C87.2936 18.3511 87.3256 18.1591 87.3256 17.9191V17.4391C87.3256 17.1671 87.1496 16.9911 86.7976 16.9911H86.4296C86.0776 16.9911 85.9016 17.1671 85.9016 17.5191V27.7591ZM87.4056 21.0711C87.4056 19.0071 88.5256 18.1591 89.7416 18.1591C91.0856 18.1591 92.0296 19.2951 92.0296 21.0551C92.0296 22.8951 90.9736 23.9351 89.6936 23.9351C88.2056 23.9351 87.4056 22.5111 87.4056 21.0711ZM95.2584 22.1751C95.2584 24.3191 96.1864 25.2791 98.0104 25.2791C99.5944 25.2791 100.666 24.1751 101.018 23.3751H101.05C101.05 23.3751 101.002 23.5991 101.002 23.8391V24.5591C101.002 24.9111 101.178 25.0871 101.53 25.0871H101.978C102.314 25.0871 102.506 24.9111 102.506 24.5591V17.5191C102.506 17.1671 102.314 16.9911 101.978 16.9911H101.482C101.13 16.9911 100.954 17.1671 100.954 17.5191V20.7831C100.954 22.3831 99.9784 23.8391 98.3144 23.8391C97.0344 23.8391 96.7944 22.9431 96.7944 21.8231V17.5191C96.7944 17.1671 96.6184 16.9911 96.2824 16.9911H95.7864C95.4344 16.9911 95.2584 17.1671 95.2584 17.5191V22.1751ZM104.761 24.5591C104.761 24.9111 104.937 25.0871 105.289 25.0871H105.689C106.025 25.0871 106.217 24.9111 106.217 24.6231V24.2231C106.217 23.9351 106.169 23.7431 106.169 23.7431H106.201C106.201 23.7431 106.889 25.2791 108.793 25.2791C110.905 25.2791 112.457 23.6151 112.457 21.0231C112.457 18.5271 111.065 16.7991 108.921 16.7991C107.001 16.7991 106.281 18.2871 106.281 18.2871H106.249C106.249 18.2871 106.297 17.9991 106.297 17.5991V14.3191C106.297 13.9671 106.121 13.7911 105.785 13.7911H105.289C104.937 13.7911 104.761 13.9671 104.761 14.3191V24.5591ZM106.265 21.0391C106.265 19.0231 107.385 18.1591 108.601 18.1591C109.945 18.1591 110.889 19.2951 110.889 21.0551C110.889 22.8951 109.833 23.9351 108.537 23.9351C107.017 23.9351 106.265 22.5271 106.265 21.0391ZM114.214 22.8791C114.214 24.9111 115.51 25.1511 116.374 25.1511C116.774 25.1511 116.918 24.9431 116.918 24.6071V24.2231C116.918 23.9191 116.742 23.7911 116.502 23.7591C116.166 23.7271 115.766 23.5991 115.766 22.6871V14.3191C115.766 13.9671 115.574 13.7911 115.238 13.7911H114.742C114.39 13.7911 114.214 13.9671 114.214 14.3191V22.8791ZM118.913 15.3751H119.457C119.793 15.3751 119.985 15.1831 119.985 14.8471V14.3191C119.985 13.9671 119.793 13.7911 119.457 13.7911H118.913C118.561 13.7911 118.385 13.9671 118.385 14.3191V14.8471C118.385 15.1831 118.561 15.3751 118.913 15.3751ZM118.401 24.5591C118.401 24.9111 118.593 25.0871 118.929 25.0871H119.425C119.777 25.0871 119.953 24.9111 119.953 24.5591V17.5191C119.953 17.1671 119.777 16.9911 119.425 16.9911H118.929C118.593 16.9911 118.401 17.1671 118.401 17.5191V24.5591ZM121.878 24.3991C122.326 24.7351 123.254 25.2791 124.598 25.2791C126.342 25.2791 127.51 24.2711 127.51 22.8951C127.51 20.1431 123.334 20.7191 123.334 19.1031C123.334 18.4151 123.926 18.0791 124.694 18.0791C125.462 18.0791 126.006 18.3511 126.342 18.5431C126.646 18.6871 126.886 18.6551 127.046 18.3671L127.19 18.1271C127.35 17.8391 127.302 17.5671 127.014 17.4231C126.63 17.1831 125.894 16.7991 124.774 16.7991C123.19 16.7991 121.846 17.5991 121.846 19.1351C121.846 21.8711 126.022 21.3431 126.022 22.9271C126.022 23.6151 125.446 23.9991 124.646 23.9991C123.702 23.9991 123.03 23.5831 122.662 23.3431C122.342 23.1671 122.134 23.1831 121.926 23.4551L121.766 23.6791C121.59 23.9511 121.606 24.2231 121.878 24.3991ZM129.245 24.5591C129.245 24.9111 129.421 25.0871 129.773 25.0871H130.269C130.605 25.0871 130.781 24.9111 130.781 24.5591V21.2471C130.781 19.5031 131.933 18.2231 133.485 18.2231C134.781 18.2231 135.021 19.1191 135.021 20.2551V24.5591C135.021 24.9111 135.197 25.0871 135.549 25.0871H136.045C136.381 25.0871 136.573 24.9111 136.573 24.5591V19.9031C136.573 17.8391 135.693 16.7991 133.789 16.7991C132.173 16.7991 131.117 17.8711 130.765 18.6551H130.733C130.733 18.6551 130.781 18.3671 130.781 17.9831V14.3191C130.781 13.9671 130.605 13.7911 130.269 13.7911H129.773C129.421 13.7911 129.245 13.9671 129.245 14.3191V24.5591Z" fill="black"/>
<rect x="0.5" y="0.587067" width="161" height="39" rx="3.5" stroke="#7B64FF"/>
<defs>
<clipPath id="clip0_1234_4669">
<rect width="24" height="24" fill="white" transform="translate(24 8.08707)"/>
</clipPath>
</defs>
</svg>
