<svg width="182" height="125" viewBox="0 0 182 125" fill="none" xmlns="http://www.w3.org/2000/svg">
<path d="M181.5 6.22519H0.5V4.12925C0.501704 3.03414 0.970986 1.98439 1.80489 1.21027C2.6388 0.436158 3.76923 0.000904076 4.94819 0H177.052C178.231 0.000898804 179.361 0.436149 180.195 1.21026C181.029 1.98438 181.498 3.03414 181.5 4.12925V6.22519Z" fill="#7B64FF"/>
<path d="M160.801 4.87613C161.518 4.87613 162.099 4.33613 162.099 3.67C162.099 3.00387 161.518 2.46387 160.801 2.46387C160.084 2.46387 159.502 3.00387 159.502 3.67C159.502 4.33613 160.084 4.87613 160.801 4.87613Z" fill="white"/>
<path d="M165.73 4.87613C166.447 4.87613 167.028 4.33613 167.028 3.67C167.028 3.00387 166.447 2.46387 165.73 2.46387C165.013 2.46387 164.431 3.00387 164.431 3.67C164.431 4.33613 165.013 4.87613 165.73 4.87613Z" fill="white"/>
<path d="M170.658 4.87613C171.375 4.87613 171.957 4.33613 171.957 3.67C171.957 3.00387 171.375 2.46387 170.658 2.46387C169.941 2.46387 169.36 3.00387 169.36 3.67C169.36 4.33613 169.941 4.87613 170.658 4.87613Z" fill="white"/>
<path d="M171.009 124.477H9.78607C7.4227 124.477 5.5 122.451 5.5 119.96V15.4335C5.5 13.5866 6.92477 12.084 8.67607 12.084H172.067C173.847 12.084 175.296 13.6114 175.296 15.4887V119.96C175.296 122.451 173.373 124.477 171.009 124.477Z" fill="white"/>
<path d="M171.009 123.977H9.78607C7.72319 123.977 6 122.199 6 119.96V15.4335C6 13.8374 7.22564 12.584 8.67607 12.584H172.067C173.546 12.584 174.796 13.8622 174.796 15.4887V119.96C174.796 122.199 173.072 123.977 171.009 123.977Z" stroke="black" stroke-opacity="0.1"/>
<path d="M156.949 21.6631H34.2094C33.0623 21.6646 31.9626 22.1781 31.1515 23.0908C30.3405 24.0035 29.8842 25.2409 29.8828 26.5317V41.3943C29.8842 42.6851 30.3405 43.9225 31.1515 44.8352C31.9626 45.7479 33.0623 46.2614 34.2094 46.2629H156.949C158.097 46.2614 159.196 45.7479 160.007 44.8352C160.818 43.9225 161.275 42.6851 161.276 41.3943V26.5317C161.275 25.2409 160.818 24.0035 160.007 23.0908C159.196 22.1781 158.097 21.6646 156.949 21.6631ZM160.821 41.3943C160.819 42.5491 160.411 43.6561 159.685 44.4726C158.959 45.2892 157.976 45.7487 156.949 45.7504H34.2094C33.1832 45.7487 32.1994 45.2892 31.4738 44.4726C30.7481 43.6561 30.3398 42.5491 30.3383 41.3943V26.5317C30.3398 25.3769 30.7481 24.2699 31.4738 23.4534C32.1994 22.6368 33.1832 22.1773 34.2094 22.1756H156.949C157.976 22.1773 158.959 22.6368 159.685 23.4534C160.411 24.2699 160.819 25.3769 160.821 26.5317V41.3943Z" fill="#3F3D56"/>
<path d="M156.949 81.3671H34.2094C33.0623 81.3656 31.9626 80.8522 31.1515 79.9394C30.3405 79.0267 29.8842 77.7893 29.8828 76.4985V61.6362C29.8842 60.3454 30.3405 59.108 31.1515 58.1953C31.9626 57.2826 33.0623 56.7691 34.2094 56.7676H156.949C158.097 56.7691 159.196 57.2826 160.007 58.1953C160.818 59.108 161.275 60.3454 161.276 61.6362V76.4985C161.275 77.7893 160.818 79.0267 160.007 79.9394C159.196 80.8522 158.097 81.3656 156.949 81.3671ZM34.2094 57.2801C33.1831 57.2814 32.1991 57.7408 31.4734 58.5574C30.7477 59.3741 30.3395 60.4813 30.3383 61.6362V76.4985C30.3393 77.6536 30.7474 78.761 31.4731 79.5778C32.1989 80.3947 33.1829 80.8541 34.2094 80.8555H156.949C157.976 80.8542 158.96 80.3949 159.686 79.5783C160.411 78.7616 160.82 77.6544 160.821 76.4994V61.6362C160.82 60.4813 160.411 59.3741 159.686 58.5574C158.96 57.7408 157.976 57.2814 156.95 57.2801H34.2094Z" fill="#CCCCCC"/>
<path d="M156.949 116.472H34.2094C33.0623 116.47 31.9626 115.957 31.1515 115.044C30.3405 114.131 29.8842 112.894 29.8828 111.603V96.7407C29.8842 95.4499 30.3405 94.2125 31.1515 93.2998C31.9626 92.387 33.0623 91.8736 34.2094 91.8721H156.949C158.097 91.8736 159.196 92.387 160.007 93.2998C160.818 94.2125 161.275 95.4499 161.276 96.7407V111.603C161.275 112.894 160.818 114.131 160.007 115.044C159.196 115.957 158.097 116.47 156.949 116.472ZM34.2094 92.3834C33.1831 92.3848 32.1991 92.8441 31.4734 93.6608C30.7477 94.4774 30.3395 95.5846 30.3383 96.7395V111.602C30.3394 112.757 30.7476 113.864 31.4733 114.681C32.199 115.497 33.183 115.957 34.2094 115.958H156.949C157.976 115.957 158.96 115.498 159.686 114.681C160.411 113.864 160.82 112.757 160.821 111.602V96.7407C160.82 95.5855 160.412 94.478 159.686 93.6611C158.96 92.8442 157.976 92.3847 156.949 92.3834H34.2094Z" fill="#CCCCCC"/>
<path d="M50.7956 42.4371C49.3063 42.4371 47.8503 41.9401 46.6119 41.009C45.3735 40.0779 44.4083 38.7544 43.8384 37.206C43.2684 35.6576 43.1193 33.9538 43.4098 32.31C43.7004 30.6662 44.4176 29.1563 45.4708 27.9712C46.5239 26.7861 47.8657 25.9791 49.3265 25.6521C50.7873 25.3251 52.3014 25.4929 53.6774 26.1343C55.0535 26.7757 56.2296 27.8618 57.057 29.2553C57.8845 30.6489 58.3262 32.2872 58.3262 33.9632C58.3262 36.2106 57.5328 38.366 56.1205 39.9552C54.7083 41.5443 52.7929 42.4371 50.7956 42.4371Z" fill="#7B64FF"/>
<path d="M145.83 40.8813H65.4458C64.9627 40.8813 64.4993 40.6653 64.1576 40.2809C63.816 39.8964 63.624 39.375 63.624 38.8313C63.624 38.2876 63.816 37.7661 64.1576 37.3817C64.4993 36.9972 64.9627 36.7812 65.4458 36.7812H145.83C146.313 36.7812 146.776 36.9972 147.118 37.3817C147.46 37.7661 147.651 38.2876 147.651 38.8313C147.651 39.375 147.46 39.8964 147.118 40.2809C146.776 40.6653 146.313 40.8813 145.83 40.8813Z" fill="#CCCCCC"/>
<path d="M119.643 32.1704H65.4458C64.9627 32.1704 64.4993 31.9544 64.1576 31.5699C63.816 31.1855 63.624 30.6641 63.624 30.1203C63.624 29.5766 63.816 29.0552 64.1576 28.6708C64.4993 28.2863 64.9627 28.0703 65.4458 28.0703H119.643C120.126 28.0703 120.589 28.2863 120.931 28.6708C121.272 29.0552 121.464 29.5766 121.464 30.1203C121.464 30.6641 121.272 31.1855 120.931 31.5699C120.589 31.9544 120.126 32.1704 119.643 32.1704Z" fill="#CCCCCC"/>
<path d="M50.7956 77.5416C49.3063 77.5416 47.8503 77.0446 46.6119 76.1135C45.3735 75.1824 44.4083 73.8589 43.8384 72.3105C43.2684 70.7621 43.1193 69.0583 43.4098 67.4145C43.7004 65.7707 44.4176 64.2608 45.4708 63.0757C46.5239 61.8906 47.8657 61.0835 49.3265 60.7566C50.7873 60.4296 52.3014 60.5974 53.6774 61.2388C55.0535 61.8802 56.2296 62.9663 57.057 64.3598C57.8845 65.7534 58.3262 67.3917 58.3262 69.0677C58.3262 71.3151 57.5328 73.4705 56.1205 75.0596C54.7083 76.6488 52.7929 77.5416 50.7956 77.5416Z" fill="#E6E6E6"/>
<path d="M145.83 75.9868H65.4458C64.9627 75.9868 64.4993 75.7708 64.1576 75.3864C63.816 75.0019 63.624 74.4805 63.624 73.9368C63.624 73.3931 63.816 72.8716 64.1576 72.4872C64.4993 72.1027 64.9627 71.8867 65.4458 71.8867H145.83C146.313 71.8867 146.776 72.1027 147.118 72.4872C147.46 72.8716 147.651 73.3931 147.651 73.9368C147.651 74.4805 147.46 75.0019 147.118 75.3864C146.776 75.7708 146.313 75.9868 145.83 75.9868Z" fill="#E6E6E6"/>
<path d="M119.643 67.2749H65.4458C64.9627 67.2749 64.4993 67.0589 64.1576 66.6744C63.816 66.29 63.624 65.7685 63.624 65.2248C63.624 64.6811 63.816 64.1597 64.1576 63.7752C64.4993 63.3908 64.9627 63.1748 65.4458 63.1748H119.643C120.126 63.1748 120.589 63.3908 120.931 63.7752C121.272 64.1597 121.464 64.6811 121.464 65.2248C121.464 65.7685 121.272 66.29 120.931 66.6744C120.589 67.0589 120.126 67.2749 119.643 67.2749Z" fill="#E6E6E6"/>
<path d="M50.7956 112.646C49.3063 112.646 47.8503 112.149 46.6119 111.218C45.3735 110.287 44.4083 108.963 43.8384 107.415C43.2684 105.867 43.1193 104.163 43.4098 102.519C43.7004 100.875 44.4176 99.3653 45.4708 98.1802C46.5239 96.9951 47.8657 96.188 49.3265 95.8611C50.7873 95.5341 52.3014 95.7019 53.6774 96.3433C55.0535 96.9847 56.2296 98.0708 57.057 99.4643C57.8845 100.858 58.3262 102.496 58.3262 104.172C58.3262 106.42 57.5328 108.575 56.1205 110.164C54.7083 111.753 52.7929 112.646 50.7956 112.646Z" fill="#E6E6E6"/>
<path d="M145.83 111.091H65.4458C64.9627 111.091 64.4993 110.875 64.1576 110.491C63.816 110.106 63.624 109.585 63.624 109.041C63.624 108.498 63.816 107.976 64.1576 107.592C64.4993 107.207 64.9627 106.991 65.4458 106.991H145.83C146.313 106.991 146.776 107.207 147.118 107.592C147.46 107.976 147.651 108.498 147.651 109.041C147.651 109.585 147.46 110.106 147.118 110.491C146.776 110.875 146.313 111.091 145.83 111.091Z" fill="#E6E6E6"/>
<path d="M119.643 102.379H65.4458C64.9627 102.379 64.4993 102.163 64.1576 101.779C63.816 101.394 63.624 100.873 63.624 100.329C63.624 99.7856 63.816 99.2642 64.1576 98.8797C64.4993 98.4953 64.9627 98.2793 65.4458 98.2793H119.643C120.126 98.2793 120.589 98.4953 120.931 98.8797C121.272 99.2642 121.464 99.7856 121.464 100.329C121.464 100.873 121.272 101.394 120.931 101.779C120.589 102.163 120.126 102.379 119.643 102.379Z" fill="#E6E6E6"/>
<path d="M50.41 36.9408C50.223 36.9413 50.0409 36.8732 49.8912 36.747L49.8819 36.7391L47.93 35.059C47.8396 34.981 47.7637 34.8838 47.7067 34.7728C47.6497 34.6618 47.6127 34.5393 47.5978 34.4122C47.5829 34.2851 47.5904 34.156 47.6198 34.0322C47.6492 33.9083 47.7 33.7923 47.7693 33.6905C47.8386 33.5888 47.9251 33.5034 48.0237 33.4393C48.1223 33.3751 48.2312 33.3335 48.3441 33.3167C48.457 33.2999 48.5718 33.3083 48.6819 33.3414C48.7919 33.3745 48.8951 33.4317 48.9855 33.5097L50.2497 34.6008L53.2371 30.2149C53.377 30.0097 53.5836 29.8753 53.8116 29.8414C54.0395 29.8075 54.2701 29.8769 54.4525 30.0343L54.4341 30.0634L54.4531 30.0343C54.6353 30.192 54.7545 30.4245 54.7846 30.681C54.8146 30.9375 54.7531 31.1969 54.6134 31.4023L51.0995 36.5587C51.018 36.6773 50.9135 36.7732 50.7938 36.839C50.6742 36.9048 50.5427 36.9387 50.4095 36.9382L50.41 36.9408Z" fill="white"/>
</svg>
