<svg width="42" height="59" viewBox="0 0 42 59" fill="none" xmlns="http://www.w3.org/2000/svg">
<g filter="url(#filter0_d_0_241)">
<path d="M24.1721 43.6956H22.9682V44.8995H24.1721V43.6956ZM18.0153 8.27929L17.2018 7.39185L17.1878 7.4047L17.1742 7.41799L18.0153 8.27929ZM10.5099 15.6088L9.66874 14.7475L9.66363 14.7525L9.65858 14.7575L10.5099 15.6088ZM10.5099 18.3647L9.65858 19.216H9.65858L10.5099 18.3647ZM11.3308 19.1856L12.2368 18.3929L12.2104 18.3627L12.182 18.3344L11.3308 19.1856ZM14.028 19.2443L14.8514 20.1225L14.8606 20.1139L14.8697 20.1051L14.028 19.2443ZM16.6667 16.6643L17.5084 17.5251L17.5179 17.5155L16.6667 16.6643ZM18.4844 14.4361V13.2322H17.7803L17.4351 13.8459L18.4844 14.4361ZM18.6017 14.4361L19.8042 14.4934L19.8642 13.2322H18.6017V14.4361ZM18.543 43.6956V44.8995H19.7469V43.6956H18.543ZM8.19188 46.8033C8.19188 47.6339 8.40034 48.4779 9.02824 49.1058C9.65614 49.7337 10.5002 49.9422 11.3308 49.9422V47.5344C10.8713 47.5344 10.7479 47.4204 10.7308 47.4033C10.7137 47.3862 10.5997 47.2627 10.5997 46.8033H8.19188ZM11.3308 49.9422H31.3257V47.5344H11.3308V49.9422ZM31.3257 49.9422C32.1406 49.9422 32.971 49.727 33.5966 49.1153C34.227 48.4989 34.4646 47.6611 34.4646 46.8033H32.0568C32.0568 47.2354 31.9426 47.3652 31.9133 47.3937C31.8793 47.427 31.7421 47.5344 31.3257 47.5344V49.9422ZM34.4646 46.8033V45.6306H32.0568V46.8033H34.4646ZM34.4646 45.6306C34.4646 44.7727 34.227 43.9349 33.5966 43.3185C32.971 42.7068 32.1406 42.4917 31.3257 42.4917V44.8995C31.7421 44.8995 31.8793 45.0068 31.9133 45.0401C31.9426 45.0687 32.0568 45.1984 32.0568 45.6306H34.4646ZM31.3257 42.4917H24.1721V44.8995H31.3257V42.4917ZM25.376 43.6956V9.27611H22.9682V43.6956H25.376ZM25.376 9.27611C25.376 8.44554 25.1675 7.60149 24.5396 6.97359C23.9117 6.34569 23.0677 6.13723 22.2371 6.13723V8.545C22.6965 8.545 22.82 8.65904 22.8371 8.67614C22.8542 8.69324 22.9682 8.81668 22.9682 9.27611H25.376ZM22.2371 6.13723H20.3607V8.545H22.2371V6.13723ZM20.3607 6.13723C19.0996 6.13723 18.1109 6.55852 17.2018 7.39185L18.8288 9.16674C19.327 8.71008 19.7455 8.545 20.3607 8.545V6.13723ZM17.1742 7.41799L9.66874 14.7475L11.351 16.4701L18.8564 9.1406L17.1742 7.41799ZM9.65858 14.7575C9.08771 15.3284 8.63848 16.0637 8.62448 16.9457C8.61033 17.8373 9.04477 18.6022 9.65858 19.216L11.3611 17.5135C11.0368 17.1891 11.0314 17.0157 11.0319 16.9839C11.0326 16.9423 11.0525 16.7688 11.3611 16.4601L9.65858 14.7575ZM9.65858 19.216L10.4795 20.0369L12.182 18.3344L11.3611 17.5135L9.65858 19.216ZM10.4247 19.9784C10.9818 20.6151 11.719 21.0859 12.616 21.1003C13.4931 21.1145 14.2497 20.6866 14.8514 20.1225L13.2046 18.366C12.8681 18.6815 12.6866 18.6934 12.6548 18.6929C12.6429 18.6927 12.5006 18.6944 12.2368 18.3929L10.4247 19.9784ZM14.8697 20.1051L17.5083 17.5251L15.825 15.8035L13.1864 18.3835L14.8697 20.1051ZM17.5179 17.5155C18.2081 16.8254 18.7009 16.2228 19.0267 15.783C19.1895 15.5631 19.3107 15.3839 19.3939 15.2547C19.4355 15.1901 19.4676 15.138 19.4908 15.0996C19.5023 15.0803 19.5117 15.0645 19.5188 15.0523C19.5223 15.0461 19.5254 15.0409 19.5278 15.0366C19.5291 15.0344 19.5302 15.0325 19.5311 15.0308C19.5316 15.0299 19.5321 15.0291 19.5325 15.0284C19.5327 15.028 19.5329 15.0276 19.5331 15.0273C19.5332 15.0271 19.5333 15.0269 19.5334 15.0268C19.5335 15.0266 19.5337 15.0263 18.4844 14.4361C17.4351 13.8459 17.4352 13.8457 17.4354 13.8454C17.4354 13.8454 17.4355 13.8451 17.4356 13.845C17.4358 13.8447 17.4359 13.8444 17.4361 13.8442C17.4364 13.8437 17.4366 13.8432 17.4368 13.8428C17.4373 13.842 17.4376 13.8414 17.4378 13.8411C17.4382 13.8404 17.4381 13.8406 17.4375 13.8416C17.4363 13.8438 17.433 13.8494 17.4276 13.8583C17.4168 13.8762 17.3977 13.9075 17.3696 13.951C17.3136 14.038 17.2222 14.1739 17.0919 14.3499C16.8313 14.7017 16.4152 15.2132 15.8154 15.813L17.5179 17.5155ZM18.4844 15.64H18.6017V13.2322H18.4844V15.64ZM18.6017 14.4361C17.3991 14.3788 17.3991 14.3789 17.3991 14.3789C17.3991 14.3789 17.3991 14.379 17.3991 14.379C17.3991 14.3791 17.3991 14.3792 17.3991 14.3793C17.3991 14.3795 17.3991 14.3798 17.3991 14.3802C17.399 14.381 17.399 14.382 17.3989 14.3834C17.3988 14.386 17.3986 14.3899 17.3984 14.3949C17.3979 14.4049 17.3973 14.4194 17.3964 14.4382C17.3948 14.4758 17.3924 14.5305 17.3896 14.5999C17.384 14.7386 17.3765 14.9366 17.369 15.1754C17.3541 15.652 17.3391 16.2957 17.3391 16.9575H19.7469C19.7469 16.3292 19.7612 15.7123 19.7756 15.2506C19.7828 15.0203 19.79 14.8299 19.7954 14.6974C19.7981 14.6312 19.8003 14.5796 19.8018 14.5448C19.8026 14.5274 19.8032 14.5142 19.8036 14.5056C19.8038 14.5012 19.804 14.498 19.8041 14.496C19.8041 14.495 19.8041 14.4942 19.8042 14.4938C19.8042 14.4936 19.8042 14.4934 19.8042 14.4934C19.8042 14.4933 19.8042 14.4933 19.8042 14.4933C19.8042 14.4933 19.8042 14.4933 19.8042 14.4933C19.8042 14.4933 19.8042 14.4934 18.6017 14.4361ZM17.3391 16.9575V43.6956H19.7469V16.9575H17.3391ZM18.543 42.4917H11.3308V44.8995H18.543V42.4917ZM11.3308 42.4917C10.5002 42.4917 9.65614 42.7001 9.02824 43.328C8.40034 43.9559 8.19188 44.8 8.19188 45.6306H10.5997C10.5997 45.1711 10.7137 45.0477 10.7308 45.0306C10.7479 45.0135 10.8713 44.8995 11.3308 44.8995V42.4917ZM8.19188 45.6306V46.8033H10.5997V45.6306H8.19188Z" fill="url(#paint0_linear_0_241)"/>
</g>
<defs>
<filter id="filter0_d_0_241" x="0.968812" y="0.11752" width="40.7191" height="58.2518" filterUnits="userSpaceOnUse" color-interpolation-filters="sRGB">
<feFlood flood-opacity="0" result="BackgroundImageFix"/>
<feColorMatrix in="SourceAlpha" type="matrix" values="0 0 0 0 0 0 0 0 0 0 0 0 0 0 0 0 0 0 127 0" result="hardAlpha"/>
<feOffset dy="1.20388"/>
<feGaussianBlur stdDeviation="4.21359"/>
<feComposite in2="hardAlpha" operator="out"/>
<feColorMatrix type="matrix" values="0 0 0 0 0.423529 0 0 0 0 0.388235 0 0 0 0 1 0 0 0 1 0"/>
<feBlend mode="normal" in2="BackgroundImageFix" result="effect1_dropShadow_0_241"/>
<feBlend mode="normal" in="SourceGraphic" in2="effect1_dropShadow_0_241" result="shape"/>
</filter>
<linearGradient id="paint0_linear_0_241" x1="20.5" y1="-0.261719" x2="20.5" y2="58.7383" gradientUnits="userSpaceOnUse">
<stop stop-color="#0606F4"/>
<stop offset="1" stop-color="#7B64FF"/>
</linearGradient>
</defs>
</svg>
