<svg width="182" height="129" viewBox="0 0 182 129" fill="none" xmlns="http://www.w3.org/2000/svg">
<path d="M7.43652 127.01V13.9953C7.43706 13.5036 7.63264 13.0322 7.98035 12.6845C8.32806 12.3367 8.79951 12.1412 9.29124 12.1406H171.396C171.888 12.1412 172.359 12.3367 172.707 12.6845C173.055 13.0322 173.25 13.5036 173.251 13.9953V127.01C173.25 127.501 173.055 127.973 172.707 128.321C172.359 128.668 171.888 128.864 171.396 128.864H9.29124C8.79951 128.864 8.32806 128.668 7.98035 128.321C7.63264 127.973 7.43706 127.501 7.43652 127.01ZM9.29124 12.8825C8.9962 12.8829 8.71333 13.0002 8.50471 13.2088C8.29608 13.4175 8.17873 13.7003 8.17841 13.9954V127.01C8.17873 127.305 8.29608 127.588 8.50471 127.796C8.71333 128.005 8.9962 128.122 9.29124 128.122H171.396C171.691 128.122 171.974 128.005 172.183 127.796C172.391 127.588 172.509 127.305 172.509 127.01V13.9953C172.509 13.7003 172.391 13.4174 172.183 13.2088C171.974 13.0002 171.691 12.8828 171.396 12.8825L9.29124 12.8825Z" fill="#E6E6E6"/>
<path d="M76.24 23.6399C76.6258 23.6462 76.9937 23.8039 77.2643 24.0789C77.535 24.354 77.6866 24.7244 77.6866 25.1103C77.6866 25.4962 77.535 25.8666 77.2643 26.1416C76.9937 26.4167 76.6258 26.5744 76.24 26.5807H39.3717C39.1786 26.5839 38.9868 26.549 38.8072 26.478C38.6276 26.4071 38.4637 26.3014 38.3249 26.1671C38.1861 26.0328 38.0751 25.8725 37.9983 25.6953C37.9215 25.5181 37.8803 25.3275 37.8772 25.1344C37.874 24.9413 37.9089 24.7495 37.9798 24.5699C38.0508 24.3903 38.1565 24.2264 38.2908 24.0876C38.4251 23.9488 38.5854 23.8378 38.7626 23.761C38.9398 23.6842 39.1303 23.643 39.3234 23.6399C39.3395 23.6396 39.3556 23.6396 39.3717 23.6399H76.24Z" fill="#E4E4E4"/>
<path d="M31.0108 23.2303C31.0377 23.2572 31.059 23.2891 31.0736 23.3242C31.0881 23.3593 31.0956 23.3969 31.0956 23.4349C31.0956 23.4729 31.0881 23.5105 31.0736 23.5456C31.059 23.5807 31.0377 23.6126 31.0109 23.6395L31.0108 23.6395L29.7687 24.8816H32.8317C32.9083 24.8817 32.9817 24.9121 33.0359 24.9662C33.0902 25.0203 33.1207 25.0937 33.1209 25.1703C33.1211 25.2469 33.0909 25.3205 33.0369 25.3748C32.9829 25.4292 32.9096 25.4599 32.833 25.4603H29.7687L31.0108 26.7025C31.0377 26.7293 31.0591 26.7612 31.0736 26.7963C31.0882 26.8314 31.0957 26.869 31.0958 26.907C31.0958 26.945 31.0883 26.9826 31.0738 27.0177C31.0593 27.0529 31.038 27.0848 31.0112 27.1117C30.9844 27.1386 30.9525 27.1599 30.9174 27.1745C30.8823 27.1891 30.8447 27.1966 30.8067 27.1966C30.7687 27.1966 30.731 27.1892 30.6959 27.1747C30.6608 27.1602 30.6289 27.1389 30.602 27.112L30.6016 27.1117L28.8655 25.3756C28.8387 25.3487 28.8173 25.3168 28.8028 25.2817C28.7882 25.2466 28.7808 25.209 28.7808 25.171C28.7808 25.133 28.7882 25.0953 28.8028 25.0602C28.8173 25.0251 28.8387 24.9932 28.8655 24.9663L30.6016 23.2303C30.6559 23.176 30.7295 23.1455 30.8062 23.1455C30.883 23.1455 30.9565 23.176 31.0108 23.2303L31.0108 23.2303Z" fill="#E6E6E6"/>
<path d="M84.6161 23.2303C84.5892 23.2572 84.5679 23.2891 84.5534 23.3242C84.5388 23.3593 84.5313 23.3969 84.5313 23.4349C84.5313 23.4729 84.5388 23.5105 84.5534 23.5456C84.5679 23.5807 84.5892 23.6126 84.6161 23.6395V23.6395L85.8582 24.8816H82.7952C82.7572 24.8814 82.7194 24.8888 82.6842 24.9032C82.649 24.9176 82.6169 24.9388 82.5899 24.9656C82.5629 24.9924 82.5414 25.0243 82.5268 25.0594C82.5121 25.0946 82.5045 25.1322 82.5044 25.1703C82.5043 25.2084 82.5117 25.2461 82.5262 25.2813C82.5408 25.3165 82.5621 25.3484 82.589 25.3754C82.6159 25.4023 82.6478 25.4237 82.683 25.4383C82.7181 25.4529 82.7558 25.4603 82.7939 25.4603H85.8582L84.6161 26.7025C84.5618 26.7567 84.5312 26.8303 84.5311 26.907C84.5311 26.9837 84.5615 27.0574 84.6157 27.1117C84.6699 27.166 84.7435 27.1965 84.8202 27.1966C84.897 27.1967 84.9706 27.1663 85.0249 27.112L85.0253 27.1117L86.7614 25.3756C86.7883 25.3487 86.8096 25.3168 86.8241 25.2817C86.8387 25.2466 86.8461 25.209 86.8461 25.171C86.8461 25.133 86.8387 25.0953 86.8241 25.0602C86.8096 25.0251 86.7883 24.9932 86.7614 24.9663L85.0253 23.2303C84.971 23.176 84.8974 23.1455 84.8207 23.1455C84.744 23.1455 84.6704 23.176 84.6161 23.2303L84.6161 23.2303Z" fill="#E6E6E6"/>
<path d="M76.24 110.137C76.6258 110.143 76.9937 110.301 77.2643 110.576C77.535 110.851 77.6866 111.221 77.6866 111.607C77.6866 111.993 77.535 112.364 77.2643 112.639C76.9937 112.914 76.6258 113.071 76.24 113.078H39.3717C39.1786 113.081 38.9868 113.046 38.8072 112.975C38.6276 112.904 38.4637 112.798 38.3249 112.664C38.1861 112.53 38.0751 112.37 37.9983 112.192C37.9215 112.015 37.8803 111.825 37.8772 111.631C37.874 111.438 37.9089 111.247 37.9798 111.067C38.0508 110.887 38.1565 110.723 38.2908 110.585C38.4251 110.446 38.5854 110.335 38.7626 110.258C38.9398 110.181 39.1303 110.14 39.3234 110.137C39.3395 110.137 39.3556 110.137 39.3717 110.137H76.24Z" fill="#E4E4E4"/>
<path d="M156.314 54.3098C156.7 54.3161 157.068 54.4738 157.339 54.7488C157.609 55.0239 157.761 55.3943 157.761 55.7802C157.761 56.1661 157.609 56.5365 157.339 56.8116C157.068 57.0866 156.7 57.2443 156.314 57.2506H119.446C119.253 57.2538 119.061 57.2189 118.881 57.1479C118.702 57.077 118.538 56.9713 118.399 56.837C118.26 56.7027 118.149 56.5424 118.073 56.3652C117.996 56.188 117.955 55.9974 117.951 55.8043C117.948 55.6112 117.983 55.4194 118.054 55.2398C118.125 55.0602 118.231 54.8963 118.365 54.7575C118.499 54.6187 118.66 54.5078 118.837 54.4309C119.014 54.3541 119.205 54.3129 119.398 54.3098C119.414 54.3095 119.43 54.3095 119.446 54.3098H156.314Z" fill="#E4E4E4"/>
<path d="M156.314 64.7043C156.7 64.7106 157.068 64.8683 157.339 65.1434C157.609 65.4185 157.761 65.7889 157.761 66.1747C157.761 66.5606 157.609 66.931 157.339 67.2061C157.068 67.4812 156.7 67.6389 156.314 67.6452H119.446C119.253 67.6483 119.061 67.6134 118.881 67.5425C118.702 67.4715 118.538 67.3659 118.399 67.2316C118.26 67.0973 118.149 66.9369 118.073 66.7597C117.996 66.5825 117.955 66.392 117.951 66.1989C117.948 66.0058 117.983 65.8139 118.054 65.6343C118.125 65.4547 118.231 65.2908 118.365 65.152C118.499 65.0133 118.66 64.9023 118.837 64.8255C119.014 64.7486 119.205 64.7075 119.398 64.7043C119.414 64.704 119.43 64.704 119.446 64.7043H156.314Z" fill="#E4E4E4"/>
<path d="M156.314 75.0988C156.7 75.1051 157.068 75.2628 157.339 75.5379C157.609 75.813 157.761 76.1834 157.761 76.5693C157.761 76.9551 157.609 77.3255 157.339 77.6006C157.068 77.8757 156.7 78.0334 156.314 78.0397H119.446C119.056 78.0461 118.679 77.8973 118.399 77.6261C118.119 77.3549 117.958 76.9834 117.951 76.5934C117.945 76.2034 118.094 75.8269 118.365 75.5466C118.636 75.2663 119.008 75.1052 119.398 75.0988C119.414 75.0986 119.43 75.0986 119.446 75.0988H156.314Z" fill="#E4E4E4"/>
<path d="M132.021 91.1674C132.021 90.1717 132.316 89.1983 132.869 88.3703C133.423 87.5424 134.209 86.8971 135.129 86.5161C136.049 86.135 137.061 86.0353 138.038 86.2296C139.014 86.4238 139.911 86.9033 140.616 87.6074C141.32 88.3115 141.799 89.2086 141.993 90.1852C142.188 91.1618 142.088 92.1741 141.707 93.0941C141.326 94.014 140.681 94.8003 139.853 95.3535C139.025 95.9068 138.051 96.202 137.056 96.202C135.72 96.202 134.44 95.6716 133.496 94.7274C132.551 93.7833 132.021 92.5027 132.021 91.1674Z" fill="#7B64FF"/>
<path d="M135.069 90.671H136.559V89.1811C136.559 89.0494 136.611 88.923 136.704 88.8297C136.797 88.7364 136.923 88.6838 137.055 88.6836C137.187 88.6834 137.313 88.7355 137.406 88.8285C137.5 88.9214 137.552 89.0477 137.553 89.1794V90.671H139.042C139.174 90.671 139.3 90.7233 139.394 90.8164C139.487 90.9096 139.539 91.0359 139.539 91.1676C139.539 91.2993 139.487 91.4257 139.394 91.5188C139.3 91.6119 139.174 91.6642 139.042 91.6642H137.553V93.1541C137.553 93.2859 137.5 93.4122 137.407 93.5053C137.314 93.5985 137.188 93.6508 137.056 93.6508C136.924 93.6508 136.798 93.5985 136.705 93.5053C136.612 93.4122 136.559 93.2859 136.559 93.1541V91.6642H135.069C135.004 91.6644 134.94 91.6517 134.879 91.6268C134.819 91.602 134.764 91.5655 134.718 91.5194C134.672 91.4734 134.635 91.4187 134.61 91.3585C134.585 91.2983 134.572 91.2338 134.572 91.1686C134.572 91.1033 134.584 91.0387 134.609 90.9784C134.634 90.9181 134.671 90.8633 134.717 90.8171C134.763 90.7709 134.817 90.7342 134.877 90.7091C134.938 90.6841 135.002 90.6711 135.067 90.671H135.069V90.671Z" fill="white"/>
<path d="M91.1104 41.269L30.6201 90.8369L30.9336 91.2195L91.4239 41.6516L91.1104 41.269Z" fill="#E6E6E6"/>
<path d="M30.9419 41.26L30.6274 41.6416L91.1021 91.4758L91.4166 91.0942L30.9419 41.26Z" fill="#E6E6E6"/>
<path d="M29.7847 90.0393V42.3111C29.7852 41.8522 29.9678 41.4122 30.2923 41.0877C30.6168 40.7632 31.0568 40.5806 31.5157 40.5801H90.3722C90.8312 40.5806 91.2712 40.7631 91.5957 41.0877C91.9202 41.4122 92.1028 41.8522 92.1033 42.3111V90.0393C92.1027 90.4982 91.9202 90.9382 91.5957 91.2627C91.2711 91.5873 90.8312 91.7698 90.3722 91.7703H31.5157C31.0568 91.7698 30.6168 91.5872 30.2923 91.2627C29.9678 90.9382 29.7852 90.4982 29.7847 90.0393ZM31.5157 41.0747C31.1879 41.075 30.8736 41.2054 30.6418 41.4372C30.41 41.669 30.2797 41.9833 30.2793 42.3111V90.0393C30.2796 90.3671 30.41 90.6814 30.6418 90.9132C30.8736 91.145 31.1879 91.2754 31.5157 91.2758H90.3722C90.7 91.2754 91.0143 91.145 91.2461 90.9132C91.4779 90.6814 91.6083 90.3671 91.6087 90.0393V42.3111C91.6083 41.9833 91.4779 41.6691 91.2461 41.4373C91.0143 41.2055 90.7 41.0751 90.3722 41.0747L31.5157 41.0747Z" fill="#3F3D56"/>
<path d="M23.5239 98.6945V50.9664C23.5245 50.5075 23.707 50.0675 24.0315 49.743C24.3561 49.4184 24.7961 49.2359 25.255 49.2354H84.1115C84.5704 49.2359 85.0104 49.4184 85.3349 49.743C85.6594 50.0675 85.842 50.5075 85.8425 50.9664V98.6945C85.842 99.1535 85.6594 99.5935 85.3349 99.918C85.0104 100.243 84.5704 100.425 84.1115 100.426H25.255C24.7961 100.425 24.3561 100.243 24.0316 99.918C23.707 99.5935 23.5245 99.1535 23.5239 98.6945Z" fill="#7B64FF"/>
<path d="M47.9683 88.6787H78.0161C78.0537 88.6792 78.0913 88.6762 78.1284 88.6698L63.9171 64.0539C63.8304 63.9006 63.7045 63.7731 63.5524 63.6843C63.4002 63.5956 63.2272 63.5488 63.0511 63.5488C62.875 63.5488 62.702 63.5956 62.5498 63.6843C62.3977 63.7731 62.2718 63.9006 62.1851 64.0539L52.6475 80.5731L52.1906 81.3635L47.9683 88.6787Z" fill="white"/>
<path opacity="0.2" d="M47.9688 88.6784H58.2275L53.1913 81.3636L52.829 80.8366L52.6477 80.5732L52.1907 81.3636L47.9688 88.6784Z" fill="black"/>
<path d="M31.2378 88.6793H57.2267L52.1905 81.3641L51.8281 80.8372L45.2656 71.3041C45.1495 71.1585 45.0042 71.0389 44.8389 70.9531C44.6736 70.8673 44.4922 70.8172 44.3063 70.8061C44.1204 70.795 43.9343 70.8231 43.7599 70.8886C43.5856 70.9541 43.427 71.0555 43.2945 71.1863C43.2605 71.2235 43.2289 71.2629 43.2 71.3041L31.2378 88.6793Z" fill="white"/>
<path d="M50.8253 69.8841C53.2837 69.8841 55.2767 67.8912 55.2767 65.4328C55.2767 62.9744 53.2837 60.9814 50.8253 60.9814C48.3669 60.9814 46.374 62.9744 46.374 65.4328C46.374 67.8912 48.3669 69.8841 50.8253 69.8841Z" fill="white"/>
<path d="M82.6275 52.6973H77.187V58.1378H82.6275V52.6973Z" fill="#3F3D56"/>
<path d="M181.218 7.17843H0.218262V4.922C0.219966 3.74304 0.689248 2.6129 1.52316 1.77951C2.35706 0.946118 3.48749 0.477536 4.66645 0.476562H176.77C177.949 0.47753 179.079 0.946109 179.913 1.7795C180.747 2.61289 181.217 3.74304 181.218 4.922V7.17843Z" fill="#7B64FF"/>
<path d="M160.519 5.72589C161.236 5.72589 161.818 5.14453 161.818 4.4274C161.818 3.71026 161.236 3.12891 160.519 3.12891C159.802 3.12891 159.221 3.71026 159.221 4.4274C159.221 5.14453 159.802 5.72589 160.519 5.72589Z" fill="white"/>
<path d="M165.448 5.72589C166.165 5.72589 166.746 5.14453 166.746 4.4274C166.746 3.71026 166.165 3.12891 165.448 3.12891C164.731 3.12891 164.149 3.71026 164.149 4.4274C164.149 5.14453 164.731 5.72589 165.448 5.72589Z" fill="white"/>
<path d="M170.377 5.72589C171.094 5.72589 171.675 5.14453 171.675 4.4274C171.675 3.71026 171.094 3.12891 170.377 3.12891C169.659 3.12891 169.078 3.71026 169.078 4.4274C169.078 5.14453 169.659 5.72589 170.377 5.72589Z" fill="white"/>
</svg>
