<svg width="182" height="112" viewBox="0 0 182 112" fill="none" xmlns="http://www.w3.org/2000/svg">
<path d="M171.599 111.49H11.1731C9.06609 111.49 7.4082 109.892 7.4082 107.996V15.5664C7.4082 14.2394 8.57104 13.1045 10.0686 13.1045H172.651C174.177 13.1045 175.364 14.2614 175.364 15.6152V107.996C175.364 109.892 173.706 111.49 171.599 111.49Z" fill="white" stroke="#E5E5E5"/>
<path d="M181.718 7.43918H0.718262V5.18274C0.719966 4.00378 1.18925 2.87364 2.02316 2.04025C2.85706 1.20686 3.98749 0.738278 5.16645 0.737305H177.27C178.449 0.738272 179.579 1.20685 180.413 2.04024C181.247 2.87364 181.717 4.00378 181.718 5.18274V7.43918Z" fill="#7B64FF"/>
<path d="M161.019 5.98761C161.736 5.98761 162.318 5.40625 162.318 4.68912C162.318 3.97198 161.736 3.39062 161.019 3.39062C160.302 3.39062 159.721 3.97198 159.721 4.68912C159.721 5.40625 160.302 5.98761 161.019 5.98761Z" fill="white"/>
<path d="M165.948 5.98761C166.665 5.98761 167.246 5.40625 167.246 4.68912C167.246 3.97198 166.665 3.39062 165.948 3.39062C165.231 3.39062 164.649 3.97198 164.649 4.68912C164.649 5.40625 165.231 5.98761 165.948 5.98761Z" fill="white"/>
<path d="M170.877 5.98761C171.594 5.98761 172.175 5.40625 172.175 4.68912C172.175 3.97198 171.594 3.39062 170.877 3.39062C170.159 3.39062 169.578 3.97198 169.578 4.68912C169.578 5.40625 170.159 5.98761 170.877 5.98761Z" fill="white"/>
<path d="M86.1101 100.064H30.2827C29.0364 100.063 27.8416 99.5673 26.9604 98.6861C26.0791 97.8048 25.5834 96.61 25.582 95.3637V27.9014C25.5831 26.9693 25.9538 26.0757 26.6129 25.4167C27.2719 24.7576 28.1655 24.3868 29.0976 24.3857H87.2391C88.186 24.3868 89.0939 24.7635 89.7635 25.4331C90.4331 26.1027 90.8097 27.0106 90.8108 27.9575V95.3637C90.8094 96.61 90.3137 97.8048 89.4324 98.6861C88.5512 99.5673 87.3564 100.063 86.1101 100.064ZM29.0976 24.923C28.3079 24.9239 27.5509 25.238 26.9925 25.7963C26.4342 26.3547 26.1201 27.1118 26.1193 27.9014V95.3637C26.1205 96.4676 26.5595 97.5258 27.3401 98.3064C28.1206 99.0869 29.1789 99.526 30.2827 99.5272H86.1101C87.214 99.526 88.2722 99.0869 89.0527 98.3064C89.8333 97.5258 90.2723 96.4676 90.2736 95.3637V27.9575C90.2727 27.153 89.9527 26.3817 89.3838 25.8128C88.8149 25.2439 88.0436 24.9239 87.2391 24.923H29.0976Z" fill="#CCCCCC"/>
<path d="M34.5805 95.3638H81.8124C82.9522 95.3638 84.0454 94.911 84.8514 94.105C85.6573 93.299 86.1101 92.2059 86.1101 91.066V33.4364C86.1101 32.2966 85.6573 31.2034 84.8514 30.3975C84.0454 29.5915 82.9522 29.1387 81.8124 29.1387H34.5805C33.4406 29.1387 32.3475 29.5915 31.5415 30.3975C30.7355 31.2034 30.2827 32.2966 30.2827 33.4364V91.066C30.2827 92.2059 30.7355 93.299 31.5415 94.105C32.3475 94.911 33.4406 95.3638 34.5805 95.3638Z" fill="#E6E6E6"/>
<path d="M71.2239 40.8962H45.1688C44.7058 40.8962 44.2617 40.7123 43.9342 40.3848C43.6068 40.0574 43.4229 39.6133 43.4229 39.1503C43.4229 38.6872 43.6068 38.2431 43.9342 37.9157C44.2617 37.5882 44.7058 37.4043 45.1688 37.4043H71.2239C71.687 37.4043 72.1311 37.5882 72.4585 37.9157C72.786 38.2431 72.9699 38.6872 72.9699 39.1503C72.9699 39.6133 72.786 40.0574 72.4585 40.3848C72.1311 40.7123 71.687 40.8962 71.2239 40.8962Z" fill="white"/>
<path d="M71.2239 78.7702H45.1688C44.7058 78.7702 44.2617 78.5863 43.9342 78.2589C43.6068 77.9314 43.4229 77.4873 43.4229 77.0243C43.4229 76.5612 43.6068 76.1171 43.9342 75.7897C44.2617 75.4623 44.7058 75.2783 45.1688 75.2783H71.2239C71.687 75.2783 72.1311 75.4623 72.4585 75.7897C72.786 76.1171 72.9699 76.5612 72.9699 77.0243C72.9699 77.4873 72.786 77.9314 72.4585 78.2589C72.1311 78.5863 71.687 78.7702 71.2239 78.7702Z" fill="white"/>
<path d="M71.2239 87.0974H45.1688C44.7058 87.0974 44.2617 86.9134 43.9342 86.586C43.6068 86.2586 43.4229 85.8145 43.4229 85.3514C43.4229 84.8884 43.6068 84.4443 43.9342 84.1169C44.2617 83.7894 44.7058 83.6055 45.1688 83.6055H71.2239C71.687 83.6055 72.1311 83.7894 72.4585 84.1169C72.786 84.4443 72.9699 84.8884 72.9699 85.3514C72.9699 85.8145 72.786 86.2586 72.4585 86.586C72.1311 86.9134 71.687 87.0974 71.2239 87.0974Z" fill="white"/>
<path d="M58.3308 66.5492C64.1164 66.5492 68.8065 61.859 68.8065 56.0734C68.8065 50.2878 64.1164 45.5977 58.3308 45.5977C52.5451 45.5977 47.855 50.2878 47.855 56.0734C47.855 61.859 52.5451 66.5492 58.3308 66.5492Z" fill="white"/>
<path d="M112.637 52.3142L109.745 52.9227C109.719 52.9281 109.695 52.9392 109.675 52.9552C109.654 52.9713 109.638 52.9918 109.626 53.0152C109.615 53.0387 109.61 53.0644 109.61 53.0903C109.61 53.1163 109.616 53.1419 109.628 53.165L109.898 53.6946L96.818 60.3171C96.7981 60.3272 96.7804 60.3411 96.7659 60.358C96.7514 60.3748 96.7404 60.3944 96.7335 60.4156C96.7266 60.4367 96.7239 60.459 96.7256 60.4812C96.7273 60.5033 96.7334 60.5249 96.7435 60.5448C96.7536 60.5646 96.7675 60.5822 96.7844 60.5967C96.8013 60.6112 96.821 60.6222 96.8422 60.6291C96.8634 60.636 96.8857 60.6387 96.9079 60.6369C96.9301 60.6352 96.9518 60.6292 96.9717 60.6191L110.051 53.9966L110.321 54.5263C110.333 54.5494 110.35 54.5696 110.37 54.5851C110.391 54.6007 110.415 54.6113 110.441 54.6161C110.467 54.6208 110.493 54.6197 110.518 54.6127C110.543 54.6057 110.566 54.593 110.586 54.5756L112.785 52.6059C112.813 52.581 112.832 52.5476 112.839 52.511C112.846 52.4744 112.84 52.4365 112.823 52.4032C112.806 52.37 112.779 52.3432 112.745 52.3271C112.712 52.3111 112.673 52.3065 112.637 52.3142Z" fill="#E6E6E6"/>
<path d="M123.049 51.7729C121.88 51.7729 120.737 51.4264 119.765 50.777C118.794 50.1277 118.036 49.2048 117.589 48.1249C117.142 47.0451 117.025 45.857 117.253 44.7107C117.481 43.5643 118.044 42.5114 118.87 41.6849C119.696 40.8585 120.749 40.2957 121.896 40.0677C123.042 39.8396 124.23 39.9567 125.31 40.4039C126.39 40.8512 127.313 41.6086 127.962 42.5804C128.611 43.5522 128.958 44.6947 128.958 45.8635C128.956 47.4302 128.333 48.9323 127.225 50.0401C126.117 51.148 124.615 51.7712 123.049 51.7729ZM123.049 40.4913C121.986 40.4913 120.947 40.8064 120.064 41.3967C119.18 41.987 118.492 42.826 118.085 43.8077C117.679 44.7893 117.572 45.8695 117.78 46.9116C117.987 47.9537 118.499 48.9109 119.25 49.6622C120.001 50.4135 120.958 50.9252 122.001 51.1325C123.043 51.3398 124.123 51.2334 125.104 50.8268C126.086 50.4202 126.925 49.7316 127.515 48.8481C128.106 47.9647 128.421 46.926 128.421 45.8635C128.419 44.4392 127.853 43.0737 126.846 42.0666C125.838 41.0595 124.473 40.4929 123.049 40.4913Z" fill="#E6E6E6"/>
<path d="M122.58 48.7759C122.41 48.7762 122.243 48.721 122.107 48.6186L122.098 48.6122L120.315 47.2478C120.232 47.1845 120.163 47.1055 120.111 47.0154C120.059 46.9253 120.025 46.8258 120.011 46.7226C119.998 46.6194 120.004 46.5145 120.031 46.414C120.058 46.3134 120.105 46.2192 120.168 46.1366C120.231 46.0539 120.31 45.9846 120.4 45.9325C120.491 45.8805 120.59 45.8466 120.693 45.833C120.796 45.8194 120.901 45.8262 121.002 45.8531C121.102 45.88 121.197 45.9264 121.279 45.9898L122.435 46.8757L125.164 43.3142C125.228 43.2316 125.307 43.1623 125.397 43.1102C125.487 43.0582 125.586 43.0244 125.689 43.0107C125.793 42.9971 125.897 43.0039 125.998 43.0308C126.098 43.0577 126.193 43.1041 126.275 43.1674L126.276 43.1676L126.259 43.1911L126.276 43.1676C126.443 43.2956 126.552 43.4845 126.579 43.6928C126.606 43.9011 126.55 44.1118 126.423 44.2786L123.211 48.4659C123.137 48.5624 123.042 48.6404 122.932 48.694C122.823 48.7477 122.703 48.7754 122.581 48.775L122.58 48.7759Z" fill="#E6E6E6"/>
<path d="M133.252 59.0663C133.235 59.0663 133.217 59.065 133.2 59.0625C133.154 59.0558 133.109 59.0401 133.069 59.016C133.028 58.992 132.993 58.9602 132.965 58.9226L130.77 55.9781C130.76 55.9656 130.748 55.9558 130.734 55.9496C130.719 55.9435 130.704 55.9412 130.688 55.943C130.673 55.9449 130.658 55.9507 130.646 55.96C130.633 55.9693 130.623 55.9818 130.617 55.996L129.491 58.6302C129.462 58.6988 129.412 58.7564 129.348 58.7951C129.285 58.8338 129.21 58.8516 129.136 58.846C129.062 58.8403 128.991 58.8116 128.934 58.7637C128.877 58.7159 128.836 58.6514 128.817 58.5792L126.57 49.8829C126.553 49.8143 126.556 49.7419 126.579 49.675C126.603 49.6081 126.646 49.5497 126.703 49.5073C126.76 49.4649 126.828 49.4404 126.899 49.437C126.969 49.4335 127.04 49.4512 127.101 49.4878L134.794 54.1226C134.857 54.1611 134.908 54.2186 134.937 54.287C134.967 54.3554 134.974 54.4314 134.958 54.5043C134.942 54.5771 134.904 54.6432 134.849 54.6932C134.794 54.7432 134.724 54.7747 134.65 54.7832L131.805 55.1105C131.79 55.1122 131.775 55.1181 131.763 55.1273C131.75 55.1366 131.74 55.149 131.734 55.1633C131.728 55.1776 131.726 55.1932 131.727 55.2087C131.729 55.2242 131.735 55.2389 131.744 55.2513L133.94 58.1957C133.997 58.2717 134.021 58.367 134.007 58.4607C133.993 58.5543 133.943 58.6388 133.867 58.6955L133.465 58.9953C133.404 59.0414 133.329 59.0663 133.252 59.0663Z" fill="#7B64FF"/>
<path d="M145.746 65.4718H136.076C135.364 65.4718 134.681 65.1888 134.177 64.6851C133.673 64.1813 133.39 63.4981 133.39 62.7857C133.39 62.0733 133.673 61.3901 134.177 60.8864C134.681 60.3826 135.364 60.0996 136.076 60.0996H145.746C146.459 60.0996 147.142 60.3826 147.646 60.8864C148.149 61.3901 148.432 62.0733 148.432 62.7857C148.432 63.4981 148.149 64.1813 147.646 64.6851C147.142 65.1888 146.459 65.4718 145.746 65.4718Z" fill="#7B64FF"/>
<path d="M46.3128 47.5871L45.9107 47.2873C45.8349 47.2306 45.7846 47.1462 45.771 47.0525C45.7573 46.9588 45.7814 46.8635 45.8379 46.7875L48.0336 43.8431C48.0429 43.8307 48.0488 43.816 48.0506 43.8005C48.0524 43.785 48.0501 43.7694 48.0439 43.7551C48.0377 43.7408 48.0279 43.7284 48.0154 43.7191C48.0029 43.7099 47.9882 43.704 47.9728 43.7023L45.1278 43.375C45.0538 43.3665 44.9842 43.335 44.929 43.285C44.8737 43.235 44.8355 43.1689 44.8197 43.0961C44.8038 43.0232 44.8112 42.9472 44.8407 42.8788C44.8703 42.8103 44.9205 42.7529 44.9844 42.7144L52.6774 38.0796C52.7382 38.043 52.8085 38.0253 52.8793 38.0288C52.9501 38.0322 53.0183 38.0567 53.0752 38.0991C53.1321 38.1415 53.175 38.1999 53.1986 38.2668C53.2221 38.3337 53.2252 38.4061 53.2075 38.4747L50.9608 47.171C50.9421 47.2432 50.9014 47.3077 50.8442 47.3555C50.787 47.4034 50.7163 47.4321 50.642 47.4378C50.5676 47.4434 50.4934 47.4256 50.4297 47.3869C50.366 47.3482 50.3159 47.2906 50.2866 47.222L49.1607 44.5878C49.1546 44.5736 49.1448 44.5611 49.1323 44.5518C49.1199 44.5425 49.1052 44.5367 49.0897 44.5348C49.0743 44.533 49.0587 44.5353 49.0444 44.5414C49.0301 44.5476 49.0177 44.5574 49.0084 44.5699L46.8126 47.5143C46.7846 47.552 46.7495 47.5838 46.7092 47.6078C46.6689 47.6319 46.6242 47.6476 46.5778 47.6543C46.5605 47.6568 46.5431 47.6581 46.5256 47.6581C46.4489 47.6581 46.3742 47.6332 46.3128 47.5871Z" fill="#3F3D56"/>
<path d="M31.3462 51.3775C31.347 50.6654 31.6303 49.9826 32.1338 49.479C32.6374 48.9755 33.3201 48.6922 34.0323 48.6914H43.7022C44.4146 48.6914 45.0979 48.9744 45.6016 49.4782C46.1053 49.9819 46.3883 50.6651 46.3883 51.3775C46.3883 52.0899 46.1053 52.7731 45.6016 53.2769C45.0979 53.7806 44.4146 54.0636 43.7022 54.0636H34.0323C33.3201 54.0628 32.6374 53.7795 32.1338 53.276C31.6303 52.7724 31.347 52.0897 31.3462 51.3775Z" fill="#3F3D56"/>
<path d="M151.817 27.4702C153.785 27.4702 155.379 25.8753 155.379 23.908C155.379 21.9406 153.785 20.3457 151.817 20.3457C149.85 20.3457 148.255 21.9406 148.255 23.908C148.255 25.8753 149.85 27.4702 151.817 27.4702Z" fill="#7B64FF"/>
<path d="M153.409 23.2773H150.225C150.091 23.2773 149.963 23.3304 149.868 23.425C149.774 23.5195 149.721 23.6477 149.721 23.7813V26.966C149.721 27.0997 149.774 27.2279 149.868 27.3224C149.963 27.4169 150.091 27.47 150.225 27.47H153.409C153.543 27.47 153.671 27.4169 153.766 27.3224C153.86 27.2279 153.913 27.0997 153.913 26.966V23.7813C153.913 23.6477 153.86 23.5195 153.766 23.425C153.671 23.3304 153.543 23.2773 153.409 23.2773ZM151.817 26.4917C151.596 26.4917 151.38 26.4262 151.196 26.3033C151.012 26.1805 150.869 26.0058 150.784 25.8016C150.699 25.5973 150.677 25.3725 150.72 25.1556C150.764 24.9387 150.87 24.7395 151.026 24.5831C151.183 24.4267 151.382 24.3203 151.599 24.2771C151.816 24.234 152.041 24.2561 152.245 24.3407C152.449 24.4254 152.624 24.5687 152.747 24.7525C152.87 24.9364 152.935 25.1526 152.935 25.3737C152.935 25.6702 152.817 25.9546 152.608 26.1643C152.398 26.3739 152.114 26.4917 151.817 26.4917ZM153.075 24.2556C153.02 24.2556 152.966 24.2392 152.92 24.2085C152.874 24.1778 152.838 24.1342 152.817 24.0831C152.795 24.032 152.79 23.9758 152.801 23.9216C152.812 23.8674 152.838 23.8176 152.877 23.7785C152.916 23.7394 152.966 23.7128 153.02 23.702C153.075 23.6912 153.131 23.6967 153.182 23.7179C153.233 23.739 153.277 23.7749 153.307 23.8208C153.338 23.8668 153.354 23.9208 153.354 23.9761C153.354 24.0503 153.325 24.1214 153.273 24.1738C153.22 24.2262 153.149 24.2556 153.075 24.2556Z" fill="white"/>
<path d="M152.931 47.8726C154.898 47.8726 156.493 46.2777 156.493 44.3103C156.493 42.3429 154.898 40.748 152.931 40.748C150.964 40.748 149.369 42.3429 149.369 44.3103C149.369 46.2777 150.964 47.8726 152.931 47.8726Z" fill="#7B64FF"/>
<path d="M152.014 47.8726C151.429 47.873 150.856 47.7031 150.365 47.3836L150.118 47.2231L150.41 47.2555C150.487 47.2641 150.57 47.269 150.656 47.2703C151.051 47.2706 151.437 47.157 151.769 46.9432C151.572 46.9005 151.389 46.807 151.239 46.6721C151.089 46.5371 150.977 46.3654 150.914 46.1738L150.877 46.0608L150.994 46.0836C151.047 46.0941 151.101 46.1002 151.155 46.1017C150.97 46.0067 150.815 45.8627 150.706 45.6854C150.598 45.5082 150.54 45.3046 150.54 45.0968V44.9771L150.644 45.0232C150.706 45.058 150.771 45.0858 150.839 45.1062C150.679 44.9259 150.579 44.6996 150.554 44.4594C150.529 44.2192 150.581 43.9774 150.701 43.7682L150.752 43.6804L150.816 43.7592C151.281 44.3349 151.948 44.7122 152.681 44.8148C152.701 44.8177 152.722 44.8161 152.741 44.8103C152.761 44.8045 152.779 44.7946 152.794 44.7811C152.809 44.7676 152.822 44.7509 152.83 44.7321C152.839 44.7133 152.843 44.6929 152.843 44.6722C152.842 44.4488 152.907 44.23 153.03 44.0436C153.153 43.8572 153.329 43.7117 153.535 43.6256C153.741 43.5395 153.968 43.5168 154.187 43.5603C154.406 43.6037 154.608 43.7115 154.765 43.8698C154.981 43.8227 155.188 43.7415 155.378 43.6292L155.538 43.5342L155.48 43.7112C155.426 43.8754 155.335 44.0251 155.214 44.149C155.321 44.1211 155.426 44.0847 155.527 44.0402L155.745 43.9447L155.614 44.1427C155.475 44.3529 155.302 44.538 155.101 44.6902V44.7912C155.101 46.3059 153.949 47.8726 152.021 47.8726H152.014Z" fill="white"/>
<path d="M144.608 37.6714C146.575 37.6714 148.17 36.0765 148.17 34.1091C148.17 32.1418 146.575 30.5469 144.608 30.5469C142.64 30.5469 141.045 32.1418 141.045 34.1091C141.045 36.0765 142.64 37.6714 144.608 37.6714Z" fill="#7B64FF"/>
<path d="M146.2 33.4785H143.015C142.882 33.4785 142.753 33.5316 142.659 33.6261C142.564 33.7206 142.511 33.8488 142.511 33.9825V37.1672C142.511 37.3009 142.564 37.4291 142.659 37.5236C142.753 37.6181 142.882 37.6712 143.015 37.6712H146.2C146.334 37.6712 146.462 37.6181 146.556 37.5236C146.651 37.4291 146.704 37.3009 146.704 37.1672V33.9825C146.704 33.8488 146.651 33.7206 146.556 33.6261C146.462 33.5316 146.334 33.4785 146.2 33.4785ZM145.602 34.5537H145.237C144.987 34.5537 144.939 34.6718 144.939 34.8461V35.2157H145.534L145.456 35.7961H144.938V37.3094C144.716 37.351 144.488 37.3505 144.267 37.3078V35.7961H143.791V35.2157H144.276V34.7865C144.276 34.2734 144.632 33.9932 145.091 33.9932C145.312 33.9932 145.548 34.0098 145.602 34.0175L145.602 34.5537Z" fill="white"/>
</svg>
