<svg width="45" height="60" viewBox="0 0 45 60" fill="none" xmlns="http://www.w3.org/2000/svg">
<g filter="url(#filter0_d_0_310)">
<path d="M10.3165 45.6702L9.55736 46.6045L9.56437 46.6102L9.57147 46.6158L10.3165 45.6702ZM24.3306 24.6198L23.4213 23.8308L21.9097 25.5729L24.2032 25.8169L24.3306 24.6198ZM34.7092 12.658L33.8217 11.8445L33.8106 11.8566L33.7999 11.869L34.7092 12.658ZM28.3765 12.8339H29.5804V11.4458L28.2062 11.6421L28.3765 12.8339ZM28.3765 12.9512L29.1842 13.8439L29.5804 13.4854V12.9512H28.3765ZM25.7965 15.6484L24.88 14.8678L24.8768 14.8716L25.7965 15.6484ZM17.822 25.0889L18.7066 25.9054L18.7245 25.886L18.7416 25.8657L17.822 25.0889ZM17.3529 27.6102L16.2619 28.1193L16.2688 28.1341L16.2761 28.1486L17.3529 27.6102ZM17.5288 27.962L18.6181 27.4494L18.612 27.4365L18.6056 27.4236L17.5288 27.962ZM13.6588 41.2725L14.4152 40.3359L14.3724 40.3013L14.3266 40.2708L13.6588 41.2725ZM10.9615 41.6243L10.0052 40.893L9.98873 40.9145L9.97324 40.9368L10.9615 41.6243ZM10.0233 42.9729L11.0069 43.6672L11.0116 43.6604L10.0233 42.9729ZM9.57147 46.6158C11.5901 48.2062 16.0753 51.2718 22.3956 51.2718V48.864C16.8713 48.864 12.9129 46.1832 11.0616 44.7245L9.57147 46.6158ZM22.3956 51.2718C31.5559 51.2718 37.6721 44.5241 37.6721 36.7575H35.2644C35.2644 43.1808 30.2397 48.864 22.3956 48.864V51.2718ZM37.6721 36.7575C37.6721 32.3644 35.8419 29.1447 33.2376 26.9717C30.669 24.8285 27.3927 23.7349 24.4579 23.4226L24.2032 25.8169C26.7803 26.0911 29.5727 27.0496 31.6951 28.8204C33.7817 30.5614 35.2644 33.1174 35.2644 36.7575H37.6721ZM25.2399 25.4087L35.6185 13.447L33.7999 11.869L23.4213 23.8308L25.2399 25.4087ZM35.5966 13.4715C36.4686 12.5203 36.7926 11.5154 36.7926 10.3125H34.3848C34.3848 10.986 34.2398 11.3884 33.8217 11.8445L35.5966 13.4715ZM36.7926 10.3125V9.78482H34.3848V10.3125H36.7926ZM36.7926 9.78482C36.7926 8.98305 36.568 8.16839 35.9362 7.56535C35.3139 6.97132 34.4846 6.76321 33.6537 6.76321V9.17098C34.1129 9.17098 34.251 9.28536 34.2737 9.30702C34.287 9.31966 34.3848 9.41385 34.3848 9.78482H36.7926ZM33.6537 6.76321H12.7792V9.17098H33.6537V6.76321ZM12.7792 6.76321C11.9643 6.76321 11.1339 6.97835 10.5083 7.59006C9.87791 8.20646 9.64036 9.04423 9.64036 9.90209H12.0481C12.0481 9.46995 12.1624 9.34022 12.1916 9.31163C12.2257 9.27833 12.3628 9.17098 12.7792 9.17098V6.76321ZM9.64036 9.90209V11.0748H12.0481V9.90209H9.64036ZM9.64036 11.0748C9.64036 11.9169 9.88497 12.7416 10.4987 13.3553C11.1124 13.9691 11.9371 14.2137 12.7792 14.2137V11.8059C12.39 11.8059 12.2472 11.6987 12.2013 11.6528C12.1553 11.6069 12.0481 11.4641 12.0481 11.0748H9.64036ZM12.7792 14.2137H24.8583V11.8059H12.7792V14.2137ZM24.8583 14.2137C26.0326 14.2137 26.9418 14.1685 27.5639 14.1224C27.8749 14.0994 28.1142 14.0761 28.2789 14.0582C28.3613 14.0492 28.425 14.0415 28.4697 14.0359C28.4921 14.0331 28.5098 14.0307 28.5226 14.029C28.529 14.0281 28.5342 14.0274 28.5383 14.0269C28.5403 14.0266 28.542 14.0264 28.5434 14.0262C28.5441 14.0261 28.5447 14.026 28.5453 14.0259C28.5456 14.0258 28.5458 14.0258 28.5461 14.0258C28.5462 14.0258 28.5463 14.0257 28.5464 14.0257C28.5466 14.0257 28.5467 14.0257 28.3765 12.8339C28.2062 11.6421 28.2064 11.6421 28.2065 11.6421C28.2065 11.6421 28.2067 11.642 28.2068 11.642C28.2069 11.642 28.2071 11.642 28.2072 11.642C28.2075 11.6419 28.2076 11.6419 28.2077 11.6419C28.2079 11.6419 28.2079 11.6419 28.2075 11.6419C28.2067 11.642 28.2047 11.6423 28.2016 11.6427C28.1953 11.6436 28.1842 11.645 28.1684 11.647C28.1369 11.651 28.0866 11.6571 28.0178 11.6646C27.8802 11.6796 27.6687 11.7003 27.386 11.7213C26.8207 11.7631 25.9708 11.8059 24.8583 11.8059V14.2137ZM27.1726 12.8339V12.9512H29.5804V12.8339H27.1726ZM28.3765 12.9512C27.5688 12.0584 27.5687 12.0585 27.5686 12.0586C27.5686 12.0586 27.5685 12.0587 27.5684 12.0588C27.5683 12.0589 27.5681 12.059 27.568 12.0592C27.5676 12.0595 27.5672 12.0598 27.5667 12.0603C27.5658 12.0612 27.5645 12.0623 27.5629 12.0638C27.5598 12.0666 27.5555 12.0706 27.55 12.0755C27.5391 12.0855 27.5236 12.0998 27.5038 12.118C27.4642 12.1546 27.4074 12.2076 27.3355 12.2756C27.1919 12.4115 26.9878 12.608 26.7409 12.8548C26.2481 13.3477 25.5801 14.0459 24.88 14.8678L26.7129 16.4291C27.3614 15.6678 27.9835 15.0174 28.4435 14.5574C28.673 14.3278 28.8611 14.1468 28.9905 14.0244C29.0551 13.9632 29.1051 13.9167 29.1381 13.8862C29.1546 13.871 29.1669 13.8597 29.1746 13.8526C29.1785 13.849 29.1813 13.8465 29.1829 13.8451C29.1837 13.8443 29.1842 13.8439 29.1844 13.8437C29.1845 13.8436 29.1846 13.8435 29.1845 13.8436C29.1845 13.8436 29.1845 13.8436 29.1844 13.8437C29.1844 13.8437 29.1843 13.8438 29.1843 13.8438C29.1842 13.8438 29.1842 13.8439 28.3765 12.9512ZM24.8768 14.8716L16.9023 24.312L18.7416 25.8657L26.7162 16.4253L24.8768 14.8716ZM16.9373 24.2723C16.463 24.7862 16.1171 25.3945 15.9868 26.0812C15.8551 26.7758 15.9595 27.4713 16.2619 28.1193L18.4438 27.1011C18.3358 26.8696 18.3229 26.6856 18.3524 26.5299C18.3834 26.3664 18.4773 26.1538 18.7066 25.9054L16.9373 24.2723ZM16.2761 28.1486L16.452 28.5004L18.6056 27.4236L18.4296 27.0718L16.2761 28.1486ZM16.4395 28.4747C16.7363 29.1055 17.1428 29.6647 17.7405 30.0508C18.3415 30.4389 19.0137 30.5732 19.6983 30.5732V28.1654C19.3275 28.1654 19.1495 28.0945 19.0468 28.0282C18.9409 27.9598 18.7903 27.8154 18.6181 27.4494L16.4395 28.4747ZM19.6983 30.5732H20.9883V28.1654H19.6983V30.5732ZM20.9883 30.5732C23.3606 30.5732 25.4982 31.1622 27.0074 32.2456C28.4754 33.2994 29.4008 34.8491 29.4008 36.992H31.8085C31.8085 34.0335 30.4764 31.7719 28.4115 30.2897C26.388 28.8371 23.7174 28.1654 20.9883 28.1654V30.5732ZM29.4008 36.992C29.4008 40.6325 26.2902 43.3522 22.161 43.3522V45.76C27.2964 45.76 31.8085 42.2642 31.8085 36.992H29.4008ZM22.161 43.3522C18.5888 43.3522 15.8681 41.5094 14.4152 40.3359L12.9023 42.209C14.4986 43.4983 17.7587 45.76 22.161 45.76V43.3522ZM14.3266 40.2708C13.6769 39.8376 12.9052 39.518 12.063 39.6147C11.1906 39.7148 10.5138 40.228 10.0052 40.893L11.9178 42.3556C12.1715 42.0238 12.3156 42.0092 12.3375 42.0067C12.3895 42.0008 12.5852 42.0036 12.991 42.2742L14.3266 40.2708ZM9.97324 40.9368L9.03506 42.2854L11.0116 43.6604L11.9498 42.3118L9.97324 40.9368ZM9.0398 42.2787C8.58345 42.9252 8.27538 43.6928 8.35596 44.5255C8.43853 45.3787 8.90674 46.0759 9.55736 46.6045L11.0757 44.7358C10.7881 44.5022 10.7579 44.3492 10.7525 44.2935C10.7452 44.2174 10.7596 44.0175 11.0069 43.6672L9.0398 42.2787Z" fill="url(#paint0_linear_0_310)"/>
</g>
<defs>
<filter id="filter0_d_0_310" x="0.89264" y="0.743496" width="44.0028" height="58.9559" filterUnits="userSpaceOnUse" color-interpolation-filters="sRGB">
<feFlood flood-opacity="0" result="BackgroundImageFix"/>
<feColorMatrix in="SourceAlpha" type="matrix" values="0 0 0 0 0 0 0 0 0 0 0 0 0 0 0 0 0 0 127 0" result="hardAlpha"/>
<feOffset dy="1.20388"/>
<feGaussianBlur stdDeviation="4.21359"/>
<feComposite in2="hardAlpha" operator="out"/>
<feColorMatrix type="matrix" values="0 0 0 0 0.423529 0 0 0 0 0.388235 0 0 0 0 1 0 0 0 1 0"/>
<feBlend mode="normal" in2="BackgroundImageFix" result="effect1_dropShadow_0_310"/>
<feBlend mode="normal" in="SourceGraphic" in2="effect1_dropShadow_0_310" result="shape"/>
</filter>
<linearGradient id="paint0_linear_0_310" x1="23.4998" y1="0.364258" x2="23.4998" y2="62.3643" gradientUnits="userSpaceOnUse">
<stop stop-color="#0606F4"/>
<stop offset="1" stop-color="#7B64FF"/>
</linearGradient>
</defs>
</svg>
