<svg width="44" height="60" viewBox="0 0 44 60" fill="none" xmlns="http://www.w3.org/2000/svg">
<g filter="url(#filter0_d_0_275)">
<path d="M14.7702 44.6282L13.5665 44.6058L13.5436 45.8321H14.7702V44.6282ZM9.61017 13.7855L8.62878 13.0882L8.62663 13.0913L9.61017 13.7855ZM10.1379 16.4242L10.877 15.4738L10.8692 15.4679L10.1379 16.4242ZM11.1933 17.2451L11.9587 16.3158L11.9457 16.3051L11.9325 16.2948L11.1933 17.2451ZM13.9492 16.8346L14.8294 17.6561L14.8628 17.6203L14.8931 17.5819L13.9492 16.8346ZM7.23356 47.7359C7.23356 48.6727 7.56421 49.5064 8.22849 50.0909C8.8701 50.6555 9.69381 50.8748 10.4897 50.8748V48.467C10.1129 48.467 9.91047 48.3638 9.81912 48.2834C9.75045 48.2229 9.64133 48.0891 9.64133 47.7359H7.23356ZM10.4897 50.8748H33.4751V48.467H10.4897V50.8748ZM33.4751 50.8748C34.29 50.8748 35.1204 50.6596 35.746 50.0479C36.3764 49.4315 36.614 48.5938 36.614 47.7359H34.2062C34.2062 48.168 34.092 48.2978 34.0627 48.3264C34.0287 48.3597 33.8915 48.467 33.4751 48.467V50.8748ZM36.614 47.7359V46.5632H34.2062V47.7359H36.614ZM36.614 46.5632C36.614 45.7053 36.3764 44.8675 35.746 44.2511C35.1204 43.6394 34.29 43.4243 33.4751 43.4243V45.8321C33.8915 45.8321 34.0287 45.9394 34.0627 45.9727C34.092 46.0013 34.2062 46.131 34.2062 46.5632H36.614ZM33.4751 43.4243H14.7702V45.8321H33.4751V43.4243ZM15.9738 44.6506C16.009 42.7628 17.0118 41.1497 18.7852 39.5127C20.5837 37.8524 22.9623 36.3526 25.5138 34.6052C30.4561 31.2206 35.969 26.9685 35.969 19.4732H33.5612C33.5612 25.5816 29.1646 29.1868 24.1534 32.6186C21.7282 34.2795 19.119 35.9277 17.152 37.7435C15.1598 39.5824 13.6193 41.7734 13.5665 44.6058L15.9738 44.6506ZM35.969 19.4732C35.969 15.5679 34.4554 12.2613 31.867 9.9424C29.2901 7.63376 25.7208 6.36621 21.6892 6.36621V8.77398C25.2217 8.77398 28.1903 9.8812 30.2604 11.7357C32.3189 13.58 33.5612 16.225 33.5612 19.4732H35.969ZM21.6892 6.36621C14.4604 6.36621 10.3303 10.6935 8.62879 13.0882L10.5916 14.4828C12.0564 12.4212 15.549 8.77398 21.6892 8.77398V6.36621ZM8.62663 13.0913C8.13985 13.7809 7.87387 14.5897 8.05978 15.4477C8.23825 16.2714 8.78404 16.9044 9.40659 17.3805L10.8692 15.4679C10.4949 15.1817 10.425 14.9937 10.4129 14.9379C10.4083 14.9164 10.3769 14.787 10.5937 14.4798L8.62663 13.0913ZM9.39878 17.3745L10.4542 18.1954L11.9325 16.2948L10.877 15.4739L9.39878 17.3745ZM10.428 18.1744C11.1576 18.7752 12.0032 19.0376 12.8806 18.8566C13.6886 18.6898 14.3374 18.1832 14.8294 17.6561L13.0691 16.0132C12.7402 16.3656 12.5095 16.4746 12.394 16.4985C12.3479 16.508 12.3084 16.5073 12.2592 16.4932C12.2046 16.4777 12.1038 16.4353 11.9587 16.3158L10.428 18.1744ZM14.8931 17.5819C15.921 16.2835 18.0742 14.2272 21.2788 14.2272V11.8194C16.9779 11.8194 14.2057 14.5712 13.0053 16.0874L14.8931 17.5819ZM21.2788 14.2272C23.1945 14.2272 24.7528 14.8332 25.8185 15.8042C26.8746 16.7664 27.5217 18.1524 27.5217 19.8837H29.9295C29.9295 17.5104 29.0226 15.4662 27.4401 14.0244C25.8672 12.5913 23.7022 11.8194 21.2788 11.8194V14.2272ZM27.5217 19.8837C27.5217 21.8425 26.5193 23.5043 24.7286 25.1967C22.9083 26.9171 20.4905 28.4763 17.8858 30.3206C12.8194 33.9081 7.23356 38.4505 7.23356 46.5045H9.64133C9.64133 39.7822 14.1996 35.881 19.2772 32.2856C21.7446 30.5385 24.3988 28.8214 26.3825 26.9466C28.3958 25.0439 29.9295 22.7917 29.9295 19.8837H27.5217ZM7.23356 46.5045V47.7359H9.64133V46.5045H7.23356Z" fill="url(#paint0_linear_0_275)"/>
</g>
<defs>
<filter id="filter0_d_0_275" x="0.0103159" y="0.347012" width="43.827" height="58.955" filterUnits="userSpaceOnUse" color-interpolation-filters="sRGB">
<feFlood flood-opacity="0" result="BackgroundImageFix"/>
<feColorMatrix in="SourceAlpha" type="matrix" values="0 0 0 0 0 0 0 0 0 0 0 0 0 0 0 0 0 0 127 0" result="hardAlpha"/>
<feOffset dy="1.20388"/>
<feGaussianBlur stdDeviation="4.21359"/>
<feComposite in2="hardAlpha" operator="out"/>
<feColorMatrix type="matrix" values="0 0 0 0 0.423529 0 0 0 0 0.388235 0 0 0 0 1 0 0 0 1 0"/>
<feBlend mode="normal" in2="BackgroundImageFix" result="effect1_dropShadow_0_275"/>
<feBlend mode="normal" in="SourceGraphic" in2="effect1_dropShadow_0_275" result="shape"/>
</filter>
<linearGradient id="paint0_linear_0_275" x1="21.9998" y1="0.670898" x2="21.9998" y2="62.6709" gradientUnits="userSpaceOnUse">
<stop stop-color="#0606F4"/>
<stop offset="1" stop-color="#7B64FF"/>
</linearGradient>
</defs>
</svg>
