<svg width="60" height="60" viewBox="0 0 60 60" fill="none" xmlns="http://www.w3.org/2000/svg">
<rect width="60" height="60" rx="30" fill="#7B64FF"/>
<path d="M18.2981 42.48C17.9781 43.4 18.3781 44 19.3781 44H20.7381C21.4581 44 21.9781 43.64 22.1781 42.92L24.6581 35.88H35.2981L37.8181 42.92C38.0581 43.64 38.5381 44 39.2981 44H40.6581C41.6181 44 42.0581 43.4 41.7381 42.48L32.4581 16.84C32.2181 16.08 31.6981 15.76 30.9781 15.76H29.0581C28.2981 15.76 27.8181 16.08 27.5781 16.84L18.2981 42.48ZM25.6981 32.6L28.8581 23.64C29.3381 22.2 29.9781 19.64 29.9781 19.64H30.0581C30.0581 19.64 30.6581 22.2 31.1381 23.64L34.2581 32.6H25.6981Z" fill="white"/>
</svg>
