<svg width="129" height="64" viewBox="0 0 129 64" fill="none" xmlns="http://www.w3.org/2000/svg">
<path d="M23.4 39.5C24.8 38.5222 26.1889 37.7722 27.5667 37.25C28.9444 36.7278 30.4222 36.4667 32 36.4667C33.5778 36.4667 35.0611 36.7278 36.45 37.25C37.8389 37.7722 39.2333 38.5222 40.6333 39.5C41.6111 38.3 42.3055 37.0889 42.7167 35.8667C43.1278 34.6444 43.3333 33.3556 43.3333 32C43.3333 28.7778 42.25 26.0833 40.0833 23.9167C37.9167 21.75 35.2222 20.6667 32 20.6667C28.7778 20.6667 26.0833 21.75 23.9167 23.9167C21.75 26.0833 20.6667 28.7778 20.6667 32C20.6667 33.3556 20.8778 34.6444 21.3 35.8667C21.7222 37.0889 22.4222 38.3 23.4 39.5ZM32 33C30.7111 33 29.6278 32.5611 28.75 31.6833C27.8722 30.8056 27.4333 29.7222 27.4333 28.4333C27.4333 27.1444 27.8722 26.0611 28.75 25.1833C29.6278 24.3056 30.7111 23.8667 32 23.8667C33.2889 23.8667 34.3722 24.3056 35.25 25.1833C36.1278 26.0611 36.5667 27.1444 36.5667 28.4333C36.5667 29.7222 36.1278 30.8056 35.25 31.6833C34.3722 32.5611 33.2889 33 32 33ZM32 45.3333C30.1778 45.3333 28.4555 44.9833 26.8333 44.2833C25.2111 43.5833 23.7944 42.6278 22.5833 41.4167C21.3722 40.2056 20.4167 38.7889 19.7167 37.1667C19.0167 35.5444 18.6667 33.8222 18.6667 32C18.6667 30.1556 19.0167 28.4278 19.7167 26.8167C20.4167 25.2056 21.3722 23.7944 22.5833 22.5833C23.7944 21.3722 25.2111 20.4167 26.8333 19.7167C28.4555 19.0167 30.1778 18.6667 32 18.6667C33.8444 18.6667 35.5722 19.0167 37.1833 19.7167C38.7944 20.4167 40.2055 21.3722 41.4167 22.5833C42.6278 23.7944 43.5833 25.2056 44.2833 26.8167C44.9833 28.4278 45.3333 30.1556 45.3333 32C45.3333 33.8222 44.9833 35.5444 44.2833 37.1667C43.5833 38.7889 42.6278 40.2056 41.4167 41.4167C40.2055 42.6278 38.7944 43.5833 37.1833 44.2833C35.5722 44.9833 33.8444 45.3333 32 45.3333ZM32 43.3333C33.2222 43.3333 34.4167 43.1556 35.5833 42.8C36.75 42.4444 37.9 41.8222 39.0333 40.9333C37.9 40.1333 36.7444 39.5222 35.5667 39.1C34.3889 38.6778 33.2 38.4667 32 38.4667C30.8 38.4667 29.6111 38.6778 28.4333 39.1C27.2555 39.5222 26.1 40.1333 24.9667 40.9333C26.1 41.8222 27.25 42.4444 28.4167 42.8C29.5833 43.1556 30.7778 43.3333 32 43.3333ZM32 31C32.7555 31 33.3722 30.7611 33.85 30.2833C34.3278 29.8056 34.5667 29.1889 34.5667 28.4333C34.5667 27.6778 34.3278 27.0611 33.85 26.5833C33.3722 26.1056 32.7555 25.8667 32 25.8667C31.2444 25.8667 30.6278 26.1056 30.15 26.5833C29.6722 27.0611 29.4333 27.6778 29.4333 28.4333C29.4333 29.1889 29.6722 29.8056 30.15 30.2833C30.6278 30.7611 31.2444 31 32 31Z" fill="white"/>
<path d="M62.4588 33.74C62.4588 36.96 64.8188 39.24 68.4588 39.24C72.0588 39.24 74.4188 36.96 74.4188 33.74V25.8C74.4188 25.08 74.0388 24.7 73.3188 24.7H72.0188C71.2988 24.7 70.9188 25.08 70.9188 25.8V33.74C70.9188 35.24 69.9388 36.04 68.4388 36.04C66.9388 36.04 65.9588 35.24 65.9588 33.74V25.8C65.9588 25.08 65.5788 24.7 64.8588 24.7H63.5588C62.8388 24.7 62.4588 25.08 62.4588 25.8V33.74ZM76.3403 38.3C77.0603 38.72 78.2203 39.24 79.7603 39.24C82.4003 39.24 84.0003 37.78 84.0003 35.86C84.0003 32.28 79.1803 32.88 79.1803 31.7C79.1803 31.42 79.3603 31.16 80.1003 31.16C80.7803 31.16 81.3803 31.38 81.8603 31.56C82.5403 31.82 83.0203 31.72 83.3203 31.08L83.5603 30.6C83.8603 29.98 83.7803 29.42 83.1603 29.12C82.5203 28.82 81.5403 28.46 80.2403 28.46C77.8603 28.46 75.9603 29.6 75.9603 31.72C75.9603 35.34 80.7803 34.76 80.7803 35.96C80.7803 36.28 80.5403 36.54 79.8403 36.54C79.0203 36.54 78.3803 36.22 77.8803 36C77.2003 35.68 76.7603 35.74 76.3603 36.32L76.0603 36.78C75.6803 37.38 75.7403 37.96 76.3403 38.3ZM84.9595 33.84C84.9595 36.58 86.9395 39.24 90.6195 39.24C92.1995 39.24 93.4195 38.74 94.1595 38.32C94.7595 37.98 94.8595 37.44 94.5395 36.82L94.2595 36.3C93.9195 35.66 93.4395 35.58 92.7795 35.88C92.2595 36.14 91.5995 36.36 90.8995 36.36C89.7995 36.36 88.7595 35.78 88.4995 34.52H93.9195C94.5995 34.52 95.0795 33.92 95.0795 33.38C95.0795 30.62 93.3795 28.46 90.3195 28.46C86.9995 28.46 84.9595 30.82 84.9595 33.84ZM88.5795 32.54C88.7595 31.72 89.2395 31 90.2395 31C91.1195 31 91.6595 31.7 91.6595 32.54H88.5795ZM96.4966 37.9C96.4966 38.62 96.8766 39 97.5966 39H98.8566C99.5766 39 99.9566 38.62 99.9566 37.9V35C99.9566 33.32 100.757 31.92 102.397 31.92C103.117 31.92 103.497 31.54 103.497 30.82V29.7C103.497 28.98 103.257 28.6 102.557 28.6C101.257 28.6 100.157 30.02 99.8166 31.08H99.7766C99.7766 31.08 99.8166 30.78 99.8166 30.44V29.8C99.8166 29.08 99.4366 28.7 98.7166 28.7H97.5966C96.8766 28.7 96.4966 29.08 96.4966 29.8V37.9ZM104.602 38.3C105.322 38.72 106.482 39.24 108.022 39.24C110.662 39.24 112.262 37.78 112.262 35.86C112.262 32.28 107.442 32.88 107.442 31.7C107.442 31.42 107.622 31.16 108.362 31.16C109.042 31.16 109.642 31.38 110.122 31.56C110.802 31.82 111.282 31.72 111.582 31.08L111.822 30.6C112.122 29.98 112.042 29.42 111.422 29.12C110.782 28.82 109.802 28.46 108.502 28.46C106.122 28.46 104.222 29.6 104.222 31.72C104.222 35.34 109.042 34.76 109.042 35.96C109.042 36.28 108.802 36.54 108.102 36.54C107.282 36.54 106.642 36.22 106.142 36C105.462 35.68 105.022 35.74 104.622 36.32L104.322 36.78C103.942 37.38 104.002 37.96 104.602 38.3Z" fill="white"/>
<path d="M4 64V0H-4V64H4Z" fill="white" mask="url(#path-1-inside-1_1100_3992)"/>
</svg>
