<svg width="14" height="23" viewBox="0 0 14 23" fill="none" xmlns="http://www.w3.org/2000/svg">
<path d="M6.52588 18H11.0259H11.5259V17.5V3.5V3H11.0259H2.02588H1.52588V3.5V17.5V18H2.02588H6.52588ZM6.52588 18C7.63202 18 8.52588 18.8939 8.52588 20C8.52588 21.1061 7.63202 22 6.52588 22M6.52588 18C5.41974 18 4.52588 18.8939 4.52588 20C4.52588 21.1061 5.41974 22 6.52588 22M6.52588 22H2.52588C1.42202 22 0.525879 21.1039 0.525879 20V3C0.525879 1.89614 1.42202 1 2.52588 1H10.5259C11.6297 1 12.5259 1.89614 12.5259 3V20C12.5259 21.1039 11.6297 22 10.5259 22H6.52588Z" fill="white" stroke="white"/>
</svg>
