<svg width="21" height="17" viewBox="0 0 21 17" fill="none" xmlns="http://www.w3.org/2000/svg">
<path d="M20.0259 0.499023C19.2459 0.962023 17.6809 1.59302 16.7609 1.77502C16.7339 1.78202 16.7119 1.79102 16.6859 1.79802C15.8729 0.996023 14.7589 0.499023 13.5259 0.499023C11.0409 0.499023 9.02588 2.51402 9.02588 4.99902C9.02588 5.13002 9.01488 5.37102 9.02588 5.49902C5.67288 5.49902 3.12088 3.74302 1.29088 1.49902C1.09188 1.99902 1.00488 2.78902 1.00488 3.53102C1.00488 4.93202 2.09988 6.30802 3.80488 7.16102C3.49088 7.24202 3.14488 7.30002 2.78488 7.30002C2.20388 7.30002 1.58888 7.14702 1.02588 6.68302C1.02588 6.70002 1.02588 6.71602 1.02588 6.73402C1.02588 8.69202 3.10388 10.025 4.95188 10.396C4.57688 10.617 3.82088 10.639 3.45188 10.639C3.19188 10.639 2.27188 10.52 2.02588 10.474C2.53988 12.079 4.39388 12.981 6.16088 13.013C4.77888 14.097 3.81988 14.499 0.989879 14.499H0.0258789C1.81388 15.645 4.09088 16.5 6.37288 16.5C13.8029 16.5 18.0259 10.837 18.0259 5.49902C18.0259 5.41302 18.0239 5.23302 18.0209 5.05202C18.0209 5.03402 18.0259 5.01702 18.0259 4.99902C18.0259 4.97202 18.0179 4.94602 18.0179 4.91902C18.0149 4.78302 18.0119 4.65602 18.0089 4.59002C18.7989 4.02002 19.4839 3.30902 20.0259 2.49902C19.3009 2.82102 18.5229 3.03702 17.7059 3.13502C18.5399 2.63502 19.7249 1.44302 20.0259 0.499023Z" fill="white"/>
</svg>
