<svg width="21" height="17" viewBox="0 0 21 17" fill="none" xmlns="http://www.w3.org/2000/svg">
<path d="M19.6079 2.686C19.3779 1.826 18.6999 1.148 17.8399 0.918C16.2799 0.5 10.0259 0.5 10.0259 0.5C10.0259 0.5 3.77188 0.5 2.21188 0.918C1.35188 1.148 0.673879 1.826 0.443879 2.686C0.0258789 4.246 0.0258789 8.5 0.0258789 8.5C0.0258789 8.5 0.0258789 12.754 0.443879 14.314C0.673879 15.174 1.35188 15.852 2.21188 16.082C3.77188 16.5 10.0259 16.5 10.0259 16.5C10.0259 16.5 16.2799 16.5 17.8399 16.082C18.7009 15.852 19.3779 15.174 19.6079 14.314C20.0259 12.754 20.0259 8.5 20.0259 8.5C20.0259 8.5 20.0259 4.246 19.6079 2.686ZM8.02588 11.964V5.036L14.0259 8.5L8.02588 11.964Z" fill="white"/>
</svg>
