<svg width="141" height="27" viewBox="0 0 141 27" fill="none" xmlns="http://www.w3.org/2000/svg">
<path d="M0.845469 24.812C0.845469 25.604 1.24147 26 2.03347 26H3.18547C3.97747 26 4.37347 25.604 4.37347 24.812V1.772C4.37347 0.979998 3.97747 0.583999 3.18547 0.583999H2.03347C1.24147 0.583999 0.845469 0.979998 0.845469 1.772V24.812ZM10.865 24.812C10.865 25.604 11.261 26 12.053 26H13.205C13.997 26 14.393 25.604 14.393 24.812V9.512C14.393 8.072 14.177 5.804 14.177 5.804H14.249C14.249 5.804 15.437 8.108 16.337 9.512L27.209 25.208C27.533 25.784 27.965 26 28.613 26H29.981C30.773 26 31.169 25.604 31.169 24.812V1.772C31.169 0.979998 30.773 0.583999 29.981 0.583999H28.829C28.073 0.583999 27.641 0.979998 27.641 1.772V17.108C27.641 18.512 27.857 20.78 27.857 20.78H27.785C27.785 20.78 26.597 18.476 25.697 17.108L14.861 1.376C14.501 0.799998 14.105 0.583999 13.421 0.583999H12.053C11.261 0.583999 10.865 0.979998 10.865 1.772V24.812ZM43.4141 25.028C43.6661 25.712 44.0981 26 44.7821 26H46.5101C47.1581 26 47.6261 25.712 47.8421 25.028L56.3021 1.952C56.5901 1.124 56.2301 0.583999 55.3301 0.583999H53.9981C53.3141 0.583999 52.8821 0.872 52.6661 1.556L46.6181 18.548C46.1861 19.916 45.6461 22.04 45.6461 22.04H45.5741C45.5741 22.04 45.0701 19.916 44.6021 18.548L38.6261 1.556C38.4101 0.872 37.9781 0.583999 37.2941 0.583999H35.9261C35.0261 0.583999 34.6661 1.124 34.9541 1.952L43.4141 25.028ZM58.2177 13.112C58.2177 20.6 63.7257 26.432 71.2857 26.432C78.8457 26.432 84.3177 20.6 84.3177 13.112C84.3177 5.804 78.8457 0.151998 71.2857 0.151998C63.7257 0.151998 58.2177 5.804 58.2177 13.112ZM61.8897 13.112C61.8897 7.604 65.8857 3.428 71.2857 3.428C76.6857 3.428 80.6457 7.604 80.6457 13.112C80.6457 18.8 76.6857 23.156 71.2857 23.156C65.8857 23.156 61.8897 18.8 61.8897 13.112ZM89.1931 24.812C89.1931 25.604 89.5891 26 90.3811 26H91.5331C92.3251 26 92.7211 25.604 92.7211 24.812V1.772C92.7211 0.979998 92.3251 0.583999 91.5331 0.583999H90.3811C89.5891 0.583999 89.1931 0.979998 89.1931 1.772V24.812ZM97.6287 13.148C97.6287 20.6 102.777 26.432 110.625 26.432C115.269 26.432 118.365 24.272 119.661 23.192C120.237 22.688 120.273 22.112 119.841 21.536L119.301 20.816C118.833 20.204 118.257 20.204 117.645 20.672C116.529 21.536 114.081 23.156 110.733 23.156C104.865 23.156 101.301 18.512 101.301 13.112C101.301 7.748 104.793 3.428 110.697 3.428C113.757 3.428 115.989 4.724 117.069 5.444C117.753 5.876 118.293 5.804 118.725 5.156L119.193 4.436C119.589 3.788 119.553 3.212 118.977 2.78C117.717 1.844 114.909 0.151998 110.553 0.151998C102.957 0.151998 97.6287 5.768 97.6287 13.148ZM124.666 24.812C124.666 25.604 125.062 26 125.854 26H138.85C139.642 26 140.038 25.604 140.038 24.812V24.092C140.038 23.3 139.642 22.904 138.85 22.904H128.194V14.732H136.15C136.906 14.732 137.338 14.336 137.338 13.544V12.824C137.338 12.032 136.906 11.636 136.15 11.636H128.194V3.68H138.238C139.03 3.68 139.426 3.248 139.426 2.492V1.772C139.426 0.979998 139.03 0.583999 138.238 0.583999H125.854C125.062 0.583999 124.666 0.979998 124.666 1.772V24.812Z" fill="url(#paint0_linear_1416_5302)"/>
<defs>
<linearGradient id="paint0_linear_1416_5302" x1="69.5" y1="-13" x2="69.5" y2="41" gradientUnits="userSpaceOnUse">
<stop stop-color="#0606F4"/>
<stop offset="1" stop-color="#7B64FF"/>
</linearGradient>
</defs>
</svg>
